G75*
G70*
%OFA0B0*%
%FSLAX24Y24*%
%IPPOS*%
%LPD*%
%AMOC8*
5,1,8,0,0,1.08239X$1,22.5*
%
%ADD10C,0.0160*%
%ADD11C,0.0050*%
%ADD12C,0.0060*%
%ADD13C,0.0051*%
%ADD14C,0.0110*%
%ADD15C,0.0100*%
%ADD16R,0.0400X0.0400*%
%ADD17C,0.0070*%
%ADD18C,0.0400*%
%ADD19C,0.0080*%
D10*
X007331Y000500D02*
X026331Y000500D01*
X028801Y000500D01*
X033861Y000500D02*
X036331Y000500D01*
X039831Y000500D01*
X042301Y000500D01*
X047361Y000500D02*
X049831Y000500D01*
X084331Y000500D01*
X084331Y069500D01*
X007331Y069500D01*
X007331Y000500D01*
D11*
X006581Y004500D02*
X017581Y004500D01*
X017724Y004503D01*
X017866Y004514D01*
X018008Y004531D01*
X018149Y004554D01*
X018288Y004585D01*
X018426Y004622D01*
X018562Y004665D01*
X018696Y004715D01*
X018827Y004771D01*
X018956Y004833D01*
X019081Y004902D01*
X019203Y004976D01*
X019321Y005056D01*
X019435Y005142D01*
X019546Y005233D01*
X019651Y005329D01*
X019752Y005430D01*
X019848Y005535D01*
X019939Y005646D01*
X020025Y005760D01*
X020105Y005878D01*
X020179Y006000D01*
X020248Y006125D01*
X020310Y006254D01*
X020366Y006385D01*
X020416Y006519D01*
X020459Y006655D01*
X020496Y006793D01*
X020527Y006932D01*
X020550Y007073D01*
X020567Y007215D01*
X020578Y007357D01*
X020581Y007500D01*
X020581Y018500D01*
X022581Y017500D02*
X018081Y017500D01*
X018081Y008500D01*
X022581Y008500D01*
X022581Y017500D01*
X024581Y017500D02*
X024581Y008500D01*
X026581Y008500D01*
X026581Y017500D01*
X024581Y017500D01*
X020581Y018500D02*
X020578Y018643D01*
X020567Y018785D01*
X020550Y018927D01*
X020527Y019068D01*
X020496Y019207D01*
X020459Y019345D01*
X020416Y019481D01*
X020366Y019615D01*
X020310Y019746D01*
X020248Y019875D01*
X020179Y020000D01*
X020105Y020122D01*
X020025Y020240D01*
X019939Y020354D01*
X019848Y020465D01*
X019752Y020570D01*
X019651Y020671D01*
X019546Y020767D01*
X019435Y020858D01*
X019321Y020944D01*
X019203Y021024D01*
X019081Y021098D01*
X018956Y021167D01*
X018827Y021229D01*
X018696Y021285D01*
X018562Y021335D01*
X018426Y021378D01*
X018288Y021415D01*
X018149Y021446D01*
X018008Y021469D01*
X017866Y021486D01*
X017724Y021497D01*
X017581Y021500D01*
X006581Y021500D01*
X006438Y021497D01*
X006296Y021486D01*
X006154Y021469D01*
X006013Y021446D01*
X005874Y021415D01*
X005736Y021378D01*
X005600Y021335D01*
X005466Y021285D01*
X005335Y021229D01*
X005206Y021167D01*
X005081Y021098D01*
X004959Y021024D01*
X004841Y020944D01*
X004727Y020858D01*
X004616Y020767D01*
X004511Y020671D01*
X004410Y020570D01*
X004314Y020465D01*
X004223Y020354D01*
X004137Y020240D01*
X004057Y020122D01*
X003983Y020000D01*
X003914Y019875D01*
X003852Y019746D01*
X003796Y019615D01*
X003746Y019481D01*
X003703Y019345D01*
X003666Y019207D01*
X003635Y019068D01*
X003612Y018927D01*
X003595Y018785D01*
X003584Y018643D01*
X003581Y018500D01*
X003581Y007500D01*
X003584Y007357D01*
X003595Y007215D01*
X003612Y007073D01*
X003635Y006932D01*
X003666Y006793D01*
X003703Y006655D01*
X003746Y006519D01*
X003796Y006385D01*
X003852Y006254D01*
X003914Y006125D01*
X003983Y006000D01*
X004057Y005878D01*
X004137Y005760D01*
X004223Y005646D01*
X004314Y005535D01*
X004410Y005430D01*
X004511Y005329D01*
X004616Y005233D01*
X004727Y005142D01*
X004841Y005056D01*
X004959Y004976D01*
X005081Y004902D01*
X005206Y004833D01*
X005335Y004771D01*
X005466Y004715D01*
X005600Y004665D01*
X005736Y004622D01*
X005874Y004585D01*
X006013Y004554D01*
X006154Y004531D01*
X006296Y004514D01*
X006438Y004503D01*
X006581Y004500D01*
X028301Y002550D02*
X028301Y001900D01*
X028801Y001900D01*
X028801Y000500D01*
X030051Y000900D02*
X030051Y003700D01*
X028801Y003700D01*
X028801Y002550D01*
X028301Y002550D01*
X030051Y000900D02*
X032611Y000900D01*
X032611Y003700D01*
X033861Y003700D01*
X033861Y002550D01*
X034361Y002550D01*
X034361Y001900D01*
X033861Y001900D01*
X033861Y000500D01*
X033651Y004683D02*
X033651Y004984D01*
X033501Y005144D02*
X033576Y005219D01*
X033576Y005369D01*
X033501Y005444D01*
X033351Y005444D01*
X033351Y005294D01*
X033201Y005144D02*
X033501Y005144D01*
X033201Y005144D02*
X033126Y005219D01*
X033126Y005369D01*
X033201Y005444D01*
X033126Y005604D02*
X033576Y005904D01*
X033126Y005904D01*
X033126Y006065D02*
X033126Y006290D01*
X033201Y006365D01*
X033501Y006365D01*
X033576Y006290D01*
X033576Y006065D01*
X033126Y006065D01*
X033126Y005604D02*
X033576Y005604D01*
X032576Y005598D02*
X032576Y005372D01*
X032501Y005297D01*
X032426Y005372D01*
X032426Y005598D01*
X032351Y005598D02*
X032576Y005598D01*
X032351Y005598D02*
X032276Y005522D01*
X032276Y005372D01*
X032201Y005137D02*
X032126Y005062D01*
X032126Y004837D01*
X032576Y004837D01*
X032576Y005062D01*
X032501Y005137D01*
X032201Y005137D01*
X032276Y005758D02*
X032276Y005908D01*
X032201Y005833D02*
X032501Y005833D01*
X032576Y005908D01*
X032501Y006065D02*
X032426Y006140D01*
X032426Y006365D01*
X032351Y006365D02*
X032576Y006365D01*
X032576Y006140D01*
X032501Y006065D01*
X032276Y006140D02*
X032276Y006290D01*
X032351Y006365D01*
X031576Y006368D02*
X031501Y006293D01*
X031201Y006293D01*
X031276Y006218D02*
X031276Y006368D01*
X031276Y006061D02*
X031276Y005911D01*
X031201Y005986D02*
X031501Y005986D01*
X031576Y006061D01*
X031576Y005751D02*
X031276Y005751D01*
X031126Y005601D01*
X031276Y005451D01*
X031576Y005451D01*
X031351Y005451D02*
X031351Y005751D01*
X030576Y005834D02*
X030576Y005985D01*
X030576Y005909D02*
X030126Y005909D01*
X030126Y005834D01*
X030201Y005674D02*
X030126Y005599D01*
X030126Y005449D01*
X030201Y005374D01*
X030501Y005374D01*
X030576Y005449D01*
X030576Y005599D01*
X030501Y005674D01*
X030576Y006141D02*
X030126Y006141D01*
X030276Y006367D02*
X030426Y006141D01*
X030576Y006367D01*
X029576Y006365D02*
X029576Y006140D01*
X029501Y006065D01*
X029351Y006065D01*
X029276Y006140D01*
X029276Y006365D01*
X029276Y005904D02*
X029276Y005679D01*
X029351Y005604D01*
X029501Y005604D01*
X029576Y005679D01*
X029576Y005904D01*
X029426Y005444D02*
X029126Y005444D01*
X029426Y005444D02*
X029576Y005294D01*
X029426Y005144D01*
X029126Y005144D01*
X041801Y002550D02*
X041801Y001900D01*
X042301Y001900D01*
X042301Y000500D01*
X043551Y000900D02*
X043551Y003700D01*
X042301Y003700D01*
X042301Y002550D01*
X041801Y002550D01*
X043551Y000900D02*
X046111Y000900D01*
X046111Y003700D01*
X047361Y003700D01*
X047361Y002550D01*
X047861Y002550D01*
X047861Y001900D01*
X047361Y001900D01*
X047361Y000500D01*
X047151Y004683D02*
X047151Y004984D01*
X047001Y005144D02*
X047076Y005219D01*
X047076Y005369D01*
X047001Y005444D01*
X046851Y005444D01*
X046851Y005294D01*
X046701Y005144D02*
X047001Y005144D01*
X046701Y005144D02*
X046626Y005219D01*
X046626Y005369D01*
X046701Y005444D01*
X046626Y005604D02*
X047076Y005904D01*
X046626Y005904D01*
X046626Y006065D02*
X046626Y006290D01*
X046701Y006365D01*
X047001Y006365D01*
X047076Y006290D01*
X047076Y006065D01*
X046626Y006065D01*
X046626Y005604D02*
X047076Y005604D01*
X046076Y005598D02*
X046076Y005372D01*
X046001Y005297D01*
X045926Y005372D01*
X045926Y005598D01*
X045851Y005598D02*
X046076Y005598D01*
X045851Y005598D02*
X045776Y005522D01*
X045776Y005372D01*
X045701Y005137D02*
X045626Y005062D01*
X045626Y004837D01*
X046076Y004837D01*
X046076Y005062D01*
X046001Y005137D01*
X045701Y005137D01*
X045776Y005758D02*
X045776Y005908D01*
X045701Y005833D02*
X046001Y005833D01*
X046076Y005908D01*
X046001Y006065D02*
X045926Y006140D01*
X045926Y006365D01*
X045851Y006365D02*
X046076Y006365D01*
X046076Y006140D01*
X046001Y006065D01*
X045776Y006140D02*
X045776Y006290D01*
X045851Y006365D01*
X045076Y006368D02*
X045001Y006293D01*
X044701Y006293D01*
X044776Y006218D02*
X044776Y006368D01*
X044776Y006061D02*
X044776Y005911D01*
X044701Y005986D02*
X045001Y005986D01*
X045076Y006061D01*
X045076Y005751D02*
X044776Y005751D01*
X044626Y005601D01*
X044776Y005451D01*
X045076Y005451D01*
X044851Y005451D02*
X044851Y005751D01*
X044076Y005834D02*
X044076Y005985D01*
X044076Y005909D02*
X043626Y005909D01*
X043626Y005834D01*
X043701Y005674D02*
X043626Y005599D01*
X043626Y005449D01*
X043701Y005374D01*
X044001Y005374D01*
X044076Y005449D01*
X044076Y005599D01*
X044001Y005674D01*
X044076Y006141D02*
X043626Y006141D01*
X043776Y006367D02*
X043926Y006141D01*
X044076Y006367D01*
X043076Y006365D02*
X043076Y006140D01*
X043001Y006065D01*
X042851Y006065D01*
X042776Y006140D01*
X042776Y006365D01*
X042776Y005904D02*
X042776Y005679D01*
X042851Y005604D01*
X043001Y005604D01*
X043076Y005679D01*
X043076Y005904D01*
X042926Y005444D02*
X042626Y005444D01*
X042926Y005444D02*
X043076Y005294D01*
X042926Y005144D01*
X042626Y005144D01*
X048481Y011750D02*
X048481Y033000D01*
X050831Y033000D01*
X051831Y031865D02*
X051831Y031565D01*
X052831Y033000D02*
X055831Y033000D01*
X056831Y031865D02*
X056831Y031565D01*
X056681Y031715D02*
X056981Y031715D01*
X057831Y033000D02*
X060181Y033000D01*
X060181Y011750D01*
X048481Y011750D01*
X052831Y009250D02*
X057831Y009250D01*
X057831Y005500D01*
X056981Y005500D01*
X056581Y004850D02*
X056581Y003000D01*
X055731Y003000D01*
X055831Y001000D01*
X055829Y000956D01*
X055823Y000913D01*
X055814Y000871D01*
X055801Y000829D01*
X055784Y000789D01*
X055764Y000750D01*
X055741Y000713D01*
X055714Y000679D01*
X055685Y000646D01*
X055652Y000617D01*
X055618Y000590D01*
X055581Y000567D01*
X055542Y000547D01*
X055502Y000530D01*
X055460Y000517D01*
X055418Y000508D01*
X055375Y000502D01*
X055331Y000500D01*
X055287Y000502D01*
X055244Y000508D01*
X055202Y000517D01*
X055160Y000530D01*
X055120Y000547D01*
X055081Y000567D01*
X055044Y000590D01*
X055010Y000617D01*
X054977Y000646D01*
X054948Y000679D01*
X054921Y000713D01*
X054898Y000750D01*
X054878Y000789D01*
X054861Y000829D01*
X054848Y000871D01*
X054839Y000913D01*
X054833Y000956D01*
X054831Y001000D01*
X054931Y003000D01*
X055731Y003000D01*
X054931Y003000D02*
X054081Y003000D01*
X054081Y004850D01*
X053681Y005500D02*
X052831Y005500D01*
X052831Y009250D01*
X054981Y005500D02*
X055681Y005500D01*
X060831Y002000D02*
X060831Y068000D01*
X082831Y068000D01*
X082831Y002000D01*
X060831Y002000D01*
X033081Y019000D02*
X033085Y019147D01*
X033095Y019294D01*
X033113Y019440D01*
X033139Y019585D01*
X033171Y019729D01*
X033210Y019871D01*
X033256Y020011D01*
X033309Y020148D01*
X033369Y020283D01*
X033435Y020414D01*
X033508Y020542D01*
X033587Y020667D01*
X033671Y020787D01*
X033762Y020903D01*
X033858Y021015D01*
X033960Y021121D01*
X034066Y021223D01*
X034178Y021319D01*
X034294Y021410D01*
X034414Y021494D01*
X034539Y021573D01*
X034667Y021646D01*
X034798Y021712D01*
X034933Y021772D01*
X035070Y021825D01*
X035210Y021871D01*
X035352Y021910D01*
X035496Y021942D01*
X035641Y021968D01*
X035787Y021986D01*
X035934Y021996D01*
X036081Y022000D01*
X036228Y021996D01*
X036375Y021986D01*
X036521Y021968D01*
X036666Y021942D01*
X036810Y021910D01*
X036952Y021871D01*
X037092Y021825D01*
X037229Y021772D01*
X037364Y021712D01*
X037495Y021646D01*
X037623Y021573D01*
X037748Y021494D01*
X037868Y021410D01*
X037984Y021319D01*
X038096Y021223D01*
X038202Y021121D01*
X038304Y021015D01*
X038400Y020903D01*
X038491Y020787D01*
X038575Y020667D01*
X038654Y020542D01*
X038727Y020414D01*
X038793Y020283D01*
X038853Y020148D01*
X038906Y020011D01*
X038952Y019871D01*
X038991Y019729D01*
X039023Y019585D01*
X039049Y019440D01*
X039067Y019294D01*
X039077Y019147D01*
X039081Y019000D01*
X039077Y018853D01*
X039067Y018706D01*
X039049Y018560D01*
X039023Y018415D01*
X038991Y018271D01*
X038952Y018129D01*
X038906Y017989D01*
X038853Y017852D01*
X038793Y017717D01*
X038727Y017586D01*
X038654Y017458D01*
X038575Y017333D01*
X038491Y017213D01*
X038400Y017097D01*
X038304Y016985D01*
X038202Y016879D01*
X038096Y016777D01*
X037984Y016681D01*
X037868Y016590D01*
X037748Y016506D01*
X037623Y016427D01*
X037495Y016354D01*
X037364Y016288D01*
X037229Y016228D01*
X037092Y016175D01*
X036952Y016129D01*
X036810Y016090D01*
X036666Y016058D01*
X036521Y016032D01*
X036375Y016014D01*
X036228Y016004D01*
X036081Y016000D01*
X035934Y016004D01*
X035787Y016014D01*
X035641Y016032D01*
X035496Y016058D01*
X035352Y016090D01*
X035210Y016129D01*
X035070Y016175D01*
X034933Y016228D01*
X034798Y016288D01*
X034667Y016354D01*
X034539Y016427D01*
X034414Y016506D01*
X034294Y016590D01*
X034178Y016681D01*
X034066Y016777D01*
X033960Y016879D01*
X033858Y016985D01*
X033762Y017097D01*
X033671Y017213D01*
X033587Y017333D01*
X033508Y017458D01*
X033435Y017586D01*
X033369Y017717D01*
X033309Y017852D01*
X033256Y017989D01*
X033210Y018129D01*
X033171Y018271D01*
X033139Y018415D01*
X033113Y018560D01*
X033095Y018706D01*
X033085Y018853D01*
X033081Y019000D01*
X028201Y019000D02*
X028210Y019387D01*
X028239Y019772D01*
X028286Y020156D01*
X028352Y020537D01*
X028437Y020915D01*
X028540Y021287D01*
X028662Y021655D01*
X028801Y022016D01*
X028958Y022369D01*
X029131Y022715D01*
X029322Y023051D01*
X029529Y023378D01*
X029752Y023694D01*
X029990Y023999D01*
X030242Y024292D01*
X030509Y024572D01*
X030789Y024839D01*
X031082Y025091D01*
X031387Y025329D01*
X031703Y025552D01*
X032030Y025759D01*
X032366Y025950D01*
X032712Y026123D01*
X033065Y026280D01*
X033426Y026419D01*
X033794Y026541D01*
X034166Y026644D01*
X034544Y026729D01*
X034925Y026795D01*
X035309Y026842D01*
X035694Y026871D01*
X036081Y026880D01*
X036468Y026871D01*
X036853Y026842D01*
X037237Y026795D01*
X037618Y026729D01*
X037996Y026644D01*
X038368Y026541D01*
X038736Y026419D01*
X039097Y026280D01*
X039450Y026123D01*
X039796Y025950D01*
X040132Y025759D01*
X040459Y025552D01*
X040775Y025329D01*
X041080Y025091D01*
X041373Y024839D01*
X041653Y024572D01*
X041920Y024292D01*
X042172Y023999D01*
X042410Y023694D01*
X042633Y023378D01*
X042840Y023051D01*
X043031Y022715D01*
X043204Y022369D01*
X043361Y022016D01*
X043500Y021655D01*
X043622Y021287D01*
X043725Y020915D01*
X043810Y020537D01*
X043876Y020156D01*
X043923Y019772D01*
X043952Y019387D01*
X043961Y019000D01*
X043952Y018613D01*
X043923Y018228D01*
X043876Y017844D01*
X043810Y017463D01*
X043725Y017085D01*
X043622Y016713D01*
X043500Y016345D01*
X043361Y015984D01*
X043204Y015631D01*
X043031Y015285D01*
X042840Y014949D01*
X042633Y014622D01*
X042410Y014306D01*
X042172Y014001D01*
X041920Y013708D01*
X041653Y013428D01*
X041373Y013161D01*
X041080Y012909D01*
X040775Y012671D01*
X040459Y012448D01*
X040132Y012241D01*
X039796Y012050D01*
X039450Y011877D01*
X039097Y011720D01*
X038736Y011581D01*
X038368Y011459D01*
X037996Y011356D01*
X037618Y011271D01*
X037237Y011205D01*
X036853Y011158D01*
X036468Y011129D01*
X036081Y011120D01*
X035694Y011129D01*
X035309Y011158D01*
X034925Y011205D01*
X034544Y011271D01*
X034166Y011356D01*
X033794Y011459D01*
X033426Y011581D01*
X033065Y011720D01*
X032712Y011877D01*
X032366Y012050D01*
X032030Y012241D01*
X031703Y012448D01*
X031387Y012671D01*
X031082Y012909D01*
X030789Y013161D01*
X030509Y013428D01*
X030242Y013708D01*
X029990Y014001D01*
X029752Y014306D01*
X029529Y014622D01*
X029322Y014949D01*
X029131Y015285D01*
X028958Y015631D01*
X028801Y015984D01*
X028662Y016345D01*
X028540Y016713D01*
X028437Y017085D01*
X028352Y017463D01*
X028286Y017844D01*
X028239Y018228D01*
X028210Y018613D01*
X028201Y019000D01*
X025831Y025500D02*
X017831Y025500D01*
X017831Y033500D01*
X025831Y033500D01*
X025831Y025500D01*
X024806Y026675D02*
X024656Y026825D01*
X024356Y026825D01*
X024431Y026985D02*
X024731Y026985D01*
X024806Y027060D01*
X024806Y027211D01*
X024731Y027286D01*
X024431Y027286D01*
X024356Y027211D01*
X024356Y027060D01*
X024431Y026985D01*
X024356Y026525D02*
X024656Y026525D01*
X024806Y026675D01*
X024806Y027446D02*
X024356Y027446D01*
X024806Y027446D02*
X024806Y027746D01*
X024856Y030025D02*
X025006Y030025D01*
X024931Y030025D02*
X024931Y030475D01*
X024856Y030475D02*
X025006Y030475D01*
X025163Y030475D02*
X025463Y030025D01*
X025463Y030475D01*
X025163Y030475D02*
X025163Y030025D01*
X024906Y031000D02*
X024606Y031000D01*
X024756Y031850D02*
X024756Y032150D01*
X024606Y032000D02*
X024906Y032000D01*
X025331Y035500D02*
X025331Y039500D01*
X018831Y039500D01*
X018831Y035500D01*
X025331Y035500D01*
X021481Y037500D02*
X021483Y037591D01*
X021490Y037681D01*
X021501Y037771D01*
X021517Y037861D01*
X021536Y037950D01*
X021561Y038037D01*
X021589Y038123D01*
X021622Y038208D01*
X021659Y038291D01*
X021699Y038372D01*
X021744Y038451D01*
X021793Y038528D01*
X021845Y038602D01*
X021901Y038674D01*
X021960Y038742D01*
X022023Y038808D01*
X022089Y038871D01*
X022157Y038930D01*
X022229Y038986D01*
X022303Y039038D01*
X022380Y039087D01*
X022459Y039132D01*
X022540Y039172D01*
X022623Y039209D01*
X022708Y039242D01*
X022794Y039270D01*
X022881Y039295D01*
X022970Y039314D01*
X023060Y039330D01*
X023150Y039341D01*
X023240Y039348D01*
X023331Y039350D01*
X023422Y039348D01*
X023512Y039341D01*
X023602Y039330D01*
X023692Y039314D01*
X023781Y039295D01*
X023868Y039270D01*
X023954Y039242D01*
X024039Y039209D01*
X024122Y039172D01*
X024203Y039132D01*
X024282Y039087D01*
X024359Y039038D01*
X024433Y038986D01*
X024505Y038930D01*
X024573Y038871D01*
X024639Y038808D01*
X024702Y038742D01*
X024761Y038674D01*
X024817Y038602D01*
X024869Y038528D01*
X024918Y038451D01*
X024963Y038372D01*
X025003Y038291D01*
X025040Y038208D01*
X025073Y038123D01*
X025101Y038037D01*
X025126Y037950D01*
X025145Y037861D01*
X025161Y037771D01*
X025172Y037681D01*
X025179Y037591D01*
X025181Y037500D01*
X025179Y037409D01*
X025172Y037319D01*
X025161Y037229D01*
X025145Y037139D01*
X025126Y037050D01*
X025101Y036963D01*
X025073Y036877D01*
X025040Y036792D01*
X025003Y036709D01*
X024963Y036628D01*
X024918Y036549D01*
X024869Y036472D01*
X024817Y036398D01*
X024761Y036326D01*
X024702Y036258D01*
X024639Y036192D01*
X024573Y036129D01*
X024505Y036070D01*
X024433Y036014D01*
X024359Y035962D01*
X024282Y035913D01*
X024203Y035868D01*
X024122Y035828D01*
X024039Y035791D01*
X023954Y035758D01*
X023868Y035730D01*
X023781Y035705D01*
X023692Y035686D01*
X023602Y035670D01*
X023512Y035659D01*
X023422Y035652D01*
X023331Y035650D01*
X023240Y035652D01*
X023150Y035659D01*
X023060Y035670D01*
X022970Y035686D01*
X022881Y035705D01*
X022794Y035730D01*
X022708Y035758D01*
X022623Y035791D01*
X022540Y035828D01*
X022459Y035868D01*
X022380Y035913D01*
X022303Y035962D01*
X022229Y036014D01*
X022157Y036070D01*
X022089Y036129D01*
X022023Y036192D01*
X021960Y036258D01*
X021901Y036326D01*
X021845Y036398D01*
X021793Y036472D01*
X021744Y036549D01*
X021699Y036628D01*
X021659Y036709D01*
X021622Y036792D01*
X021589Y036877D01*
X021561Y036963D01*
X021536Y037050D01*
X021517Y037139D01*
X021501Y037229D01*
X021490Y037319D01*
X021483Y037409D01*
X021481Y037500D01*
X019006Y032150D02*
X019006Y031850D01*
X018856Y032000D02*
X019156Y032000D01*
X019156Y031000D02*
X018856Y031000D01*
X018867Y030475D02*
X018867Y030100D01*
X018792Y030025D01*
X018641Y030025D01*
X018566Y030100D01*
X018566Y030475D01*
X018406Y030400D02*
X018331Y030475D01*
X018181Y030475D01*
X018106Y030400D01*
X018106Y030100D01*
X018181Y030025D01*
X018331Y030025D01*
X018406Y030100D01*
X018406Y030400D01*
X019027Y030475D02*
X019327Y030475D01*
X019177Y030475D02*
X019177Y030025D01*
X019156Y028000D02*
X018856Y028000D01*
X019006Y027150D02*
X019006Y026850D01*
X018856Y027000D02*
X019156Y027000D01*
X019081Y026225D02*
X018931Y026225D01*
X018856Y026150D01*
X018856Y026075D01*
X018931Y026000D01*
X019081Y026000D01*
X019156Y025925D01*
X019156Y025850D01*
X019081Y025775D01*
X018931Y025775D01*
X018856Y025850D01*
X019156Y026150D02*
X019081Y026225D01*
X016731Y034750D02*
X016726Y034965D01*
X016710Y035179D01*
X016683Y035393D01*
X016647Y035605D01*
X016600Y035814D01*
X016543Y036021D01*
X016475Y036226D01*
X016398Y036426D01*
X016311Y036623D01*
X016215Y036815D01*
X016109Y037002D01*
X015995Y037184D01*
X015872Y037360D01*
X015740Y037530D01*
X015600Y037693D01*
X015452Y037849D01*
X015297Y037997D01*
X015135Y038138D01*
X014966Y038271D01*
X014790Y038395D01*
X014609Y038511D01*
X014423Y038618D01*
X014231Y038715D01*
X014035Y038803D01*
X013835Y038882D01*
X013631Y038950D01*
X016731Y034750D02*
X016726Y034535D01*
X016710Y034321D01*
X016683Y034107D01*
X016647Y033895D01*
X016600Y033686D01*
X016543Y033479D01*
X016475Y033274D01*
X016398Y033074D01*
X016311Y032877D01*
X016215Y032685D01*
X016109Y032498D01*
X015995Y032316D01*
X015872Y032140D01*
X015740Y031970D01*
X015600Y031807D01*
X015452Y031651D01*
X015297Y031503D01*
X015135Y031362D01*
X014966Y031229D01*
X014790Y031105D01*
X014609Y030989D01*
X014423Y030882D01*
X014231Y030785D01*
X014035Y030697D01*
X013835Y030618D01*
X013631Y030550D01*
X007931Y034750D02*
X007936Y034965D01*
X007952Y035179D01*
X007979Y035393D01*
X008015Y035605D01*
X008062Y035814D01*
X008119Y036021D01*
X008187Y036226D01*
X008264Y036426D01*
X008351Y036623D01*
X008447Y036815D01*
X008553Y037002D01*
X008667Y037184D01*
X008790Y037360D01*
X008922Y037530D01*
X009062Y037693D01*
X009210Y037849D01*
X009365Y037997D01*
X009527Y038138D01*
X009696Y038271D01*
X009872Y038395D01*
X010053Y038511D01*
X010239Y038618D01*
X010431Y038715D01*
X010627Y038803D01*
X010827Y038882D01*
X011031Y038950D01*
X007931Y034750D02*
X007936Y034535D01*
X007952Y034321D01*
X007979Y034107D01*
X008015Y033895D01*
X008062Y033686D01*
X008119Y033479D01*
X008187Y033274D01*
X008264Y033074D01*
X008351Y032877D01*
X008447Y032685D01*
X008553Y032498D01*
X008667Y032316D01*
X008790Y032140D01*
X008922Y031970D01*
X009062Y031807D01*
X009210Y031651D01*
X009365Y031503D01*
X009527Y031362D01*
X009696Y031229D01*
X009872Y031105D01*
X010053Y030989D01*
X010239Y030882D01*
X010431Y030785D01*
X010627Y030697D01*
X010827Y030618D01*
X011031Y030550D01*
X008331Y044500D02*
X027331Y044500D01*
X027331Y068500D01*
X008331Y068500D01*
X008331Y044500D01*
X015331Y062500D02*
X015331Y069500D01*
X020331Y069500D01*
X020331Y062500D01*
X015331Y062500D01*
X031831Y068500D02*
X031831Y035000D01*
X048831Y035000D01*
X048831Y068500D01*
X031831Y068500D01*
X038831Y069000D02*
X038831Y065500D01*
X041831Y065500D01*
X041831Y069000D01*
X038831Y069000D01*
X052081Y068500D02*
X052081Y058750D01*
X058581Y058750D01*
X058581Y068500D01*
X052081Y068500D01*
X054581Y069000D02*
X054581Y065500D01*
X057581Y065500D01*
X057581Y069000D01*
X054581Y069000D01*
X058856Y063725D02*
X059081Y063725D01*
X059156Y063650D01*
X059156Y063350D01*
X059081Y063275D01*
X058856Y063275D01*
X058856Y063725D01*
X059316Y063650D02*
X059316Y063350D01*
X059391Y063275D01*
X059542Y063275D01*
X059617Y063350D01*
X059777Y063275D02*
X060002Y063275D01*
X060077Y063350D01*
X060077Y063650D01*
X060002Y063725D01*
X059777Y063725D01*
X059777Y063275D01*
X059617Y063650D02*
X059542Y063725D01*
X059391Y063725D01*
X059316Y063650D01*
X059316Y062725D02*
X059617Y062725D01*
X059466Y062725D02*
X059466Y062275D01*
X059777Y062275D02*
X059777Y062725D01*
X060002Y062725D01*
X060077Y062650D01*
X060077Y062500D01*
X060002Y062425D01*
X059777Y062425D01*
X059927Y062425D02*
X060077Y062275D01*
X060002Y061725D02*
X060077Y061650D01*
X060077Y061500D01*
X060002Y061425D01*
X059777Y061425D01*
X059927Y061425D02*
X060077Y061275D01*
X059777Y061275D02*
X059777Y061725D01*
X060002Y061725D01*
X059617Y061650D02*
X059542Y061725D01*
X059391Y061725D01*
X059316Y061650D01*
X059316Y061575D01*
X059391Y061500D01*
X059542Y061500D01*
X059617Y061425D01*
X059617Y061350D01*
X059542Y061275D01*
X059391Y061275D01*
X059316Y061350D01*
X059156Y061350D02*
X059156Y061650D01*
X059081Y061725D01*
X058856Y061725D01*
X058856Y061275D01*
X059081Y061275D01*
X059156Y061350D01*
X059081Y060725D02*
X059156Y060650D01*
X059156Y060500D01*
X059081Y060425D01*
X058856Y060425D01*
X058856Y060275D02*
X058856Y060725D01*
X059081Y060725D01*
X059316Y060725D02*
X059617Y060725D01*
X059466Y060725D02*
X059466Y060275D01*
X059156Y060275D02*
X059006Y060425D01*
X059777Y060350D02*
X059852Y060275D01*
X060002Y060275D01*
X060077Y060350D01*
X060077Y060425D01*
X060002Y060500D01*
X059852Y060500D01*
X059777Y060575D01*
X059777Y060650D01*
X059852Y060725D01*
X060002Y060725D01*
X060077Y060650D01*
X059081Y062275D02*
X059156Y062350D01*
X059156Y062650D01*
X059081Y062725D01*
X058856Y062725D01*
X058856Y062275D01*
X059081Y062275D01*
X057981Y058475D02*
X057681Y058475D01*
X057606Y058400D01*
X057606Y058250D01*
X057681Y058175D01*
X057981Y058175D02*
X058056Y058250D01*
X058056Y058400D01*
X057981Y058475D01*
X058056Y058015D02*
X058056Y057714D01*
X058056Y057864D02*
X057606Y057864D01*
X057681Y057554D02*
X057606Y057479D01*
X057606Y057329D01*
X057681Y057254D01*
X057756Y057254D01*
X057831Y057329D01*
X057831Y057479D01*
X057906Y057554D01*
X057981Y057554D01*
X058056Y057479D01*
X058056Y057329D01*
X057981Y057254D01*
X057056Y057329D02*
X057056Y057554D01*
X056606Y057554D01*
X056606Y057329D01*
X056681Y057254D01*
X056981Y057254D01*
X057056Y057329D01*
X057056Y057714D02*
X056606Y057714D01*
X057056Y058015D01*
X056606Y058015D01*
X056681Y058175D02*
X056606Y058250D01*
X056606Y058400D01*
X056681Y058475D01*
X056981Y058475D01*
X057056Y058400D01*
X057056Y058250D01*
X056981Y058175D01*
X056831Y058175D02*
X056831Y058325D01*
X056831Y058175D02*
X056681Y058175D01*
X056056Y058175D02*
X056056Y058475D01*
X056056Y058325D02*
X055606Y058325D01*
X055606Y058015D02*
X056056Y057714D01*
X056056Y058015D02*
X055606Y057714D01*
X054056Y057714D02*
X053606Y058015D01*
X053606Y058175D02*
X053756Y058325D01*
X053756Y058250D02*
X053756Y058475D01*
X053606Y058475D02*
X054056Y058475D01*
X054056Y058250D01*
X053981Y058175D01*
X053831Y058175D01*
X053756Y058250D01*
X054056Y058015D02*
X053606Y057714D01*
X054181Y055725D02*
X054106Y055650D01*
X054106Y055350D01*
X054181Y055275D01*
X054331Y055275D01*
X054406Y055350D01*
X054406Y055500D01*
X054256Y055500D01*
X054406Y055650D02*
X054331Y055725D01*
X054181Y055725D01*
X054566Y055725D02*
X054867Y055275D01*
X054867Y055725D01*
X055027Y055725D02*
X055027Y055275D01*
X055252Y055275D01*
X055327Y055350D01*
X055327Y055650D01*
X055252Y055725D01*
X055027Y055725D01*
X054566Y055725D02*
X054566Y055275D01*
X054031Y054900D02*
X058631Y054900D01*
X058631Y038100D01*
X054031Y038100D01*
X054031Y054900D01*
X055056Y054571D02*
X055056Y054346D01*
X055506Y054346D01*
X055506Y054571D01*
X055431Y054646D01*
X055131Y054646D01*
X055056Y054571D01*
X055056Y054186D02*
X055506Y054186D01*
X055056Y053885D01*
X055506Y053885D01*
X055431Y053725D02*
X055281Y053725D01*
X055281Y053575D01*
X055431Y053425D02*
X055506Y053500D01*
X055506Y053650D01*
X055431Y053725D01*
X055431Y053425D02*
X055131Y053425D01*
X055056Y053500D01*
X055056Y053650D01*
X055131Y053725D01*
X057056Y053625D02*
X057356Y053625D01*
X057506Y053475D01*
X057356Y053325D01*
X057056Y053325D01*
X057281Y053785D02*
X057431Y053785D01*
X057506Y053860D01*
X057506Y054011D01*
X057431Y054086D01*
X057281Y054086D01*
X057206Y054011D01*
X057206Y053860D01*
X057281Y053785D01*
X057206Y054246D02*
X057431Y054246D01*
X057506Y054321D01*
X057506Y054546D01*
X057206Y054546D01*
X057206Y054706D02*
X057206Y054856D01*
X057131Y054781D02*
X057431Y054781D01*
X057506Y054856D01*
X057542Y055275D02*
X057617Y055350D01*
X057617Y055500D01*
X057542Y055575D01*
X057391Y055575D01*
X057316Y055500D01*
X057316Y055350D01*
X057391Y055275D01*
X057542Y055275D01*
X057777Y055350D02*
X057852Y055275D01*
X058077Y055275D01*
X058077Y055575D01*
X058237Y055575D02*
X058387Y055575D01*
X058312Y055650D02*
X058312Y055350D01*
X058387Y055275D01*
X057777Y055350D02*
X057777Y055575D01*
X057156Y055425D02*
X057006Y055275D01*
X056856Y055425D01*
X056856Y055725D01*
X057156Y055725D02*
X057156Y055425D01*
X057006Y039493D02*
X056781Y039493D01*
X056706Y039418D01*
X056706Y039192D01*
X057006Y039192D01*
X057006Y039036D02*
X057006Y038885D01*
X057006Y038960D02*
X056706Y038960D01*
X056706Y038885D01*
X056556Y038960D02*
X056481Y038960D01*
X056556Y038725D02*
X056856Y038725D01*
X057006Y038575D01*
X056856Y038425D01*
X056556Y038425D01*
X056891Y037550D02*
X056891Y037475D01*
X056891Y037325D02*
X056891Y037025D01*
X056816Y037025D02*
X056966Y037025D01*
X057123Y037025D02*
X057123Y037325D01*
X057348Y037325D01*
X057424Y037250D01*
X057424Y037025D01*
X056891Y037325D02*
X056816Y037325D01*
X056656Y037175D02*
X056656Y037475D01*
X056656Y037175D02*
X056506Y037025D01*
X056356Y037175D01*
X056356Y037475D01*
X055327Y037400D02*
X055252Y037475D01*
X055027Y037475D01*
X055027Y037025D01*
X055252Y037025D01*
X055327Y037100D01*
X055327Y037400D01*
X054867Y037475D02*
X054867Y037025D01*
X054566Y037475D01*
X054566Y037025D01*
X054406Y037100D02*
X054406Y037250D01*
X054256Y037250D01*
X054106Y037100D02*
X054181Y037025D01*
X054331Y037025D01*
X054406Y037100D01*
X054106Y037100D02*
X054106Y037400D01*
X054181Y037475D01*
X054331Y037475D01*
X054406Y037400D01*
X055131Y038325D02*
X055431Y038325D01*
X055506Y038400D01*
X055506Y038550D01*
X055431Y038625D01*
X055281Y038625D01*
X055281Y038475D01*
X055131Y038325D02*
X055056Y038400D01*
X055056Y038550D01*
X055131Y038625D01*
X055056Y038785D02*
X055506Y039086D01*
X055056Y039086D01*
X055056Y039246D02*
X055056Y039471D01*
X055131Y039546D01*
X055431Y039546D01*
X055506Y039471D01*
X055506Y039246D01*
X055056Y039246D01*
X055056Y038785D02*
X055506Y038785D01*
X057556Y038725D02*
X057556Y038425D01*
X058006Y038425D01*
X058006Y038725D01*
X058006Y038885D02*
X057556Y038885D01*
X058006Y039186D01*
X057556Y039186D01*
X057781Y038575D02*
X057781Y038425D01*
X058106Y037475D02*
X058106Y037025D01*
X058406Y037025D01*
X058566Y037025D02*
X058566Y037475D01*
X058867Y037025D01*
X058867Y037475D01*
X058406Y037475D02*
X058106Y037475D01*
X058106Y037250D02*
X058256Y037250D01*
X044281Y032900D02*
X044281Y029100D01*
X043131Y029100D01*
X041031Y029100D02*
X039931Y029100D01*
X039931Y032900D01*
X041031Y032900D01*
X043131Y032900D02*
X044281Y032900D01*
D12*
X044294Y025921D02*
X044294Y025494D01*
X044080Y025280D01*
X043867Y025494D01*
X043867Y025921D01*
X043649Y025814D02*
X043649Y025707D01*
X043543Y025600D01*
X043649Y025494D01*
X043649Y025387D01*
X043543Y025280D01*
X043329Y025280D01*
X043222Y025387D01*
X043007Y025387D02*
X043007Y025280D01*
X042900Y025280D01*
X042900Y025387D01*
X043007Y025387D01*
X042683Y025387D02*
X042576Y025280D01*
X042362Y025280D01*
X042256Y025387D01*
X042469Y025600D02*
X042576Y025600D01*
X042683Y025494D01*
X042683Y025387D01*
X042576Y025600D02*
X042683Y025707D01*
X042683Y025814D01*
X042576Y025921D01*
X042362Y025921D01*
X042256Y025814D01*
X042038Y025600D02*
X041611Y025600D01*
X041824Y025814D02*
X041824Y025387D01*
X043222Y025814D02*
X043329Y025921D01*
X043543Y025921D01*
X043649Y025814D01*
X043543Y025600D02*
X043436Y025600D01*
X053394Y034137D02*
X053501Y034030D01*
X053714Y034030D01*
X053821Y034137D01*
X053821Y034564D01*
X053714Y034671D01*
X053501Y034671D01*
X053394Y034564D01*
X053394Y034457D01*
X053501Y034350D01*
X053821Y034350D01*
X054683Y034244D02*
X054683Y034671D01*
X055110Y034671D02*
X055110Y034244D01*
X054897Y034030D01*
X054683Y034244D01*
X032077Y031421D02*
X032077Y030994D01*
X031864Y030780D01*
X031650Y030994D01*
X031650Y031421D01*
X031433Y031421D02*
X031006Y031421D01*
X031006Y031100D01*
X031219Y031207D01*
X031326Y031207D01*
X031433Y031100D01*
X031433Y030887D01*
X031326Y030780D01*
X031112Y030780D01*
X031006Y030887D01*
X030788Y031100D02*
X030361Y031100D01*
X030574Y031314D02*
X030574Y030887D01*
X028320Y035530D02*
X028427Y035637D01*
X028427Y036064D01*
X028320Y036171D01*
X028000Y036171D01*
X028000Y035530D01*
X028320Y035530D01*
X027783Y035530D02*
X027783Y036171D01*
X027356Y036171D02*
X027783Y035530D01*
X027356Y035530D02*
X027356Y036171D01*
X027138Y036064D02*
X027031Y036171D01*
X026818Y036171D01*
X026711Y036064D01*
X026711Y035637D01*
X026818Y035530D01*
X027031Y035530D01*
X027138Y035637D01*
X027138Y035850D01*
X026924Y035850D01*
X026826Y042530D02*
X026612Y042530D01*
X026506Y042637D01*
X026719Y042850D02*
X026826Y042850D01*
X026933Y042744D01*
X026933Y042637D01*
X026826Y042530D01*
X026826Y042850D02*
X026933Y042957D01*
X026933Y043064D01*
X026826Y043171D01*
X026612Y043171D01*
X026506Y043064D01*
X026288Y042850D02*
X025861Y042850D01*
X026074Y043064D02*
X026074Y042637D01*
X027150Y042637D02*
X027257Y042637D01*
X027257Y042530D01*
X027150Y042530D01*
X027150Y042637D01*
X027472Y042637D02*
X027579Y042530D01*
X027793Y042530D01*
X027899Y042637D01*
X027899Y042744D01*
X027793Y042850D01*
X027686Y042850D01*
X027793Y042850D02*
X027899Y042957D01*
X027899Y043064D01*
X027793Y043171D01*
X027579Y043171D01*
X027472Y043064D01*
X028117Y043171D02*
X028117Y042744D01*
X028330Y042530D01*
X028544Y042744D01*
X028544Y043171D01*
X028431Y047680D02*
X028538Y047787D01*
X028431Y047680D02*
X028218Y047680D01*
X028111Y047787D01*
X028111Y048214D01*
X028218Y048321D01*
X028431Y048321D01*
X028538Y048214D01*
X028431Y052180D02*
X028111Y052180D01*
X028111Y052821D01*
X028431Y052821D01*
X028538Y052714D01*
X028538Y052607D01*
X028431Y052500D01*
X028111Y052500D01*
X028431Y052500D02*
X028538Y052394D01*
X028538Y052287D01*
X028431Y052180D01*
X028551Y056680D02*
X028551Y057107D01*
X028337Y057321D01*
X028124Y057107D01*
X028124Y056680D01*
X028124Y057000D02*
X028551Y057000D01*
X028862Y065280D02*
X028756Y065387D01*
X028862Y065280D02*
X029076Y065280D01*
X029183Y065387D01*
X029183Y065494D01*
X029076Y065600D01*
X028969Y065600D01*
X029076Y065600D02*
X029183Y065707D01*
X029183Y065814D01*
X029076Y065921D01*
X028862Y065921D01*
X028756Y065814D01*
X028538Y065600D02*
X028111Y065600D01*
X028324Y065814D02*
X028324Y065387D01*
X029400Y065387D02*
X029507Y065387D01*
X029507Y065280D01*
X029400Y065280D01*
X029400Y065387D01*
X029722Y065387D02*
X029829Y065280D01*
X030043Y065280D01*
X030149Y065387D01*
X030149Y065494D01*
X030043Y065600D01*
X029936Y065600D01*
X030043Y065600D02*
X030149Y065707D01*
X030149Y065814D01*
X030043Y065921D01*
X029829Y065921D01*
X029722Y065814D01*
X030367Y065921D02*
X030367Y065494D01*
X030580Y065280D01*
X030794Y065494D01*
X030794Y065921D01*
X049361Y065600D02*
X049788Y065600D01*
X050006Y065600D02*
X050006Y065921D01*
X050433Y065921D01*
X050650Y065921D02*
X050650Y065494D01*
X050864Y065280D01*
X051077Y065494D01*
X051077Y065921D01*
X050433Y065600D02*
X050433Y065387D01*
X050326Y065280D01*
X050112Y065280D01*
X050006Y065387D01*
X050006Y065600D02*
X050219Y065707D01*
X050326Y065707D01*
X050433Y065600D01*
X049574Y065814D02*
X049574Y065387D01*
X051861Y056921D02*
X051861Y056494D01*
X052074Y056280D01*
X052288Y056494D01*
X052288Y056921D01*
X052506Y056600D02*
X052506Y056387D01*
X052612Y056280D01*
X052826Y056280D01*
X052933Y056387D01*
X052933Y056600D01*
X052826Y056707D01*
X052612Y056707D01*
X052506Y056600D01*
X053150Y056707D02*
X053150Y056387D01*
X053257Y056280D01*
X053577Y056280D01*
X053577Y056707D01*
X053795Y056707D02*
X054008Y056707D01*
X053901Y056814D02*
X053901Y056387D01*
X054008Y056280D01*
X052327Y055314D02*
X052220Y055421D01*
X051900Y055421D01*
X051900Y054780D01*
X052220Y054780D01*
X052327Y054887D01*
X052327Y055314D01*
X051683Y055421D02*
X051683Y054780D01*
X051256Y055421D01*
X051256Y054780D01*
X051038Y054887D02*
X051038Y055100D01*
X050824Y055100D01*
X050611Y054887D02*
X050718Y054780D01*
X050931Y054780D01*
X051038Y054887D01*
X051038Y055314D02*
X050931Y055421D01*
X050718Y055421D01*
X050611Y055314D01*
X050611Y054887D01*
X011788Y028214D02*
X011681Y028321D01*
X011361Y028321D01*
X011361Y027680D01*
X011681Y027680D01*
X011788Y027787D01*
X011788Y028214D01*
X011788Y026321D02*
X011361Y026321D01*
X011361Y025680D01*
X011788Y025680D01*
X011574Y026000D02*
X011361Y026000D01*
X022166Y016600D02*
X022566Y016600D01*
X022773Y016800D02*
X022873Y016700D01*
X023074Y016700D01*
X023174Y016800D01*
X023174Y017000D01*
X022973Y017000D01*
X022773Y017200D02*
X022773Y016800D01*
X022773Y017200D02*
X022873Y017301D01*
X023074Y017301D01*
X023174Y017200D01*
X023381Y017301D02*
X023381Y016700D01*
X023781Y016700D02*
X023381Y017301D01*
X023781Y017301D02*
X023781Y016700D01*
X023989Y016700D02*
X024289Y016700D01*
X024389Y016800D01*
X024389Y017200D01*
X024289Y017301D01*
X023989Y017301D01*
X023989Y016700D01*
X023984Y016301D02*
X023884Y016200D01*
X023884Y015800D01*
X023984Y015700D01*
X024184Y015700D01*
X024284Y015800D01*
X024284Y016200D01*
X024184Y016301D01*
X023984Y016301D01*
X023679Y016301D02*
X023478Y016301D01*
X023578Y016301D02*
X023578Y015700D01*
X023478Y015700D02*
X023679Y015700D01*
X023271Y015900D02*
X023271Y016301D01*
X022871Y016301D02*
X022871Y015900D01*
X023071Y015700D01*
X023271Y015900D01*
X023377Y015301D02*
X023377Y014700D01*
X023777Y014700D01*
X023985Y014800D02*
X024085Y014700D01*
X024285Y014700D01*
X024385Y014800D01*
X024385Y015301D01*
X023985Y015301D02*
X023985Y014800D01*
X023985Y014301D02*
X024385Y013700D01*
X024385Y014301D01*
X023985Y014301D02*
X023985Y013700D01*
X023777Y013700D02*
X023577Y013900D01*
X023677Y013900D02*
X023377Y013900D01*
X023377Y013700D02*
X023377Y014301D01*
X023677Y014301D01*
X023777Y014200D01*
X023777Y014000D01*
X023677Y013900D01*
X023170Y013800D02*
X023170Y014000D01*
X022970Y014000D01*
X023170Y013800D02*
X023070Y013700D01*
X022869Y013700D01*
X022769Y013800D01*
X022769Y014200D01*
X022869Y014301D01*
X023070Y014301D01*
X023170Y014200D01*
X023070Y014700D02*
X022769Y014700D01*
X022769Y015301D01*
X023070Y015301D01*
X023170Y015200D01*
X023170Y015100D01*
X023070Y015000D01*
X022769Y015000D01*
X023070Y015000D02*
X023170Y014900D01*
X023170Y014800D01*
X023070Y014700D01*
X023170Y013301D02*
X023170Y013200D01*
X022970Y013000D01*
X022970Y012700D01*
X022970Y013000D02*
X022769Y013200D01*
X022769Y013301D01*
X023377Y013301D02*
X023377Y012700D01*
X023777Y012700D01*
X023985Y012700D02*
X024385Y012700D01*
X023985Y012700D02*
X023985Y013301D01*
X023777Y013301D02*
X023377Y013301D01*
X023377Y013000D02*
X023577Y013000D01*
X023677Y012301D02*
X023377Y012301D01*
X023377Y011700D01*
X023377Y011900D02*
X023677Y011900D01*
X023777Y012000D01*
X023777Y012200D01*
X023677Y012301D01*
X023985Y012200D02*
X023985Y011800D01*
X024085Y011700D01*
X024285Y011700D01*
X024385Y011800D01*
X024385Y012000D01*
X024185Y012000D01*
X023985Y012200D02*
X024085Y012301D01*
X024285Y012301D01*
X024385Y012200D01*
X023777Y011700D02*
X023577Y011900D01*
X023170Y011800D02*
X023170Y012200D01*
X023070Y012301D01*
X022869Y012301D01*
X022769Y012200D01*
X022769Y011800D01*
X022869Y011700D01*
X023070Y011700D01*
X023170Y011800D01*
X023070Y011301D02*
X023170Y011200D01*
X023170Y011000D01*
X023070Y010900D01*
X022769Y010900D01*
X022769Y010700D02*
X022769Y011301D01*
X023070Y011301D01*
X023377Y011301D02*
X023377Y010700D01*
X023777Y010700D01*
X023985Y010700D02*
X024285Y010700D01*
X024385Y010800D01*
X024385Y011200D01*
X024285Y011301D01*
X023985Y011301D01*
X023985Y010700D01*
X023985Y010301D02*
X024385Y009700D01*
X024385Y010301D01*
X023985Y010301D02*
X023985Y009700D01*
X023777Y009700D02*
X023577Y009900D01*
X023677Y009900D02*
X023377Y009900D01*
X023377Y009700D02*
X023377Y010301D01*
X023677Y010301D01*
X023777Y010200D01*
X023777Y010000D01*
X023677Y009900D01*
X023170Y009900D02*
X023170Y009800D01*
X023070Y009700D01*
X022769Y009700D01*
X022769Y010301D01*
X023070Y010301D01*
X023170Y010200D01*
X023170Y010100D01*
X023070Y010000D01*
X022769Y010000D01*
X023070Y010000D02*
X023170Y009900D01*
X023070Y009301D02*
X022769Y009301D01*
X022769Y008700D01*
X023070Y008700D01*
X023170Y008800D01*
X023170Y008900D01*
X023070Y009000D01*
X022769Y009000D01*
X023070Y009000D02*
X023170Y009100D01*
X023170Y009200D01*
X023070Y009301D01*
X023377Y009301D02*
X023377Y008700D01*
X023777Y008700D01*
X023985Y008700D02*
X023985Y009301D01*
X024085Y009000D02*
X024385Y008700D01*
X023985Y008900D02*
X024385Y009301D01*
X023170Y010700D02*
X022970Y010900D01*
X023377Y011000D02*
X023577Y011000D01*
X023777Y011301D02*
X023377Y011301D01*
X027361Y011250D02*
X027574Y011250D01*
X027361Y010930D02*
X027361Y011571D01*
X027788Y011571D01*
X027681Y009571D02*
X027468Y009571D01*
X027361Y009464D01*
X027361Y009037D01*
X027468Y008930D01*
X027681Y008930D01*
X027788Y009037D01*
X027788Y009250D01*
X027574Y009250D01*
X027788Y009464D02*
X027681Y009571D01*
X036611Y010350D02*
X037038Y010350D01*
X036824Y010137D02*
X036824Y010564D01*
X037256Y010564D02*
X037362Y010671D01*
X037576Y010671D01*
X037683Y010564D01*
X037683Y010457D01*
X037576Y010350D01*
X037683Y010244D01*
X037683Y010137D01*
X037576Y010030D01*
X037362Y010030D01*
X037256Y010137D01*
X037469Y010350D02*
X037576Y010350D01*
X037900Y010137D02*
X038007Y010137D01*
X038007Y010030D01*
X037900Y010030D01*
X037900Y010137D01*
X038222Y010137D02*
X038329Y010030D01*
X038543Y010030D01*
X038649Y010137D01*
X038649Y010244D01*
X038543Y010350D01*
X038436Y010350D01*
X038543Y010350D02*
X038649Y010457D01*
X038649Y010564D01*
X038543Y010671D01*
X038329Y010671D01*
X038222Y010564D01*
X038867Y010671D02*
X038867Y010244D01*
X039080Y010030D01*
X039294Y010244D01*
X039294Y010671D01*
X041861Y009571D02*
X041861Y008930D01*
X041861Y009250D02*
X042288Y009250D01*
X042288Y008930D02*
X042288Y009571D01*
X042818Y012030D02*
X043031Y012030D01*
X043138Y012137D01*
X043138Y012350D01*
X042924Y012350D01*
X042711Y012137D02*
X042818Y012030D01*
X042711Y012137D02*
X042711Y012564D01*
X042818Y012671D01*
X043031Y012671D01*
X043138Y012564D01*
X043356Y012671D02*
X043783Y012030D01*
X043783Y012671D01*
X044000Y012671D02*
X044320Y012671D01*
X044427Y012564D01*
X044427Y012137D01*
X044320Y012030D01*
X044000Y012030D01*
X044000Y012671D01*
X043356Y012671D02*
X043356Y012030D01*
X048111Y009571D02*
X048324Y009571D01*
X048218Y009571D02*
X048218Y008930D01*
X048324Y008930D02*
X048111Y008930D01*
X048074Y007571D02*
X048288Y007571D01*
X048181Y007571D02*
X048181Y007037D01*
X048074Y006930D01*
X047968Y006930D01*
X047861Y007037D01*
X051718Y002421D02*
X051611Y002314D01*
X051611Y001887D01*
X051718Y001780D01*
X051931Y001780D01*
X052038Y001887D01*
X052038Y002314D01*
X051931Y002421D01*
X051718Y002421D01*
X052256Y002421D02*
X052683Y002421D01*
X052900Y002421D02*
X053327Y002421D01*
X053114Y002100D02*
X052900Y002100D01*
X052900Y001780D02*
X052900Y002421D01*
X052469Y002100D02*
X052256Y002100D01*
X052256Y001780D02*
X052256Y002421D01*
X057361Y002314D02*
X057361Y001887D01*
X057468Y001780D01*
X057681Y001780D01*
X057788Y001887D01*
X057788Y002314D01*
X057681Y002421D01*
X057468Y002421D01*
X057361Y002314D01*
X058006Y002421D02*
X058006Y001780D01*
X058433Y001780D02*
X058006Y002421D01*
X058433Y002421D02*
X058433Y001780D01*
X038927Y007387D02*
X038927Y007814D01*
X038820Y007921D01*
X038500Y007921D01*
X038500Y007280D01*
X038820Y007280D01*
X038927Y007387D01*
X038283Y007280D02*
X038283Y007921D01*
X037856Y007921D02*
X037856Y007280D01*
X037638Y007387D02*
X037638Y007600D01*
X037424Y007600D01*
X037211Y007814D02*
X037211Y007387D01*
X037318Y007280D01*
X037531Y007280D01*
X037638Y007387D01*
X037638Y007814D02*
X037531Y007921D01*
X037318Y007921D01*
X037211Y007814D01*
X037856Y007921D02*
X038283Y007280D01*
D13*
X014662Y001000D02*
X008875Y001000D01*
X009662Y001000D02*
X009764Y002024D01*
X009788Y002024D02*
X009662Y001000D01*
X009560Y002024D01*
X009536Y002024D02*
X009788Y002024D01*
X009713Y002024D02*
X009662Y001000D01*
X009611Y002024D01*
X009536Y002024D02*
X009662Y001000D01*
X009662Y070000D01*
X009764Y068976D01*
X009788Y068976D02*
X009662Y070000D01*
X009560Y068976D01*
X009536Y068976D02*
X009788Y068976D01*
X009713Y068976D02*
X009662Y070000D01*
X009611Y068976D01*
X009536Y068976D02*
X009662Y070000D01*
X008875Y070000D02*
X014662Y070000D01*
X014662Y073787D01*
X014662Y073000D02*
X015686Y072898D01*
X015686Y072874D02*
X014662Y073000D01*
X015686Y073102D01*
X015686Y073126D02*
X015686Y072874D01*
X015686Y072949D02*
X014662Y073000D01*
X015686Y073051D01*
X015686Y073126D02*
X014662Y073000D01*
X091662Y073000D01*
X090638Y072898D01*
X090638Y072874D02*
X091662Y073000D01*
X090638Y073102D01*
X090638Y073126D02*
X090638Y072874D01*
X090638Y072949D02*
X091662Y073000D01*
X090638Y073051D01*
X090638Y073126D02*
X091662Y073000D01*
X091662Y073787D02*
X091662Y070000D01*
D14*
X054596Y074506D02*
X053750Y073660D01*
X053750Y073449D01*
X053327Y073449D02*
X053115Y073449D01*
X053115Y073660D01*
X053327Y073660D01*
X053327Y073449D01*
X052692Y074506D02*
X051846Y073660D01*
X051846Y073449D01*
X051846Y074718D02*
X052692Y074718D01*
X052692Y074506D01*
X053750Y074718D02*
X054596Y074718D01*
X054596Y074506D01*
X009213Y036722D02*
X009213Y036299D01*
X009002Y036088D01*
X009002Y035665D02*
X009213Y035665D01*
X009213Y035453D01*
X009002Y035453D01*
X009002Y035665D01*
X009002Y035031D02*
X008790Y035031D01*
X008579Y034819D01*
X008579Y034184D01*
X009002Y034184D01*
X009213Y034396D01*
X009213Y034819D01*
X009002Y035031D01*
X008156Y034608D02*
X008579Y034184D01*
X008156Y034608D02*
X007944Y035031D01*
X008156Y036088D02*
X008367Y036088D01*
X008579Y036299D01*
X008579Y036934D01*
X009002Y036934D02*
X008156Y036934D01*
X007944Y036722D01*
X007944Y036299D01*
X008156Y036088D01*
X009002Y036934D02*
X009213Y036722D01*
D15*
X007331Y069500D02*
X084331Y069500D01*
X084331Y000500D01*
X047361Y000500D01*
X047361Y001900D01*
X047861Y001900D01*
X047861Y002550D01*
X047361Y002550D01*
X047361Y003700D01*
X046111Y003700D01*
X046111Y000900D01*
X043551Y000900D01*
X043551Y003700D01*
X042301Y003700D01*
X042301Y002550D01*
X041801Y002550D01*
X041801Y001900D01*
X042301Y001900D01*
X042301Y000500D01*
X033861Y000500D01*
X033861Y001900D01*
X034361Y001900D01*
X034361Y002550D01*
X033861Y002550D01*
X033861Y003700D01*
X032611Y003700D01*
X032611Y000900D01*
X030051Y000900D01*
X030051Y003700D01*
X028801Y003700D01*
X028801Y002550D01*
X028301Y002550D01*
X028301Y001900D01*
X028801Y001900D01*
X028801Y000500D01*
X007331Y000500D01*
X007331Y069500D01*
D16*
X061831Y066500D03*
X061831Y065500D03*
X061831Y064500D03*
X063331Y064500D03*
X063331Y065500D03*
X063331Y066500D03*
X066331Y066500D03*
X067331Y066500D03*
X068331Y066500D03*
X068331Y065500D03*
X068331Y064500D03*
X067331Y064500D03*
X067331Y065500D03*
X066331Y065500D03*
X066331Y064500D03*
X066331Y063500D03*
X067331Y063500D03*
X068331Y063500D03*
X068331Y062500D03*
X068331Y061500D03*
X067331Y061500D03*
X067331Y062500D03*
X066331Y062500D03*
X066331Y061500D03*
X066331Y060500D03*
X067331Y060500D03*
X068331Y060500D03*
X068331Y059500D03*
X068331Y058500D03*
X067331Y058500D03*
X067331Y059500D03*
X066331Y059500D03*
X066331Y058500D03*
X066331Y057500D03*
X067331Y057500D03*
X068331Y057500D03*
X068331Y056500D03*
X068331Y055500D03*
X067331Y055500D03*
X067331Y056500D03*
X066331Y056500D03*
X066331Y055500D03*
X066331Y054500D03*
X067331Y054500D03*
X068331Y054500D03*
X068331Y053500D03*
X068331Y052500D03*
X067331Y052500D03*
X067331Y053500D03*
X066331Y053500D03*
X066331Y052500D03*
X066331Y051500D03*
X067331Y051500D03*
X068331Y051500D03*
X068331Y050500D03*
X068331Y049500D03*
X067331Y049500D03*
X067331Y050500D03*
X066331Y050500D03*
X066331Y049500D03*
X066331Y048500D03*
X067331Y048500D03*
X068331Y048500D03*
X068331Y047500D03*
X068331Y046500D03*
X067331Y046500D03*
X067331Y047500D03*
X066331Y047500D03*
X066331Y046500D03*
X066331Y045500D03*
X067331Y045500D03*
X068331Y045500D03*
X068331Y044500D03*
X068331Y043500D03*
X067331Y043500D03*
X067331Y044500D03*
X066331Y044500D03*
X066331Y043500D03*
X066331Y042500D03*
X067331Y042500D03*
X068331Y042500D03*
X068331Y041500D03*
X068331Y040500D03*
X067331Y040500D03*
X067331Y041500D03*
X066331Y041500D03*
X066331Y040500D03*
X066331Y039500D03*
X067331Y039500D03*
X068331Y039500D03*
X068331Y038500D03*
X068331Y037500D03*
X067331Y037500D03*
X067331Y038500D03*
X066331Y038500D03*
X066331Y037500D03*
X066331Y036500D03*
X067331Y036500D03*
X068331Y036500D03*
X068331Y035500D03*
X068331Y034500D03*
X067331Y034500D03*
X067331Y035500D03*
X066331Y035500D03*
X066331Y034500D03*
X066331Y033500D03*
X067331Y033500D03*
X068331Y033500D03*
X068331Y032500D03*
X068331Y031500D03*
X067331Y031500D03*
X067331Y032500D03*
X066331Y032500D03*
X066331Y031500D03*
X066331Y030500D03*
X067331Y030500D03*
X068331Y030500D03*
X068331Y029500D03*
X068331Y028500D03*
X067331Y028500D03*
X067331Y029500D03*
X066331Y029500D03*
X066331Y028500D03*
X066331Y027500D03*
X067331Y027500D03*
X068331Y027500D03*
X068331Y026500D03*
X068331Y025500D03*
X067331Y025500D03*
X067331Y026500D03*
X066331Y026500D03*
X066331Y025500D03*
X066331Y024500D03*
X067331Y024500D03*
X068331Y024500D03*
X068331Y023500D03*
X068331Y022500D03*
X067331Y022500D03*
X067331Y023500D03*
X066331Y023500D03*
X066331Y022500D03*
X066331Y021500D03*
X067331Y021500D03*
X068331Y021500D03*
X068331Y020500D03*
X068331Y019500D03*
X067331Y019500D03*
X067331Y020500D03*
X066331Y020500D03*
X066331Y019500D03*
X066331Y018500D03*
X067331Y018500D03*
X068331Y018500D03*
X068331Y017500D03*
X068331Y016500D03*
X067331Y016500D03*
X067331Y017500D03*
X066331Y017500D03*
X066331Y016500D03*
X066331Y015500D03*
X067331Y015500D03*
X068331Y015500D03*
X068331Y014500D03*
X068331Y013500D03*
X067331Y013500D03*
X067331Y014500D03*
X066331Y014500D03*
X066331Y013500D03*
X066331Y012500D03*
X067331Y012500D03*
X068331Y012500D03*
X068331Y011500D03*
X068331Y010500D03*
X067331Y010500D03*
X067331Y011500D03*
X066331Y011500D03*
X066331Y010500D03*
X066331Y009500D03*
X067331Y009500D03*
X068331Y009500D03*
X068331Y008500D03*
X068331Y007500D03*
X067331Y007500D03*
X067331Y008500D03*
X066331Y008500D03*
X066331Y007500D03*
X066331Y006500D03*
X067331Y006500D03*
X068331Y006500D03*
X068331Y005500D03*
X068331Y004500D03*
X067331Y004500D03*
X067331Y005500D03*
X066331Y005500D03*
X066331Y004500D03*
X066331Y003500D03*
X067331Y003500D03*
X068331Y003500D03*
X069331Y003500D03*
X070331Y003500D03*
X070331Y004500D03*
X070331Y005500D03*
X070331Y006500D03*
X069331Y006500D03*
X069331Y005500D03*
X069331Y004500D03*
X069331Y007500D03*
X070331Y007500D03*
X070331Y008500D03*
X070331Y009500D03*
X069331Y009500D03*
X069331Y008500D03*
X069331Y010500D03*
X070331Y010500D03*
X070331Y011500D03*
X070331Y012500D03*
X069331Y012500D03*
X069331Y011500D03*
X069331Y013500D03*
X070331Y013500D03*
X070331Y014500D03*
X070331Y015500D03*
X069331Y015500D03*
X069331Y014500D03*
X069331Y016500D03*
X070331Y016500D03*
X070331Y017500D03*
X070331Y018500D03*
X069331Y018500D03*
X069331Y017500D03*
X069331Y019500D03*
X070331Y019500D03*
X070331Y020500D03*
X070331Y021500D03*
X069331Y021500D03*
X069331Y020500D03*
X069331Y022500D03*
X070331Y022500D03*
X070331Y023500D03*
X070331Y024500D03*
X069331Y024500D03*
X069331Y023500D03*
X069331Y025500D03*
X070331Y025500D03*
X070331Y026500D03*
X070331Y027500D03*
X069331Y027500D03*
X069331Y026500D03*
X069331Y028500D03*
X070331Y028500D03*
X070331Y029500D03*
X070331Y030500D03*
X069331Y030500D03*
X069331Y029500D03*
X069331Y031500D03*
X070331Y031500D03*
X070331Y032500D03*
X070331Y033500D03*
X069331Y033500D03*
X069331Y032500D03*
X069331Y034500D03*
X070331Y034500D03*
X070331Y035500D03*
X070331Y036500D03*
X069331Y036500D03*
X069331Y035500D03*
X069331Y037500D03*
X070331Y037500D03*
X070331Y038500D03*
X070331Y039500D03*
X069331Y039500D03*
X069331Y038500D03*
X069331Y040500D03*
X070331Y040500D03*
X070331Y041500D03*
X070331Y042500D03*
X069331Y042500D03*
X069331Y041500D03*
X069331Y043500D03*
X070331Y043500D03*
X070331Y044500D03*
X070331Y045500D03*
X069331Y045500D03*
X069331Y044500D03*
X069331Y046500D03*
X070331Y046500D03*
X070331Y047500D03*
X070331Y048500D03*
X069331Y048500D03*
X069331Y047500D03*
X069331Y049500D03*
X070331Y049500D03*
X070331Y050500D03*
X070331Y051500D03*
X069331Y051500D03*
X069331Y050500D03*
X069331Y052500D03*
X070331Y052500D03*
X070331Y053500D03*
X070331Y054500D03*
X069331Y054500D03*
X069331Y053500D03*
X069331Y055500D03*
X070331Y055500D03*
X070331Y056500D03*
X070331Y057500D03*
X069331Y057500D03*
X069331Y056500D03*
X069331Y058500D03*
X070331Y058500D03*
X070331Y059500D03*
X070331Y060500D03*
X069331Y060500D03*
X069331Y059500D03*
X069331Y061500D03*
X070331Y061500D03*
X070331Y062500D03*
X070331Y063500D03*
X069331Y063500D03*
X069331Y062500D03*
X069331Y064500D03*
X070331Y064500D03*
X070331Y065500D03*
X070331Y066500D03*
X069331Y066500D03*
X069331Y065500D03*
X073331Y065500D03*
X074331Y065500D03*
X074331Y064500D03*
X073331Y064500D03*
X073331Y063500D03*
X074331Y063500D03*
X074331Y062500D03*
X074331Y061500D03*
X073331Y061500D03*
X073331Y062500D03*
X075331Y062500D03*
X076331Y062500D03*
X077331Y062500D03*
X077331Y061500D03*
X076331Y061500D03*
X075331Y061500D03*
X075331Y060500D03*
X076331Y060500D03*
X077331Y060500D03*
X077331Y059500D03*
X077331Y058500D03*
X076331Y058500D03*
X076331Y059500D03*
X075331Y059500D03*
X075331Y058500D03*
X075331Y057500D03*
X076331Y057500D03*
X077331Y057500D03*
X077331Y056500D03*
X077331Y055500D03*
X076331Y055500D03*
X076331Y056500D03*
X075331Y056500D03*
X075331Y055500D03*
X075331Y054500D03*
X076331Y054500D03*
X077331Y054500D03*
X077331Y053500D03*
X077331Y052500D03*
X076331Y052500D03*
X076331Y053500D03*
X075331Y053500D03*
X075331Y052500D03*
X075331Y051500D03*
X076331Y051500D03*
X077331Y051500D03*
X077331Y050500D03*
X077331Y049500D03*
X076331Y049500D03*
X076331Y050500D03*
X075331Y050500D03*
X075331Y049500D03*
X075331Y048500D03*
X076331Y048500D03*
X077331Y048500D03*
X077331Y047500D03*
X077331Y046500D03*
X076331Y046500D03*
X076331Y047500D03*
X075331Y047500D03*
X075331Y046500D03*
X075331Y045500D03*
X076331Y045500D03*
X077331Y045500D03*
X077331Y044500D03*
X077331Y043500D03*
X076331Y043500D03*
X076331Y044500D03*
X075331Y044500D03*
X075331Y043500D03*
X075331Y042500D03*
X076331Y042500D03*
X077331Y042500D03*
X077331Y041500D03*
X077331Y040500D03*
X076331Y040500D03*
X076331Y041500D03*
X075331Y041500D03*
X075331Y040500D03*
X075331Y039500D03*
X076331Y039500D03*
X077331Y039500D03*
X077331Y038500D03*
X077331Y037500D03*
X076331Y037500D03*
X076331Y038500D03*
X075331Y038500D03*
X075331Y037500D03*
X075331Y036500D03*
X076331Y036500D03*
X077331Y036500D03*
X077331Y035500D03*
X077331Y034500D03*
X076331Y034500D03*
X076331Y035500D03*
X075331Y035500D03*
X075331Y034500D03*
X075331Y033500D03*
X076331Y033500D03*
X077331Y033500D03*
X077331Y032500D03*
X077331Y031500D03*
X076331Y031500D03*
X076331Y032500D03*
X075331Y032500D03*
X075331Y031500D03*
X075331Y030500D03*
X076331Y030500D03*
X077331Y030500D03*
X077331Y029500D03*
X077331Y028500D03*
X076331Y028500D03*
X076331Y029500D03*
X075331Y029500D03*
X075331Y028500D03*
X075331Y027500D03*
X076331Y027500D03*
X077331Y027500D03*
X077331Y026500D03*
X077331Y025500D03*
X076331Y025500D03*
X076331Y026500D03*
X075331Y026500D03*
X075331Y025500D03*
X075331Y024500D03*
X076331Y024500D03*
X077331Y024500D03*
X077331Y023500D03*
X077331Y022500D03*
X076331Y022500D03*
X076331Y023500D03*
X075331Y023500D03*
X075331Y022500D03*
X075331Y021500D03*
X076331Y021500D03*
X077331Y021500D03*
X077331Y020500D03*
X077331Y019500D03*
X076331Y019500D03*
X076331Y020500D03*
X075331Y020500D03*
X075331Y019500D03*
X075331Y018500D03*
X076331Y018500D03*
X077331Y018500D03*
X077331Y017500D03*
X077331Y016500D03*
X076331Y016500D03*
X076331Y017500D03*
X075331Y017500D03*
X075331Y016500D03*
X075331Y015500D03*
X076331Y015500D03*
X077331Y015500D03*
X077331Y014500D03*
X077331Y013500D03*
X076331Y013500D03*
X076331Y014500D03*
X075331Y014500D03*
X075331Y013500D03*
X075331Y012500D03*
X076331Y012500D03*
X077331Y012500D03*
X077331Y011500D03*
X077331Y010500D03*
X076331Y010500D03*
X076331Y011500D03*
X075331Y011500D03*
X075331Y010500D03*
X075331Y009500D03*
X076331Y009500D03*
X077331Y009500D03*
X077331Y008500D03*
X077331Y007500D03*
X076331Y007500D03*
X076331Y008500D03*
X075331Y008500D03*
X075331Y007500D03*
X075331Y006500D03*
X076331Y006500D03*
X077331Y006500D03*
X077331Y005500D03*
X077331Y004500D03*
X076331Y004500D03*
X076331Y005500D03*
X075331Y005500D03*
X075331Y004500D03*
X075331Y003500D03*
X076331Y003500D03*
X077331Y003500D03*
X080331Y003500D03*
X081831Y003500D03*
X081831Y004500D03*
X081831Y005500D03*
X081831Y006500D03*
X080331Y006500D03*
X080331Y005500D03*
X080331Y004500D03*
X080331Y007500D03*
X080331Y008500D03*
X080331Y009500D03*
X081831Y009500D03*
X081831Y008500D03*
X081831Y007500D03*
X081831Y010500D03*
X081831Y011500D03*
X081831Y012500D03*
X080331Y012500D03*
X080331Y011500D03*
X080331Y010500D03*
X080331Y013500D03*
X080331Y014500D03*
X080331Y015500D03*
X081831Y015500D03*
X081831Y014500D03*
X081831Y013500D03*
X081831Y016500D03*
X081831Y017500D03*
X081831Y018500D03*
X080331Y018500D03*
X080331Y017500D03*
X080331Y016500D03*
X080331Y019500D03*
X080331Y020500D03*
X080331Y021500D03*
X081831Y021500D03*
X081831Y020500D03*
X081831Y019500D03*
X081831Y022500D03*
X081831Y023500D03*
X081831Y024500D03*
X080331Y024500D03*
X080331Y023500D03*
X080331Y022500D03*
X080331Y025500D03*
X080331Y026500D03*
X080331Y027500D03*
X081831Y027500D03*
X081831Y026500D03*
X081831Y025500D03*
X081831Y028500D03*
X081831Y029500D03*
X081831Y030500D03*
X080331Y030500D03*
X080331Y029500D03*
X080331Y028500D03*
X080331Y031500D03*
X080331Y032500D03*
X080331Y033500D03*
X081831Y033500D03*
X081831Y032500D03*
X081831Y031500D03*
X081831Y034500D03*
X081831Y035500D03*
X081831Y036500D03*
X080331Y036500D03*
X080331Y035500D03*
X080331Y034500D03*
X080331Y037500D03*
X080331Y038500D03*
X080331Y039500D03*
X081831Y039500D03*
X081831Y038500D03*
X081831Y037500D03*
X081831Y040500D03*
X081831Y041500D03*
X081831Y042500D03*
X080331Y042500D03*
X080331Y041500D03*
X080331Y040500D03*
X080331Y043500D03*
X080331Y044500D03*
X080331Y045500D03*
X081831Y045500D03*
X081831Y044500D03*
X081831Y043500D03*
X081831Y046500D03*
X081831Y047500D03*
X081831Y048500D03*
X080331Y048500D03*
X080331Y047500D03*
X080331Y046500D03*
X080331Y049500D03*
X080331Y050500D03*
X080331Y051500D03*
X081831Y051500D03*
X081831Y050500D03*
X081831Y049500D03*
X081831Y052500D03*
X081831Y053500D03*
X081831Y054500D03*
X080331Y054500D03*
X080331Y053500D03*
X080331Y052500D03*
X080331Y055500D03*
X080331Y056500D03*
X080331Y057500D03*
X081831Y057500D03*
X081831Y056500D03*
X081831Y055500D03*
X081831Y058500D03*
X081831Y059500D03*
X081831Y060500D03*
X080331Y060500D03*
X080331Y059500D03*
X080331Y058500D03*
X080331Y061500D03*
X080331Y062500D03*
X080331Y063500D03*
X081831Y063500D03*
X081831Y062500D03*
X081831Y061500D03*
X081831Y064500D03*
X081831Y065500D03*
X081831Y066500D03*
X080331Y066500D03*
X080331Y065500D03*
X080331Y064500D03*
X077331Y064500D03*
X077331Y065500D03*
X077331Y066500D03*
X076331Y066500D03*
X076331Y065500D03*
X076331Y064500D03*
X075331Y064500D03*
X075331Y065500D03*
X075331Y066500D03*
X074331Y066500D03*
X073331Y066500D03*
X075331Y063500D03*
X076331Y063500D03*
X077331Y063500D03*
X074331Y060500D03*
X074331Y059500D03*
X074331Y058500D03*
X073331Y058500D03*
X073331Y059500D03*
X073331Y060500D03*
X073331Y057500D03*
X074331Y057500D03*
X074331Y056500D03*
X074331Y055500D03*
X073331Y055500D03*
X073331Y056500D03*
X073331Y054500D03*
X074331Y054500D03*
X074331Y053500D03*
X074331Y052500D03*
X073331Y052500D03*
X073331Y053500D03*
X073331Y051500D03*
X074331Y051500D03*
X074331Y050500D03*
X074331Y049500D03*
X073331Y049500D03*
X073331Y050500D03*
X073331Y048500D03*
X074331Y048500D03*
X074331Y047500D03*
X074331Y046500D03*
X073331Y046500D03*
X073331Y047500D03*
X073331Y045500D03*
X074331Y045500D03*
X074331Y044500D03*
X074331Y043500D03*
X073331Y043500D03*
X073331Y044500D03*
X073331Y042500D03*
X074331Y042500D03*
X074331Y041500D03*
X074331Y040500D03*
X073331Y040500D03*
X073331Y041500D03*
X073331Y039500D03*
X074331Y039500D03*
X074331Y038500D03*
X074331Y037500D03*
X073331Y037500D03*
X073331Y038500D03*
X073331Y036500D03*
X074331Y036500D03*
X074331Y035500D03*
X074331Y034500D03*
X073331Y034500D03*
X073331Y035500D03*
X073331Y033500D03*
X074331Y033500D03*
X074331Y032500D03*
X074331Y031500D03*
X073331Y031500D03*
X073331Y032500D03*
X073331Y030500D03*
X074331Y030500D03*
X074331Y029500D03*
X074331Y028500D03*
X073331Y028500D03*
X073331Y029500D03*
X073331Y027500D03*
X074331Y027500D03*
X074331Y026500D03*
X074331Y025500D03*
X073331Y025500D03*
X073331Y026500D03*
X073331Y024500D03*
X074331Y024500D03*
X074331Y023500D03*
X074331Y022500D03*
X073331Y022500D03*
X073331Y023500D03*
X073331Y021500D03*
X074331Y021500D03*
X074331Y020500D03*
X074331Y019500D03*
X073331Y019500D03*
X073331Y020500D03*
X073331Y018500D03*
X074331Y018500D03*
X074331Y017500D03*
X074331Y016500D03*
X073331Y016500D03*
X073331Y017500D03*
X073331Y015500D03*
X074331Y015500D03*
X074331Y014500D03*
X074331Y013500D03*
X073331Y013500D03*
X073331Y014500D03*
X073331Y012500D03*
X074331Y012500D03*
X074331Y011500D03*
X074331Y010500D03*
X073331Y010500D03*
X073331Y011500D03*
X073331Y009500D03*
X074331Y009500D03*
X074331Y008500D03*
X074331Y007500D03*
X073331Y007500D03*
X073331Y008500D03*
X073331Y006500D03*
X074331Y006500D03*
X074331Y005500D03*
X074331Y004500D03*
X073331Y004500D03*
X073331Y005500D03*
X073331Y003500D03*
X074331Y003500D03*
X063331Y003500D03*
X061831Y003500D03*
X061831Y004500D03*
X061831Y005500D03*
X061831Y006500D03*
X063331Y006500D03*
X063331Y005500D03*
X063331Y004500D03*
X063331Y007500D03*
X063331Y008500D03*
X063331Y009500D03*
X061831Y009500D03*
X061831Y008500D03*
X061831Y007500D03*
X061831Y010500D03*
X061831Y011500D03*
X061831Y012500D03*
X063331Y012500D03*
X063331Y011500D03*
X063331Y010500D03*
X063331Y013500D03*
X063331Y014500D03*
X063331Y015500D03*
X061831Y015500D03*
X061831Y014500D03*
X061831Y013500D03*
X061831Y016500D03*
X061831Y017500D03*
X061831Y018500D03*
X063331Y018500D03*
X063331Y017500D03*
X063331Y016500D03*
X063331Y019500D03*
X063331Y020500D03*
X063331Y021500D03*
X061831Y021500D03*
X061831Y020500D03*
X061831Y019500D03*
X061831Y022500D03*
X061831Y023500D03*
X061831Y024500D03*
X063331Y024500D03*
X063331Y023500D03*
X063331Y022500D03*
X063331Y025500D03*
X063331Y026500D03*
X063331Y027500D03*
X061831Y027500D03*
X061831Y026500D03*
X061831Y025500D03*
X061831Y028500D03*
X061831Y029500D03*
X061831Y030500D03*
X063331Y030500D03*
X063331Y029500D03*
X063331Y028500D03*
X063331Y031500D03*
X063331Y032500D03*
X063331Y033500D03*
X061831Y033500D03*
X061831Y032500D03*
X061831Y031500D03*
X061831Y034500D03*
X061831Y035500D03*
X061831Y036500D03*
X063331Y036500D03*
X063331Y035500D03*
X063331Y034500D03*
X063331Y037500D03*
X063331Y038500D03*
X063331Y039500D03*
X061831Y039500D03*
X061831Y038500D03*
X061831Y037500D03*
X061831Y040500D03*
X061831Y041500D03*
X061831Y042500D03*
X063331Y042500D03*
X063331Y041500D03*
X063331Y040500D03*
X063331Y043500D03*
X063331Y044500D03*
X063331Y045500D03*
X061831Y045500D03*
X061831Y044500D03*
X061831Y043500D03*
X061831Y046500D03*
X061831Y047500D03*
X061831Y048500D03*
X063331Y048500D03*
X063331Y047500D03*
X063331Y046500D03*
X063331Y049500D03*
X063331Y050500D03*
X063331Y051500D03*
X061831Y051500D03*
X061831Y050500D03*
X061831Y049500D03*
X061831Y052500D03*
X061831Y053500D03*
X061831Y054500D03*
X063331Y054500D03*
X063331Y053500D03*
X063331Y052500D03*
X063331Y055500D03*
X063331Y056500D03*
X063331Y057500D03*
X061831Y057500D03*
X061831Y056500D03*
X061831Y055500D03*
X061831Y058500D03*
X061831Y059500D03*
X061831Y060500D03*
X063331Y060500D03*
X063331Y059500D03*
X063331Y058500D03*
X063331Y061500D03*
X063331Y062500D03*
X063331Y063500D03*
X061831Y063500D03*
X061831Y062500D03*
X061831Y061500D03*
D17*
X056860Y034644D02*
X056860Y034157D01*
X057103Y034400D02*
X056616Y034400D01*
X052103Y034400D02*
X051616Y034400D01*
D18*
X041481Y031000D02*
X041483Y031049D01*
X041489Y031097D01*
X041499Y031145D01*
X041513Y031192D01*
X041530Y031238D01*
X041551Y031282D01*
X041576Y031324D01*
X041604Y031364D01*
X041636Y031402D01*
X041670Y031437D01*
X041707Y031469D01*
X041746Y031498D01*
X041788Y031524D01*
X041832Y031546D01*
X041877Y031564D01*
X041924Y031579D01*
X041971Y031590D01*
X042020Y031597D01*
X042069Y031600D01*
X042118Y031599D01*
X042166Y031594D01*
X042215Y031585D01*
X042262Y031572D01*
X042308Y031555D01*
X042352Y031535D01*
X042395Y031511D01*
X042436Y031484D01*
X042474Y031453D01*
X042510Y031420D01*
X042542Y031384D01*
X042572Y031345D01*
X042599Y031304D01*
X042622Y031260D01*
X042641Y031215D01*
X042657Y031169D01*
X042669Y031122D01*
X042677Y031073D01*
X042681Y031024D01*
X042681Y030976D01*
X042677Y030927D01*
X042669Y030878D01*
X042657Y030831D01*
X042641Y030785D01*
X042622Y030740D01*
X042599Y030696D01*
X042572Y030655D01*
X042542Y030616D01*
X042510Y030580D01*
X042474Y030547D01*
X042436Y030516D01*
X042395Y030489D01*
X042352Y030465D01*
X042308Y030445D01*
X042262Y030428D01*
X042215Y030415D01*
X042166Y030406D01*
X042118Y030401D01*
X042069Y030400D01*
X042020Y030403D01*
X041971Y030410D01*
X041924Y030421D01*
X041877Y030436D01*
X041832Y030454D01*
X041788Y030476D01*
X041746Y030502D01*
X041707Y030531D01*
X041670Y030563D01*
X041636Y030598D01*
X041604Y030636D01*
X041576Y030676D01*
X041551Y030718D01*
X041530Y030762D01*
X041513Y030808D01*
X041499Y030855D01*
X041489Y030903D01*
X041483Y030951D01*
X041481Y031000D01*
D19*
X044876Y026551D02*
X045786Y026551D01*
X045786Y021449D01*
X044876Y021449D01*
X044876Y026551D01*
X050280Y035045D02*
X050280Y035955D01*
X053382Y035955D01*
X053382Y035045D01*
X050280Y035045D01*
X051126Y038449D02*
X052036Y038449D01*
X052036Y054551D01*
X051126Y054551D01*
X051126Y038449D01*
X055280Y035955D02*
X055280Y035045D01*
X058382Y035045D01*
X058382Y035955D01*
X055280Y035955D01*
X033882Y030455D02*
X033882Y029545D01*
X028780Y029545D01*
X028780Y030455D01*
X033882Y030455D01*
X029786Y032449D02*
X028876Y032449D01*
X028876Y037551D01*
X029786Y037551D01*
X029786Y032449D01*
X029786Y039449D02*
X028876Y039449D01*
X028876Y044551D01*
X029786Y044551D01*
X029786Y039449D01*
X030036Y046449D02*
X029126Y046449D01*
X029126Y049551D01*
X030036Y049551D01*
X030036Y046449D01*
X030036Y050949D02*
X029126Y050949D01*
X029126Y054051D01*
X030036Y054051D01*
X030036Y050949D01*
X030036Y055449D02*
X029126Y055449D01*
X029126Y058551D01*
X030036Y058551D01*
X030036Y055449D01*
X030036Y059949D02*
X029126Y059949D01*
X029126Y065051D01*
X030036Y065051D01*
X030036Y059949D01*
X050126Y059949D02*
X050126Y065051D01*
X051036Y065051D01*
X051036Y059949D01*
X050126Y059949D01*
X015382Y028455D02*
X015382Y027545D01*
X012280Y027545D01*
X012280Y028455D01*
X015382Y028455D01*
X015382Y026455D02*
X015382Y025545D01*
X012280Y025545D01*
X012280Y026455D01*
X015382Y026455D01*
X028280Y011705D02*
X028280Y010795D01*
X031382Y010795D01*
X031382Y011705D01*
X028280Y011705D01*
X028280Y009705D02*
X028280Y008795D01*
X031382Y008795D01*
X031382Y009705D01*
X028280Y009705D01*
X036530Y009705D02*
X036530Y008795D01*
X039632Y008795D01*
X039632Y009705D01*
X036530Y009705D01*
X036530Y006955D02*
X036530Y006045D01*
X039632Y006045D01*
X039632Y006955D01*
X036530Y006955D01*
X042780Y008795D02*
X042780Y009705D01*
X045882Y009705D01*
X045882Y008795D01*
X042780Y008795D01*
X044876Y011449D02*
X045786Y011449D01*
X045786Y016551D01*
X044876Y016551D01*
X044876Y011449D01*
X048780Y009705D02*
X048780Y008795D01*
X051882Y008795D01*
X051882Y009705D01*
X048780Y009705D01*
X048780Y007705D02*
X051882Y007705D01*
X051882Y006795D01*
X048780Y006795D01*
X048780Y007705D01*
M02*
