G75*
G70*
%OFA0B0*%
%FSLAX24Y24*%
%IPPOS*%
%LPD*%
%AMOC8*
5,1,8,0,0,1.08239X$1,22.5*
%
%ADD10C,0.0060*%
%ADD11C,0.0100*%
%ADD12C,0.1660*%
%ADD13C,0.0770*%
%ADD14C,0.1430*%
%ADD15C,0.1085*%
%ADD16OC8,0.0770*%
%ADD17R,0.0600X0.3260*%
%ADD18C,0.1790*%
%ADD19C,0.0580*%
%ADD20C,0.0050*%
D10*
X060310Y007571D02*
X060737Y007571D01*
X060524Y007571D02*
X060524Y006930D01*
X060955Y007037D02*
X061061Y006930D01*
X061275Y006930D01*
X061382Y007037D01*
X061382Y007250D01*
X061275Y007357D01*
X061061Y007357D01*
X060955Y007250D01*
X060955Y007037D01*
X061599Y006930D02*
X061919Y006930D01*
X062026Y007037D01*
X062026Y007250D01*
X061919Y007357D01*
X061599Y007357D01*
X061599Y006716D01*
X062888Y007037D02*
X062995Y006930D01*
X063208Y006930D01*
X063315Y007037D01*
X063315Y007144D01*
X063208Y007250D01*
X062995Y007250D01*
X062888Y007357D01*
X062888Y007464D01*
X062995Y007571D01*
X063208Y007571D01*
X063315Y007464D01*
X063533Y007250D02*
X063533Y007037D01*
X063640Y006930D01*
X063853Y006930D01*
X063960Y007037D01*
X063960Y007250D01*
X063853Y007357D01*
X063640Y007357D01*
X063533Y007250D01*
X064177Y006930D02*
X064391Y006930D01*
X064284Y006930D02*
X064284Y007571D01*
X064177Y007571D01*
X064607Y007250D02*
X064714Y007357D01*
X065034Y007357D01*
X065034Y007571D02*
X065034Y006930D01*
X064714Y006930D01*
X064607Y007037D01*
X064607Y007250D01*
X065252Y007250D02*
X065358Y007357D01*
X065572Y007357D01*
X065679Y007250D01*
X065679Y007144D01*
X065252Y007144D01*
X065252Y007250D02*
X065252Y007037D01*
X065358Y006930D01*
X065572Y006930D01*
X065896Y006930D02*
X065896Y007357D01*
X065896Y007144D02*
X066110Y007357D01*
X066216Y007357D01*
X067078Y007571D02*
X067078Y006930D01*
X067505Y006930D02*
X067505Y007571D01*
X067291Y007357D01*
X067078Y007571D01*
X067829Y007357D02*
X068043Y007357D01*
X068149Y007250D01*
X068149Y006930D01*
X067829Y006930D01*
X067722Y007037D01*
X067829Y007144D01*
X068149Y007144D01*
X068367Y007250D02*
X068474Y007357D01*
X068794Y007357D01*
X068687Y007144D02*
X068474Y007144D01*
X068367Y007250D01*
X068367Y006930D02*
X068687Y006930D01*
X068794Y007037D01*
X068687Y007144D01*
X069011Y007144D02*
X069332Y006930D01*
X069011Y006930D02*
X069011Y007571D01*
X069332Y007357D02*
X069011Y007144D01*
D11*
X021650Y000500D02*
X000180Y000500D01*
X000180Y069500D01*
X077180Y069500D01*
X077180Y000500D01*
X040210Y000500D01*
X040210Y001900D01*
X040710Y001900D01*
X040710Y002550D01*
X040210Y002550D01*
X040210Y003700D01*
X038960Y003700D01*
X038960Y000900D01*
X036400Y000900D01*
X036400Y003700D01*
X035150Y003700D01*
X035150Y002550D01*
X034650Y002550D01*
X034650Y001900D01*
X035150Y001900D01*
X035150Y000500D01*
X026710Y000500D01*
X026710Y001900D01*
X027210Y001900D01*
X027210Y002550D01*
X026710Y002550D01*
X026710Y003700D01*
X025460Y003700D01*
X025460Y000900D01*
X022900Y000900D01*
X022900Y003700D01*
X021650Y003700D01*
X021650Y002550D01*
X021150Y002550D01*
X021150Y001900D01*
X021650Y001900D01*
X021650Y000500D01*
D12*
X018180Y003000D03*
X030930Y003000D03*
X043680Y003000D03*
X042480Y018250D03*
X042480Y027000D03*
X051880Y027000D03*
X051880Y018250D03*
X018930Y045750D03*
X002430Y045750D03*
X002430Y067000D03*
X018930Y067000D03*
X004180Y022750D03*
X004180Y003250D03*
D13*
X014930Y009000D03*
X014930Y010000D03*
X014930Y011000D03*
X014930Y012000D03*
X014930Y013000D03*
X014930Y014000D03*
X014930Y015000D03*
X014930Y016000D03*
X014930Y017000D03*
X017930Y017000D03*
X018930Y017000D03*
X018930Y016000D03*
X018930Y015000D03*
X018930Y014000D03*
X017930Y014000D03*
X017930Y015000D03*
X017930Y016000D03*
X017930Y013000D03*
X017930Y012000D03*
X018930Y012000D03*
X018930Y013000D03*
X018930Y011000D03*
X018930Y010000D03*
X017930Y010000D03*
X017930Y011000D03*
X017930Y009000D03*
X018930Y009000D03*
X022180Y007250D03*
X023180Y007250D03*
X024180Y007250D03*
X025180Y007250D03*
X026180Y007250D03*
X035680Y007250D03*
X036680Y007250D03*
X037680Y007250D03*
X038680Y007250D03*
X039680Y007250D03*
X030430Y017500D03*
X030430Y020500D03*
X027430Y020500D03*
X027430Y017500D03*
X020930Y024000D03*
X021720Y025500D03*
X022430Y026210D03*
X023930Y027000D03*
X018180Y027000D03*
X018180Y026000D03*
X018180Y028000D03*
X018180Y031000D03*
X018180Y032000D03*
X012180Y036500D03*
X012180Y037500D03*
X012180Y038500D03*
X012180Y042000D03*
X012180Y043000D03*
X011180Y043000D03*
X011180Y042000D03*
X010180Y042000D03*
X010180Y043000D03*
X009180Y043000D03*
X009180Y042000D03*
X008180Y042000D03*
X008180Y043000D03*
X007180Y043000D03*
X007180Y042000D03*
X006180Y042000D03*
X006180Y043000D03*
X006180Y045250D03*
X007180Y045250D03*
X008180Y045250D03*
X009180Y045250D03*
X010180Y045250D03*
X011180Y045250D03*
X012180Y045250D03*
X013180Y045250D03*
X014180Y045250D03*
X015180Y045250D03*
X015180Y043000D03*
X015180Y042000D03*
X014180Y042000D03*
X014180Y043000D03*
X013180Y043000D03*
X013180Y042000D03*
X011180Y032000D03*
X011180Y031000D03*
X011180Y028000D03*
X011180Y027000D03*
X011180Y026000D03*
X027180Y039500D03*
X027180Y040500D03*
X027180Y041500D03*
X027180Y042500D03*
X027180Y043500D03*
X027180Y044500D03*
X027180Y045500D03*
X027180Y046500D03*
X027180Y047500D03*
X027180Y048500D03*
X027180Y049500D03*
X027180Y050500D03*
X027180Y051500D03*
X027180Y052500D03*
X027180Y053500D03*
X027180Y054500D03*
X027180Y055500D03*
X027180Y056500D03*
X027180Y057500D03*
X027180Y058500D03*
X027180Y059500D03*
X027180Y060500D03*
X027180Y061500D03*
X027180Y062500D03*
X027180Y063500D03*
X027180Y064500D03*
X027180Y065500D03*
X027180Y066500D03*
X039180Y066500D03*
X039180Y065500D03*
X039180Y064500D03*
X039180Y063500D03*
X039180Y062500D03*
X039180Y061500D03*
X039180Y060500D03*
X039180Y059500D03*
X039180Y058500D03*
X039180Y057500D03*
X039180Y056500D03*
X039180Y055500D03*
X039180Y054500D03*
X039180Y053500D03*
X039180Y052500D03*
X039180Y051500D03*
X039180Y050500D03*
X039180Y049500D03*
X039180Y048500D03*
X039180Y047500D03*
X039180Y046500D03*
X039180Y045500D03*
X039180Y044500D03*
X039180Y043500D03*
X039180Y042500D03*
X039180Y041500D03*
X039180Y040500D03*
X039180Y039500D03*
X036180Y037500D03*
X035180Y037500D03*
X034180Y037500D03*
X033180Y037500D03*
X032180Y037500D03*
X031180Y037500D03*
X031180Y032000D03*
X031180Y031000D03*
X031180Y030000D03*
X034180Y030000D03*
X034180Y031000D03*
X034180Y032000D03*
X047680Y040000D03*
X048680Y040000D03*
X049680Y040000D03*
X050680Y040000D03*
X050680Y053000D03*
X049680Y053000D03*
X048680Y053000D03*
X047680Y053000D03*
X047680Y059500D03*
X046680Y059500D03*
X045680Y059500D03*
X045680Y060500D03*
X045680Y061500D03*
X045680Y062500D03*
X045680Y063500D03*
X048680Y059500D03*
X049680Y059500D03*
X050680Y059500D03*
X050680Y060500D03*
X050680Y061500D03*
X050680Y062500D03*
X050680Y063500D03*
D14*
X049680Y033000D03*
X044680Y033000D03*
X036930Y032750D03*
X036930Y029250D03*
D15*
X046330Y010500D03*
X048180Y010500D03*
X050030Y010500D03*
X049180Y005500D03*
X047180Y005500D03*
D16*
X044180Y007250D03*
X043180Y007250D03*
X042180Y007250D03*
X042180Y009250D03*
X043180Y009250D03*
X044180Y009250D03*
X038180Y009250D03*
X037180Y009250D03*
X036180Y009250D03*
X038180Y012000D03*
X038180Y013000D03*
X038180Y014000D03*
X038180Y015000D03*
X038180Y016000D03*
X038180Y022000D03*
X038180Y023000D03*
X038180Y024000D03*
X038180Y025000D03*
X038180Y026000D03*
X028930Y031500D03*
X027930Y031500D03*
X026930Y031500D03*
X026930Y033500D03*
X027930Y033500D03*
X028930Y033500D03*
X026180Y029250D03*
X025180Y029250D03*
X024180Y029250D03*
X023180Y029250D03*
X022180Y029250D03*
X022180Y033000D03*
X022180Y034000D03*
X022180Y035000D03*
X022180Y036000D03*
X022180Y037000D03*
X022180Y040000D03*
X022180Y041000D03*
X022180Y042000D03*
X022180Y043000D03*
X022180Y044000D03*
X022430Y046500D03*
X022430Y047500D03*
X022430Y048500D03*
X022430Y050500D03*
X022430Y051500D03*
X022430Y052500D03*
X022430Y054500D03*
X022430Y055500D03*
X022430Y056500D03*
X022430Y058500D03*
X022430Y059500D03*
X022430Y060500D03*
X022430Y062500D03*
X022430Y063500D03*
X022430Y064500D03*
X022430Y065500D03*
X022430Y066500D03*
X043380Y066500D03*
X043380Y065500D03*
X043380Y064500D03*
X043380Y063500D03*
X043380Y062500D03*
X043380Y059500D03*
X043380Y058500D03*
X043380Y057500D03*
X043380Y054500D03*
X044380Y054500D03*
X045380Y054500D03*
X045380Y052500D03*
X044380Y052500D03*
X043380Y052500D03*
X043380Y050500D03*
X044380Y050500D03*
X045380Y050500D03*
X044380Y047900D03*
X044380Y046900D03*
X044380Y045900D03*
X044380Y044900D03*
X044380Y043900D03*
X044380Y041500D03*
X043380Y041500D03*
X045380Y041500D03*
X045380Y039500D03*
X044380Y039500D03*
X043380Y039500D03*
X043380Y037500D03*
X044380Y037500D03*
X045380Y037500D03*
X045680Y035500D03*
X044680Y035500D03*
X043680Y035500D03*
X048680Y035500D03*
X049680Y035500D03*
X050680Y035500D03*
X050680Y056500D03*
X049680Y056500D03*
X048680Y056500D03*
X047680Y056500D03*
X051680Y056500D03*
X007680Y028000D03*
X006680Y028000D03*
X005680Y028000D03*
X005680Y026000D03*
X006680Y026000D03*
X007680Y026000D03*
X021680Y011250D03*
X022680Y011250D03*
X023680Y011250D03*
X023680Y009250D03*
X022680Y009250D03*
X021680Y009250D03*
X029930Y009250D03*
X030930Y009250D03*
X031930Y009250D03*
X031930Y006500D03*
X030930Y006500D03*
X029930Y006500D03*
D17*
X024980Y002640D03*
X024180Y002640D03*
X023380Y002640D03*
X036880Y002640D03*
X037680Y002640D03*
X038480Y002640D03*
D18*
X005180Y030350D03*
X005180Y039150D03*
D19*
X003930Y036000D03*
X003930Y033500D03*
X006430Y033500D03*
X006430Y036000D03*
D20*
X007262Y036818D02*
X003098Y036818D01*
X003146Y036866D02*
X007214Y036866D01*
X007165Y036915D02*
X003195Y036915D01*
X003243Y036963D02*
X007117Y036963D01*
X007068Y037012D02*
X003292Y037012D01*
X003340Y037060D02*
X007020Y037060D01*
X006971Y037109D02*
X003389Y037109D01*
X003437Y037157D02*
X006923Y037157D01*
X006880Y037200D02*
X003480Y037200D01*
X002380Y036100D01*
X002330Y036050D01*
X002330Y033450D01*
X003480Y032300D01*
X006880Y032300D01*
X008030Y033450D01*
X008030Y036050D01*
X006880Y037200D01*
X007311Y036769D02*
X003049Y036769D01*
X003001Y036721D02*
X007359Y036721D01*
X007408Y036672D02*
X002952Y036672D01*
X002904Y036624D02*
X007456Y036624D01*
X007505Y036575D02*
X002855Y036575D01*
X002807Y036527D02*
X007553Y036527D01*
X007602Y036478D02*
X002758Y036478D01*
X002710Y036430D02*
X007650Y036430D01*
X007699Y036381D02*
X002661Y036381D01*
X002613Y036333D02*
X007747Y036333D01*
X007796Y036284D02*
X002564Y036284D01*
X002516Y036236D02*
X007844Y036236D01*
X007893Y036187D02*
X002467Y036187D01*
X002419Y036139D02*
X007941Y036139D01*
X007990Y036090D02*
X002370Y036090D01*
X002330Y036042D02*
X008030Y036042D01*
X008030Y035993D02*
X002330Y035993D01*
X002330Y035945D02*
X008030Y035945D01*
X008030Y035896D02*
X002330Y035896D01*
X002330Y035848D02*
X008030Y035848D01*
X008030Y035799D02*
X002330Y035799D01*
X002330Y035751D02*
X008030Y035751D01*
X008030Y035702D02*
X002330Y035702D01*
X002330Y035654D02*
X008030Y035654D01*
X008030Y035605D02*
X002330Y035605D01*
X002330Y035557D02*
X008030Y035557D01*
X008030Y035508D02*
X002330Y035508D01*
X002330Y035460D02*
X008030Y035460D01*
X008030Y035411D02*
X002330Y035411D01*
X002330Y035363D02*
X008030Y035363D01*
X008030Y035314D02*
X002330Y035314D01*
X002330Y035266D02*
X008030Y035266D01*
X008030Y035217D02*
X002330Y035217D01*
X002330Y035169D02*
X008030Y035169D01*
X008030Y035120D02*
X002330Y035120D01*
X002330Y035072D02*
X008030Y035072D01*
X008030Y035023D02*
X002330Y035023D01*
X002330Y034975D02*
X008030Y034975D01*
X008030Y034926D02*
X002330Y034926D01*
X002330Y034878D02*
X008030Y034878D01*
X008030Y034829D02*
X002330Y034829D01*
X002330Y034781D02*
X008030Y034781D01*
X008030Y034732D02*
X002330Y034732D01*
X002330Y034684D02*
X008030Y034684D01*
X008030Y034635D02*
X002330Y034635D01*
X002330Y034587D02*
X008030Y034587D01*
X008030Y034538D02*
X002330Y034538D01*
X002330Y034490D02*
X008030Y034490D01*
X008030Y034441D02*
X002330Y034441D01*
X002330Y034393D02*
X008030Y034393D01*
X008030Y034344D02*
X002330Y034344D01*
X002330Y034296D02*
X008030Y034296D01*
X008030Y034247D02*
X002330Y034247D01*
X002330Y034199D02*
X008030Y034199D01*
X008030Y034150D02*
X002330Y034150D01*
X002330Y034102D02*
X008030Y034102D01*
X008030Y034053D02*
X002330Y034053D01*
X002330Y034005D02*
X008030Y034005D01*
X008030Y033956D02*
X002330Y033956D01*
X002330Y033908D02*
X008030Y033908D01*
X008030Y033859D02*
X002330Y033859D01*
X002330Y033811D02*
X008030Y033811D01*
X008030Y033762D02*
X002330Y033762D01*
X002330Y033714D02*
X008030Y033714D01*
X008030Y033665D02*
X002330Y033665D01*
X002330Y033617D02*
X008030Y033617D01*
X008030Y033568D02*
X002330Y033568D01*
X002330Y033520D02*
X008030Y033520D01*
X008030Y033471D02*
X002330Y033471D01*
X002357Y033423D02*
X008003Y033423D01*
X007954Y033374D02*
X002406Y033374D01*
X002454Y033326D02*
X007906Y033326D01*
X007857Y033277D02*
X002503Y033277D01*
X002551Y033229D02*
X007809Y033229D01*
X007760Y033180D02*
X002600Y033180D01*
X002648Y033132D02*
X007712Y033132D01*
X007663Y033083D02*
X002697Y033083D01*
X002745Y033035D02*
X007615Y033035D01*
X007566Y032986D02*
X002794Y032986D01*
X002842Y032938D02*
X007518Y032938D01*
X007469Y032889D02*
X002891Y032889D01*
X002939Y032841D02*
X007421Y032841D01*
X007372Y032792D02*
X002988Y032792D01*
X003036Y032744D02*
X007324Y032744D01*
X007275Y032695D02*
X003085Y032695D01*
X003133Y032647D02*
X007227Y032647D01*
X007178Y032598D02*
X003182Y032598D01*
X003230Y032550D02*
X007130Y032550D01*
X007081Y032501D02*
X003279Y032501D01*
X003327Y032453D02*
X007033Y032453D01*
X006984Y032404D02*
X003376Y032404D01*
X003424Y032356D02*
X006936Y032356D01*
X006887Y032307D02*
X003473Y032307D01*
M02*
