%
M48
M72
T01C0.0240
T02C0.0420
T03C0.0630
T04C0.0890
T05C0.1120
T06C0.1250
%
T01
X3930Y33500
X3930Y36000
X6430Y36000
X6430Y33500
T02
X11180Y32000
X11180Y31000
X11180Y28000
X11180Y27000
X11180Y26000
X7680Y26000
X6680Y26000
X5680Y26000
X5680Y28000
X6680Y28000
X7680Y28000
X12180Y36500
X12180Y37500
X12180Y38500
X12180Y42000
X12180Y43000
X11180Y43000
X11180Y42000
X10180Y42000
X10180Y43000
X9180Y43000
X9180Y42000
X8180Y42000
X8180Y43000
X7180Y43000
X7180Y42000
X6180Y42000
X6180Y43000
X6180Y45250
X7180Y45250
X8180Y45250
X9180Y45250
X10180Y45250
X11180Y45250
X12180Y45250
X13180Y45250
X14180Y45250
X15180Y45250
X15180Y43000
X15180Y42000
X14180Y42000
X14180Y43000
X13180Y43000
X13180Y42000
X22180Y42000
X22180Y43000
X22180Y44000
X22430Y46500
X22430Y47500
X22430Y48500
X22430Y50500
X22430Y51500
X22430Y52500
X22430Y54500
X22430Y55500
X22430Y56500
X22430Y58500
X22430Y59500
X22430Y60500
X22430Y62500
X22430Y63500
X22430Y64500
X22430Y65500
X22430Y66500
X27180Y66500
X27180Y65500
X27180Y64500
X27180Y63500
X27180Y62500
X27180Y61500
X27180Y60500
X27180Y59500
X27180Y58500
X27180Y57500
X27180Y56500
X27180Y55500
X27180Y54500
X27180Y53500
X27180Y52500
X27180Y51500
X27180Y50500
X27180Y49500
X27180Y48500
X27180Y47500
X27180Y46500
X27180Y45500
X27180Y44500
X27180Y43500
X27180Y42500
X27180Y41500
X27180Y40500
X27180Y39500
X31180Y37500
X32180Y37500
X33180Y37500
X34180Y37500
X35180Y37500
X36180Y37500
X39180Y39500
X39180Y40500
X39180Y41500
X39180Y42500
X39180Y43500
X39180Y44500
X39180Y45500
X39180Y46500
X39180Y47500
X39180Y48500
X39180Y49500
X39180Y50500
X39180Y51500
X39180Y52500
X39180Y53500
X39180Y54500
X39180Y55500
X39180Y56500
X39180Y57500
X39180Y58500
X39180Y59500
X39180Y60500
X39180Y61500
X39180Y62500
X39180Y63500
X39180Y64500
X39180Y65500
X39180Y66500
X43380Y66500
X43380Y65500
X43380Y64500
X43380Y63500
X43380Y62500
X45680Y62500
X45680Y61500
X45680Y60500
X45680Y59500
X46680Y59500
X47680Y59500
X48680Y59500
X49680Y59500
X50680Y59500
X50680Y60500
X50680Y61500
X50680Y62500
X50680Y63500
X45680Y63500
X43380Y59500
X43380Y58500
X43380Y57500
X43380Y54500
X44380Y54500
X45380Y54500
X45380Y52500
X44380Y52500
X43380Y52500
X43380Y50500
X44380Y50500
X45380Y50500
X44380Y47900
X44380Y46900
X44380Y45900
X44380Y44900
X44380Y43900
X44380Y41500
X43380Y41500
X45380Y41500
X45380Y39500
X44380Y39500
X43380Y39500
X43380Y37500
X44380Y37500
X45380Y37500
X45680Y35500
X44680Y35500
X43680Y35500
X48680Y35500
X49680Y35500
X50680Y35500
X50680Y40000
X49680Y40000
X48680Y40000
X47680Y40000
X34180Y32000
X34180Y31000
X34180Y30000
X31180Y30000
X31180Y31000
X31180Y32000
X28930Y31500
X27930Y31500
X26930Y31500
X26930Y33500
X27930Y33500
X28930Y33500
X26180Y29250
X25180Y29250
X24180Y29250
X23180Y29250
X22180Y29250
X23930Y27000
X22430Y26210
X21720Y25500
X20930Y24000
X18180Y26000
X18180Y27000
X18180Y28000
X18180Y31000
X18180Y32000
X22180Y33000
X22180Y34000
X22180Y35000
X22180Y36000
X22180Y37000
X22180Y40000
X22180Y41000
X38180Y26000
X38180Y25000
X38180Y24000
X38180Y23000
X38180Y22000
X38180Y16000
X38180Y15000
X38180Y14000
X38180Y13000
X38180Y12000
X38180Y9250
X37180Y9250
X36180Y9250
X35680Y7250
X36680Y7250
X37680Y7250
X38680Y7250
X39680Y7250
X42180Y7250
X43180Y7250
X44180Y7250
X44180Y9250
X43180Y9250
X42180Y9250
X31930Y9250
X30930Y9250
X29930Y9250
X29930Y6500
X30930Y6500
X31930Y6500
X26180Y7250
X25180Y7250
X24180Y7250
X23180Y7250
X22180Y7250
X21680Y9250
X22680Y9250
X23680Y9250
X23680Y11250
X22680Y11250
X21680Y11250
X18930Y11000
X18930Y10000
X17930Y10000
X17930Y11000
X17930Y12000
X17930Y13000
X18930Y13000
X18930Y12000
X18930Y14000
X18930Y15000
X18930Y16000
X17930Y16000
X17930Y15000
X17930Y14000
X17930Y17000
X18930Y17000
X14930Y17000
X14930Y16000
X14930Y15000
X14930Y14000
X14930Y13000
X14930Y12000
X14930Y11000
X14930Y10000
X14930Y9000
X17930Y9000
X18930Y9000
X27430Y17500
X27430Y20500
X30430Y20500
X30430Y17500
X47680Y53000
X48680Y53000
X49680Y53000
X50680Y53000
X50680Y56500
X49680Y56500
X48680Y56500
X47680Y56500
X51680Y56500
T03
X50030Y10500
X48180Y10500
X46330Y10500
X47180Y5500
X49180Y5500
T04
X36930Y29250
X36930Y32750
X44680Y33000
X49680Y33000
T05
X4180Y3250
X18180Y3000
X30930Y3000
X43680Y3000
X42480Y18250
X42480Y27000
X51880Y27000
X51880Y18250
X18930Y45750
X2430Y45750
X2430Y67000
X18930Y67000
X4180Y22750
T06
X5180Y30350
X5180Y39150
M30
