%
M48
M72
T01C0.0240
T02C0.0420
T03C0.0630
T04C0.0890
T05C0.1100
T06C0.1250
%
T01
X11081Y32500
X13581Y32500
X13581Y35000
X11081Y35000
T02
X18331Y32000
X18331Y31000
X18331Y28000
X18331Y27000
X18331Y26000
X25331Y26000
X25331Y27000
X25331Y28000
X25331Y31000
X25331Y32000
X29331Y33000
X29331Y34000
X29331Y35000
X29331Y36000
X29331Y37000
X29331Y40000
X29331Y41000
X29331Y42000
X29331Y43000
X29331Y44000
X34331Y43500
X34331Y44500
X34331Y45500
X34331Y46500
X34331Y47500
X34331Y48500
X34331Y49500
X34331Y50500
X34331Y51500
X34331Y52500
X34331Y53500
X34331Y54500
X34331Y55500
X34331Y56500
X34331Y57500
X34331Y58500
X34331Y59500
X34331Y60500
X34331Y61500
X34331Y62500
X34331Y63500
X34331Y64500
X34331Y65500
X34331Y66500
X29581Y64500
X29581Y63500
X29581Y62500
X29581Y61500
X29581Y60500
X46331Y60500
X46331Y59500
X46331Y58500
X46331Y57500
X46331Y56500
X46331Y55500
X46331Y54500
X46331Y53500
X46331Y52500
X46331Y51500
X46331Y50500
X46331Y49500
X46331Y48500
X46331Y47500
X46331Y46500
X46331Y45500
X46331Y44500
X46331Y43500
X46331Y42500
X46331Y41500
X46331Y40500
X46331Y39500
X43331Y37500
X42331Y37500
X41331Y37500
X40331Y37500
X39331Y37500
X38331Y37500
X34331Y39500
X34331Y40500
X34331Y41500
X34331Y42500
X36331Y32000
X36331Y31000
X36331Y30000
X33331Y30000
X32331Y30000
X31331Y30000
X30331Y30000
X29331Y30000
X31081Y27000
X29581Y26500
X28581Y25500
X28081Y24000
X34581Y20500
X37581Y20500
X37581Y17500
X34581Y17500
X26081Y17000
X26081Y16000
X26081Y15000
X26081Y14000
X26081Y13000
X26081Y12000
X26081Y11000
X26081Y10000
X26081Y9000
X29331Y7250
X30331Y7250
X31331Y7250
X32331Y7250
X33331Y7250
X37081Y7250
X38081Y7250
X39081Y7250
X39081Y4250
X38081Y4250
X37081Y4250
X42831Y7250
X43831Y7250
X44831Y7250
X45831Y7250
X46831Y7250
X45331Y11000
X45331Y12000
X45331Y13000
X45331Y14000
X45331Y15000
X45331Y23000
X45331Y24000
X45331Y25000
X45331Y26000
X45331Y27000
X39331Y30000
X39331Y31000
X39331Y32000
X50831Y35500
X51831Y35500
X52831Y35500
X55831Y35500
X56831Y35500
X57831Y35500
X57831Y40000
X56831Y40000
X55831Y40000
X54831Y40000
X51581Y40000
X51581Y39000
X51581Y41000
X51581Y42000
X51581Y43000
X51581Y44000
X51581Y45000
X51581Y46000
X51581Y47000
X51581Y48000
X51581Y49000
X51581Y50000
X51581Y51000
X51581Y52000
X51581Y53000
X51581Y54000
X54831Y53000
X55831Y53000
X56831Y53000
X57831Y53000
X57831Y56500
X56831Y56500
X55831Y56500
X54831Y56500
X54831Y59500
X53831Y59500
X52831Y59500
X52831Y60500
X52831Y61500
X52831Y62500
X52831Y63500
X50581Y63500
X50581Y62500
X50581Y61500
X50581Y60500
X46331Y61500
X46331Y62500
X46331Y63500
X46331Y64500
X46331Y65500
X46331Y66500
X50581Y64500
X55831Y59500
X56831Y59500
X57831Y59500
X57831Y60500
X57831Y61500
X57831Y62500
X57831Y63500
X22331Y45250
X21331Y45250
X20331Y45250
X19331Y45250
X18331Y45250
X17331Y45250
X16331Y45250
X15331Y45250
X14331Y45250
X13331Y45250
X13331Y42250
X14331Y42250
X15331Y42250
X16331Y42250
X17331Y42250
X18331Y42250
X19331Y42250
X20331Y42250
X21331Y42250
X22331Y42250
X19331Y38500
X19331Y37500
X19331Y36500
X22081Y17000
X22081Y16000
X22081Y15000
X22081Y14000
X22081Y13000
X22081Y12000
X22081Y11000
X22081Y10000
X22081Y9000
T03
X53481Y10500
X55331Y10500
X57181Y10500
X56331Y5500
X54331Y5500
T04
X42081Y29250
X42081Y32750
X51831Y33000
X56831Y33000
T05
X11331Y3250
X11331Y22750
T06
X12331Y29350
X12331Y38150
X9581Y45750
X26081Y45750
X26081Y67000
X9581Y67000
X49631Y27000
X59031Y27000
X59031Y18250
X49631Y18250
M30
