G75*
G70*
%OFA0B0*%
%FSLAX24Y24*%
%IPPOS*%
%LPD*%
%AMOC8*
5,1,8,0,0,1.08239X$1,22.5*
%
%ADD10C,0.0060*%
%ADD11C,0.1650*%
%ADD12C,0.0630*%
%ADD13C,0.0120*%
%ADD14C,0.1290*%
%ADD15C,0.0945*%
%ADD16OC8,0.0630*%
%ADD17R,0.0460X0.3120*%
%ADD18C,0.1500*%
%ADD19C,0.0250*%
%ADD20C,0.0440*%
%ADD21C,0.0160*%
%ADD22C,0.0100*%
D10*
X068161Y003137D02*
X068268Y003030D01*
X068481Y003030D01*
X068588Y003137D01*
X068806Y003137D02*
X068912Y003030D01*
X069126Y003030D01*
X069233Y003137D01*
X069233Y003350D01*
X069126Y003457D01*
X068912Y003457D01*
X068806Y003350D01*
X068806Y003137D01*
X068588Y003564D02*
X068481Y003671D01*
X068268Y003671D01*
X068161Y003564D01*
X068161Y003137D01*
X069450Y003030D02*
X069450Y003457D01*
X069557Y003457D01*
X069664Y003350D01*
X069770Y003457D01*
X069877Y003350D01*
X069877Y003030D01*
X069664Y003030D02*
X069664Y003350D01*
X070095Y003457D02*
X070415Y003457D01*
X070522Y003350D01*
X070522Y003137D01*
X070415Y003030D01*
X070095Y003030D01*
X070095Y002816D02*
X070095Y003457D01*
X070739Y003350D02*
X070739Y003137D01*
X070846Y003030D01*
X071059Y003030D01*
X071166Y003137D01*
X071166Y003350D01*
X071059Y003457D01*
X070846Y003457D01*
X070739Y003350D01*
X071384Y003457D02*
X071704Y003457D01*
X071811Y003350D01*
X071811Y003030D01*
X072028Y003137D02*
X072028Y003350D01*
X072135Y003457D01*
X072349Y003457D01*
X072455Y003350D01*
X072455Y003244D01*
X072028Y003244D01*
X072028Y003137D02*
X072135Y003030D01*
X072349Y003030D01*
X072673Y003030D02*
X072673Y003457D01*
X072993Y003457D01*
X073100Y003350D01*
X073100Y003030D01*
X073424Y003137D02*
X073531Y003030D01*
X073424Y003137D02*
X073424Y003564D01*
X073317Y003457D02*
X073531Y003457D01*
X074392Y003457D02*
X074498Y003350D01*
X074712Y003350D01*
X074819Y003244D01*
X074819Y003137D01*
X074712Y003030D01*
X074498Y003030D01*
X074392Y003137D01*
X074392Y003457D02*
X074392Y003564D01*
X074498Y003671D01*
X074712Y003671D01*
X074819Y003564D01*
X075036Y003457D02*
X075143Y003457D01*
X075143Y003030D01*
X075036Y003030D02*
X075250Y003030D01*
X075466Y003137D02*
X075466Y003350D01*
X075573Y003457D01*
X075893Y003457D01*
X075893Y003671D02*
X075893Y003030D01*
X075573Y003030D01*
X075466Y003137D01*
X075143Y003671D02*
X075143Y003777D01*
X076110Y003350D02*
X076217Y003457D01*
X076431Y003457D01*
X076537Y003350D01*
X076537Y003244D01*
X076110Y003244D01*
X076110Y003350D02*
X076110Y003137D01*
X076217Y003030D01*
X076431Y003030D01*
X071384Y003030D02*
X071384Y003457D01*
D11*
X059031Y018250D03*
X049631Y018250D03*
X049631Y027000D03*
X059031Y027000D03*
X026081Y045750D03*
X012331Y038150D03*
X009581Y045750D03*
X012331Y029350D03*
X009581Y067000D03*
X026081Y067000D03*
D12*
X034331Y066500D03*
X034331Y065500D03*
X034331Y064500D03*
X034331Y063500D03*
X034331Y062500D03*
X034331Y061500D03*
X034331Y060500D03*
X034331Y059500D03*
X034331Y058500D03*
X034331Y057500D03*
X034331Y056500D03*
X034331Y055500D03*
X034331Y054500D03*
X034331Y053500D03*
X034331Y052500D03*
X034331Y051500D03*
X034331Y050500D03*
X034331Y049500D03*
X034331Y048500D03*
X034331Y047500D03*
X034331Y046500D03*
X034331Y045500D03*
X034331Y044500D03*
X034331Y043500D03*
X034331Y042500D03*
X034331Y041500D03*
X034331Y040500D03*
X034331Y039500D03*
X038331Y037500D03*
X039331Y037500D03*
X040331Y037500D03*
X041331Y037500D03*
X042331Y037500D03*
X043331Y037500D03*
X046331Y039500D03*
X046331Y040500D03*
X046331Y041500D03*
X046331Y042500D03*
X046331Y043500D03*
X046331Y044500D03*
X046331Y045500D03*
X046331Y046500D03*
X046331Y047500D03*
X046331Y048500D03*
X046331Y049500D03*
X046331Y050500D03*
X046331Y051500D03*
X046331Y052500D03*
X046331Y053500D03*
X046331Y054500D03*
X046331Y055500D03*
X046331Y056500D03*
X046331Y057500D03*
X046331Y058500D03*
X046331Y059500D03*
X046331Y060500D03*
X046331Y061500D03*
X046331Y062500D03*
X046331Y063500D03*
X046331Y064500D03*
X046331Y065500D03*
X046331Y066500D03*
X052831Y063500D03*
X052831Y062500D03*
X052831Y061500D03*
X052831Y060500D03*
X052831Y059500D03*
X053831Y059500D03*
X054831Y059500D03*
X055831Y059500D03*
X056831Y059500D03*
X057831Y059500D03*
X057831Y060500D03*
X057831Y061500D03*
X057831Y062500D03*
X057831Y063500D03*
X057831Y056500D03*
X056831Y056500D03*
X055831Y056500D03*
X054831Y056500D03*
X054831Y053000D03*
X055831Y053000D03*
X056831Y053000D03*
X057831Y053000D03*
X057831Y040000D03*
X056831Y040000D03*
X055831Y040000D03*
X054831Y040000D03*
X039331Y032000D03*
X039331Y031000D03*
X039331Y030000D03*
X036331Y030000D03*
X036331Y031000D03*
X036331Y032000D03*
X031081Y027000D03*
X029581Y026500D03*
X028581Y025500D03*
X028081Y024000D03*
X025331Y026000D03*
X025331Y027000D03*
X025331Y028000D03*
X025331Y031000D03*
X025331Y032000D03*
X019331Y036500D03*
X019331Y037500D03*
X019331Y038500D03*
X019331Y042250D03*
X018331Y042250D03*
X017331Y042250D03*
X016331Y042250D03*
X015331Y042250D03*
X014331Y042250D03*
X013331Y042250D03*
X013331Y045250D03*
X014331Y045250D03*
X015331Y045250D03*
X016331Y045250D03*
X017331Y045250D03*
X018331Y045250D03*
X019331Y045250D03*
X020331Y045250D03*
X021331Y045250D03*
X022331Y045250D03*
X022331Y042250D03*
X021331Y042250D03*
X020331Y042250D03*
X018331Y032000D03*
X018331Y031000D03*
X018331Y028000D03*
X018331Y027000D03*
X018331Y026000D03*
X022081Y017000D03*
X022081Y016000D03*
X022081Y015000D03*
X022081Y014000D03*
X022081Y013000D03*
X022081Y012000D03*
X022081Y011000D03*
X022081Y010000D03*
X022081Y009000D03*
X026081Y009000D03*
X026081Y010000D03*
X026081Y011000D03*
X026081Y012000D03*
X026081Y013000D03*
X026081Y014000D03*
X026081Y015000D03*
X026081Y016000D03*
X026081Y017000D03*
X034581Y017500D03*
X037581Y017500D03*
X037581Y020500D03*
X034581Y020500D03*
X033331Y007250D03*
X032331Y007250D03*
X031331Y007250D03*
X030331Y007250D03*
X029331Y007250D03*
X042831Y007250D03*
X043831Y007250D03*
X044831Y007250D03*
X045831Y007250D03*
X046831Y007250D03*
D13*
X045831Y007250D02*
X045831Y005300D01*
X045631Y005100D01*
X045631Y004000D01*
X044831Y004000D02*
X044831Y007250D01*
X042831Y007250D02*
X042831Y006300D01*
X044031Y005100D01*
X044031Y004000D01*
X032331Y005300D02*
X032131Y005100D01*
X032131Y004000D01*
X031331Y004000D02*
X031331Y007250D01*
X032331Y007250D02*
X032331Y005300D01*
X030531Y005100D02*
X030531Y004000D01*
X030531Y005100D02*
X029331Y006300D01*
X029331Y007250D01*
X026081Y009000D02*
X022081Y009000D01*
X022081Y010000D02*
X026081Y010000D01*
X026081Y011000D02*
X022081Y011000D01*
X022081Y012000D02*
X026081Y012000D01*
X026081Y013000D02*
X022081Y013000D01*
X022081Y014000D02*
X026081Y014000D01*
X026081Y015000D02*
X022081Y015000D01*
X022081Y016000D02*
X026081Y016000D01*
X026081Y017000D02*
X022081Y017000D01*
X028081Y024000D02*
X028581Y025500D01*
X029581Y026500D02*
X031081Y027000D01*
X036331Y030000D02*
X039331Y030000D01*
X039331Y031000D02*
X036331Y031000D01*
X036331Y032000D02*
X039331Y032000D01*
X022331Y042250D02*
X022331Y045250D01*
X021331Y045250D02*
X021331Y042250D01*
X020331Y042250D02*
X020331Y045250D01*
X019331Y045250D02*
X019331Y042250D01*
X018331Y042250D02*
X018331Y045250D01*
X017331Y045250D02*
X017331Y042250D01*
X016331Y042250D02*
X016331Y045250D01*
X015331Y045250D02*
X015331Y042250D01*
X014331Y042250D02*
X014331Y045250D01*
X013331Y045250D02*
X013331Y042250D01*
D14*
X042081Y032750D03*
X042081Y029250D03*
X051831Y033000D03*
X056831Y033000D03*
D15*
X057181Y010500D03*
X055331Y010500D03*
X053481Y010500D03*
X054331Y005500D03*
X056331Y005500D03*
D16*
X045331Y011000D03*
X045331Y012000D03*
X045331Y013000D03*
X045331Y014000D03*
X045331Y015000D03*
X045331Y023000D03*
X045331Y024000D03*
X045331Y025000D03*
X045331Y026000D03*
X045331Y027000D03*
X050831Y035500D03*
X051831Y035500D03*
X052831Y035500D03*
X055831Y035500D03*
X056831Y035500D03*
X057831Y035500D03*
X051581Y039000D03*
X051581Y040000D03*
X051581Y041000D03*
X051581Y042000D03*
X051581Y043000D03*
X051581Y044000D03*
X051581Y045000D03*
X051581Y046000D03*
X051581Y047000D03*
X051581Y048000D03*
X051581Y049000D03*
X051581Y050000D03*
X051581Y051000D03*
X051581Y052000D03*
X051581Y053000D03*
X051581Y054000D03*
X050581Y060500D03*
X050581Y061500D03*
X050581Y062500D03*
X050581Y063500D03*
X050581Y064500D03*
X029581Y064500D03*
X029581Y063500D03*
X029581Y062500D03*
X029581Y061500D03*
X029581Y060500D03*
X029331Y044000D03*
X029331Y043000D03*
X029331Y042000D03*
X029331Y041000D03*
X029331Y040000D03*
X029331Y037000D03*
X029331Y036000D03*
X029331Y035000D03*
X029331Y034000D03*
X029331Y033000D03*
X029331Y030000D03*
X030331Y030000D03*
X031331Y030000D03*
X032331Y030000D03*
X033331Y030000D03*
X037081Y007250D03*
X038081Y007250D03*
X039081Y007250D03*
X039081Y004250D03*
X038081Y004250D03*
X037081Y004250D03*
D17*
X032131Y002640D03*
X031331Y002640D03*
X030531Y002640D03*
X044031Y002640D03*
X044831Y002640D03*
X045631Y002640D03*
D18*
X011331Y003250D03*
X011331Y022750D03*
D19*
X011331Y031550D02*
X011331Y035950D01*
X011831Y035950D02*
X011831Y031550D01*
X012331Y031550D02*
X012331Y035950D01*
X012831Y035950D02*
X012831Y031550D01*
X013331Y031550D02*
X013331Y035950D01*
X013831Y035950D02*
X013831Y031550D01*
X013931Y031550D02*
X014931Y032550D01*
X014931Y034950D01*
X013931Y035950D01*
X010731Y035950D01*
X009731Y034950D01*
X009731Y032550D01*
X010731Y031550D01*
X013931Y031550D01*
X014331Y031950D02*
X014331Y035550D01*
X014381Y035500D02*
X010281Y035500D01*
X010331Y035550D02*
X010331Y031950D01*
X010281Y032000D02*
X014381Y032000D01*
X014831Y032450D02*
X014831Y035050D01*
X014881Y035000D02*
X009781Y035000D01*
X009831Y035050D02*
X009831Y032450D01*
X009781Y032500D02*
X014881Y032500D01*
X014931Y033000D02*
X009731Y033000D01*
X009731Y033500D02*
X014931Y033500D01*
X014931Y034000D02*
X009731Y034000D01*
X009731Y034500D02*
X014931Y034500D01*
X010831Y035950D02*
X010831Y031550D01*
D20*
X011081Y032500D03*
X013581Y032500D03*
X013581Y035000D03*
X011081Y035000D03*
D21*
X010208Y036169D02*
X010208Y037349D01*
X010205Y037386D01*
X010199Y037424D01*
X010190Y037460D01*
X010178Y037496D01*
X010168Y037522D01*
X010168Y044674D01*
X010333Y044770D01*
X010561Y044998D01*
X010722Y045277D01*
X010806Y045589D01*
X010806Y045911D01*
X010722Y046223D01*
X010561Y046502D01*
X010333Y046730D01*
X010168Y046826D01*
X010168Y065924D01*
X010333Y066020D01*
X010561Y066248D01*
X010722Y066527D01*
X010806Y066839D01*
X010806Y067161D01*
X010722Y067473D01*
X010561Y067752D01*
X010333Y067980D01*
X010168Y068076D01*
X010168Y068500D01*
X040081Y068500D01*
X040081Y042500D01*
X032581Y035000D01*
X030046Y035000D01*
X030046Y035296D01*
X029842Y035500D01*
X030046Y035704D01*
X030046Y036296D01*
X029842Y036500D01*
X030046Y036704D01*
X030046Y037296D01*
X029627Y037715D01*
X029035Y037715D01*
X028616Y037296D01*
X028616Y036704D01*
X028820Y036500D01*
X028616Y036296D01*
X028616Y035704D01*
X028820Y035500D01*
X028616Y035296D01*
X028616Y035000D01*
X025081Y035000D01*
X025081Y032670D01*
X024926Y032606D01*
X024725Y032405D01*
X024616Y032142D01*
X024616Y031858D01*
X024725Y031595D01*
X024820Y031500D01*
X024725Y031405D01*
X024616Y031142D01*
X024616Y030858D01*
X024725Y030595D01*
X024926Y030394D01*
X025081Y030330D01*
X025081Y028670D01*
X024926Y028606D01*
X024725Y028405D01*
X024616Y028142D01*
X024616Y027858D01*
X024725Y027595D01*
X024820Y027500D01*
X024725Y027405D01*
X024616Y027142D01*
X024616Y026858D01*
X024725Y026595D01*
X024820Y026500D01*
X024725Y026405D01*
X024616Y026142D01*
X024616Y025858D01*
X024725Y025595D01*
X024926Y025394D01*
X025189Y025285D01*
X025473Y025285D01*
X025736Y025394D01*
X025842Y025500D01*
X027866Y025500D01*
X027866Y025358D01*
X027967Y025113D01*
X027818Y024665D01*
X027676Y024606D01*
X027475Y024405D01*
X027366Y024142D01*
X027366Y023858D01*
X027475Y023595D01*
X027676Y023394D01*
X027939Y023285D01*
X028223Y023285D01*
X028486Y023394D01*
X028687Y023595D01*
X028796Y023858D01*
X028796Y024142D01*
X028695Y024387D01*
X028844Y024835D01*
X028986Y024894D01*
X029187Y025095D01*
X029296Y025358D01*
X029296Y025500D01*
X039081Y025500D01*
X041819Y028238D01*
X041943Y028205D01*
X042219Y028205D01*
X042484Y028276D01*
X042723Y028414D01*
X042917Y028608D01*
X043055Y028847D01*
X043126Y029112D01*
X043126Y029388D01*
X043093Y029512D01*
X048831Y035250D01*
X050116Y035250D01*
X050116Y035204D01*
X050535Y034785D01*
X051127Y034785D01*
X051331Y034989D01*
X051535Y034785D01*
X052127Y034785D01*
X052331Y034989D01*
X052535Y034785D01*
X053127Y034785D01*
X053546Y035204D01*
X053546Y035250D01*
X054915Y035250D01*
X054851Y035095D01*
X054851Y011246D01*
X054837Y011240D01*
X054591Y010994D01*
X054458Y010674D01*
X054458Y010326D01*
X054591Y010006D01*
X054837Y009760D01*
X055157Y009628D01*
X055505Y009628D01*
X055825Y009760D01*
X056071Y010006D01*
X056203Y010326D01*
X056203Y010674D01*
X056071Y010994D01*
X055825Y011240D01*
X055811Y011246D01*
X055811Y032769D01*
X055857Y032597D01*
X055995Y032358D01*
X056189Y032164D01*
X056428Y032026D01*
X056693Y031955D01*
X056969Y031955D01*
X057234Y032026D01*
X057473Y032164D01*
X057667Y032358D01*
X057805Y032597D01*
X057876Y032862D01*
X057876Y033138D01*
X057805Y033403D01*
X057667Y033642D01*
X057473Y033836D01*
X057234Y033974D01*
X056969Y034045D01*
X056693Y034045D01*
X056428Y033974D01*
X056189Y033836D01*
X055995Y033642D01*
X055857Y033403D01*
X055811Y033231D01*
X055811Y034785D01*
X056127Y034785D01*
X056331Y034989D01*
X056535Y034785D01*
X057127Y034785D01*
X057331Y034989D01*
X057535Y034785D01*
X058127Y034785D01*
X058546Y035204D01*
X058546Y035250D01*
X060331Y035250D01*
X060331Y001500D01*
X048175Y001500D01*
X048289Y001614D01*
X048366Y001800D01*
X048366Y002650D01*
X048289Y002836D01*
X048147Y002978D01*
X047961Y003055D01*
X047866Y003055D01*
X047866Y003800D01*
X047789Y003986D01*
X047647Y004128D01*
X047461Y004205D01*
X046261Y004205D01*
X046261Y004280D01*
X046200Y004427D01*
X046091Y004536D01*
X046091Y004909D01*
X046221Y005039D01*
X046291Y005208D01*
X046291Y006699D01*
X046331Y006739D01*
X046426Y006644D01*
X046689Y006535D01*
X046973Y006535D01*
X047236Y006644D01*
X047437Y006845D01*
X047546Y007108D01*
X047546Y007392D01*
X047437Y007655D01*
X047236Y007856D01*
X046973Y007965D01*
X046689Y007965D01*
X046426Y007856D01*
X046331Y007761D01*
X046236Y007856D01*
X045973Y007965D01*
X045689Y007965D01*
X045426Y007856D01*
X045331Y007761D01*
X045236Y007856D01*
X044973Y007965D01*
X044689Y007965D01*
X044426Y007856D01*
X044331Y007761D01*
X044236Y007856D01*
X043973Y007965D01*
X043689Y007965D01*
X043426Y007856D01*
X043331Y007761D01*
X043236Y007856D01*
X042973Y007965D01*
X042689Y007965D01*
X042426Y007856D01*
X042225Y007655D01*
X042116Y007392D01*
X042116Y007108D01*
X042225Y006845D01*
X042371Y006699D01*
X042371Y006208D01*
X042441Y006039D01*
X043571Y004909D01*
X043571Y004536D01*
X043462Y004427D01*
X043401Y004280D01*
X043401Y004205D01*
X042201Y004205D01*
X042015Y004128D01*
X041873Y003986D01*
X041796Y003800D01*
X041796Y003055D01*
X041701Y003055D01*
X041515Y002978D01*
X041373Y002836D01*
X041296Y002650D01*
X041296Y001800D01*
X041373Y001614D01*
X041487Y001500D01*
X034675Y001500D01*
X034789Y001614D01*
X034866Y001800D01*
X034866Y002650D01*
X034789Y002836D01*
X034647Y002978D01*
X034461Y003055D01*
X034366Y003055D01*
X034366Y003800D01*
X034289Y003986D01*
X034147Y004128D01*
X033961Y004205D01*
X032761Y004205D01*
X032761Y004280D01*
X032700Y004427D01*
X032591Y004536D01*
X032591Y004909D01*
X032721Y005039D01*
X032791Y005208D01*
X032791Y006699D01*
X032831Y006739D01*
X032926Y006644D01*
X033189Y006535D01*
X033473Y006535D01*
X033736Y006644D01*
X033937Y006845D01*
X034046Y007108D01*
X034046Y007392D01*
X033937Y007655D01*
X033736Y007856D01*
X033473Y007965D01*
X033189Y007965D01*
X032926Y007856D01*
X032831Y007761D01*
X032736Y007856D01*
X032473Y007965D01*
X032189Y007965D01*
X031926Y007856D01*
X031831Y007761D01*
X031736Y007856D01*
X031473Y007965D01*
X031189Y007965D01*
X030926Y007856D01*
X030831Y007761D01*
X030736Y007856D01*
X030473Y007965D01*
X030189Y007965D01*
X029926Y007856D01*
X029831Y007761D01*
X029736Y007856D01*
X029473Y007965D01*
X029189Y007965D01*
X028926Y007856D01*
X028725Y007655D01*
X028616Y007392D01*
X028616Y007108D01*
X028725Y006845D01*
X028871Y006699D01*
X028871Y006208D01*
X028941Y006039D01*
X030071Y004909D01*
X030071Y004536D01*
X029962Y004427D01*
X029901Y004280D01*
X029901Y004205D01*
X028701Y004205D01*
X028515Y004128D01*
X028373Y003986D01*
X028296Y003800D01*
X028296Y003055D01*
X028201Y003055D01*
X028015Y002978D01*
X027873Y002836D01*
X027796Y002650D01*
X027796Y001800D01*
X027873Y001614D01*
X027987Y001500D01*
X014776Y001500D01*
X014763Y001506D01*
X010233Y001506D01*
X010281Y001894D01*
X010293Y001923D01*
X010293Y001993D01*
X010302Y002062D01*
X010293Y002092D01*
X010293Y002124D01*
X010267Y002189D01*
X010248Y002256D01*
X010228Y002281D01*
X010216Y002310D01*
X010168Y002359D01*
X010168Y031371D01*
X010434Y031105D01*
X010627Y031025D01*
X014035Y031025D01*
X014228Y031105D01*
X015228Y032105D01*
X015376Y032253D01*
X015456Y032446D01*
X015456Y035054D01*
X015376Y035247D01*
X014376Y036247D01*
X014228Y036395D01*
X014035Y036475D01*
X010627Y036475D01*
X010434Y036395D01*
X010208Y036169D01*
X010208Y036321D02*
X010360Y036321D01*
X010208Y036480D02*
X018616Y036480D01*
X018616Y036358D02*
X018725Y036095D01*
X018926Y035894D01*
X019189Y035785D01*
X019473Y035785D01*
X019736Y035894D01*
X019937Y036095D01*
X020046Y036358D01*
X020046Y036642D01*
X019937Y036905D01*
X019842Y037000D01*
X019937Y037095D01*
X020046Y037358D01*
X020046Y037642D01*
X019937Y037905D01*
X019842Y038000D01*
X019937Y038095D01*
X020046Y038358D01*
X020046Y038642D01*
X019937Y038905D01*
X019736Y039106D01*
X019473Y039215D01*
X019189Y039215D01*
X018926Y039106D01*
X018725Y038905D01*
X018616Y038642D01*
X018616Y038358D01*
X018725Y038095D01*
X018820Y038000D01*
X018725Y037905D01*
X018616Y037642D01*
X018616Y037358D01*
X018725Y037095D01*
X018820Y037000D01*
X018725Y036905D01*
X018616Y036642D01*
X018616Y036358D01*
X018631Y036321D02*
X014302Y036321D01*
X014461Y036163D02*
X018697Y036163D01*
X018816Y036004D02*
X014619Y036004D01*
X014778Y035846D02*
X019043Y035846D01*
X019619Y035846D02*
X028616Y035846D01*
X028616Y036004D02*
X019846Y036004D01*
X019965Y036163D02*
X028616Y036163D01*
X028641Y036321D02*
X020031Y036321D01*
X020046Y036480D02*
X028799Y036480D01*
X028682Y036638D02*
X020046Y036638D01*
X019982Y036797D02*
X028616Y036797D01*
X028616Y036955D02*
X019887Y036955D01*
X019945Y037114D02*
X028616Y037114D01*
X028616Y037272D02*
X020010Y037272D01*
X020046Y037431D02*
X028750Y037431D01*
X028909Y037589D02*
X020046Y037589D01*
X020002Y037748D02*
X035329Y037748D01*
X035487Y037906D02*
X019936Y037906D01*
X019907Y038065D02*
X035646Y038065D01*
X035804Y038223D02*
X019990Y038223D01*
X020046Y038382D02*
X035963Y038382D01*
X036121Y038540D02*
X020046Y038540D01*
X020023Y038699D02*
X036280Y038699D01*
X036438Y038857D02*
X034647Y038857D01*
X034736Y038894D02*
X034473Y038785D01*
X034189Y038785D01*
X033926Y038894D01*
X033725Y039095D01*
X033616Y039358D01*
X033616Y039642D01*
X033725Y039905D01*
X033820Y040000D01*
X033725Y040095D01*
X033616Y040358D01*
X033616Y040642D01*
X033725Y040905D01*
X033820Y041000D01*
X033725Y041095D01*
X033616Y041358D01*
X033616Y041642D01*
X033725Y041905D01*
X033820Y042000D01*
X033725Y042095D01*
X033616Y042358D01*
X033616Y042642D01*
X033725Y042905D01*
X033820Y043000D01*
X033725Y043095D01*
X033616Y043358D01*
X033616Y043642D01*
X033725Y043905D01*
X033820Y044000D01*
X033725Y044095D01*
X033616Y044358D01*
X033616Y044642D01*
X033725Y044905D01*
X033820Y045000D01*
X033725Y045095D01*
X033616Y045358D01*
X033616Y045642D01*
X033725Y045905D01*
X033820Y046000D01*
X033725Y046095D01*
X033616Y046358D01*
X033616Y046642D01*
X033725Y046905D01*
X033820Y047000D01*
X033725Y047095D01*
X033616Y047358D01*
X033616Y047642D01*
X033725Y047905D01*
X033820Y048000D01*
X033725Y048095D01*
X033616Y048358D01*
X033616Y048642D01*
X033725Y048905D01*
X033820Y049000D01*
X033725Y049095D01*
X033616Y049358D01*
X033616Y049642D01*
X033725Y049905D01*
X033820Y050000D01*
X033725Y050095D01*
X033616Y050358D01*
X033616Y050642D01*
X033725Y050905D01*
X033820Y051000D01*
X033725Y051095D01*
X033616Y051358D01*
X033616Y051642D01*
X033725Y051905D01*
X033820Y052000D01*
X033725Y052095D01*
X033616Y052358D01*
X033616Y052642D01*
X033725Y052905D01*
X033820Y053000D01*
X033725Y053095D01*
X033616Y053358D01*
X033616Y053642D01*
X033725Y053905D01*
X033820Y054000D01*
X033725Y054095D01*
X033616Y054358D01*
X033616Y054642D01*
X033725Y054905D01*
X033820Y055000D01*
X033725Y055095D01*
X033616Y055358D01*
X033616Y055642D01*
X033725Y055905D01*
X033820Y056000D01*
X033725Y056095D01*
X033616Y056358D01*
X033616Y056642D01*
X033725Y056905D01*
X033820Y057000D01*
X033725Y057095D01*
X033616Y057358D01*
X033616Y057642D01*
X033725Y057905D01*
X033820Y058000D01*
X033725Y058095D01*
X033616Y058358D01*
X033616Y058642D01*
X033725Y058905D01*
X033820Y059000D01*
X033725Y059095D01*
X033616Y059358D01*
X033616Y059642D01*
X033725Y059905D01*
X033820Y060000D01*
X033725Y060095D01*
X033616Y060358D01*
X033616Y060642D01*
X033725Y060905D01*
X033820Y061000D01*
X033725Y061095D01*
X033616Y061358D01*
X033616Y061642D01*
X033725Y061905D01*
X033820Y062000D01*
X033725Y062095D01*
X033616Y062358D01*
X033616Y062642D01*
X033725Y062905D01*
X033820Y063000D01*
X033725Y063095D01*
X033616Y063358D01*
X033616Y063642D01*
X033725Y063905D01*
X033926Y064106D01*
X033996Y064135D01*
X033953Y064178D01*
X033908Y064241D01*
X033872Y064310D01*
X033848Y064384D01*
X033836Y064461D01*
X033836Y064475D01*
X034306Y064475D01*
X034306Y064525D01*
X033836Y064525D01*
X033836Y064539D01*
X033848Y064616D01*
X033872Y064690D01*
X033908Y064759D01*
X033953Y064822D01*
X033996Y064865D01*
X033926Y064894D01*
X033725Y065095D01*
X033616Y065358D01*
X033616Y065642D01*
X033725Y065905D01*
X033820Y066000D01*
X033725Y066095D01*
X033616Y066358D01*
X033616Y066642D01*
X033725Y066905D01*
X033926Y067106D01*
X034189Y067215D01*
X034473Y067215D01*
X034736Y067106D01*
X034937Y066905D01*
X035046Y066642D01*
X035046Y066358D01*
X034937Y066095D01*
X034842Y066000D01*
X034937Y065905D01*
X035046Y065642D01*
X035046Y065358D01*
X034937Y065095D01*
X034736Y064894D01*
X034666Y064865D01*
X034709Y064822D01*
X034754Y064759D01*
X034790Y064690D01*
X034814Y064616D01*
X034826Y064539D01*
X034826Y064525D01*
X034356Y064525D01*
X034356Y064475D01*
X034826Y064475D01*
X034826Y064461D01*
X034814Y064384D01*
X034790Y064310D01*
X034754Y064241D01*
X034709Y064178D01*
X034666Y064135D01*
X034736Y064106D01*
X034937Y063905D01*
X035046Y063642D01*
X035046Y063358D01*
X034937Y063095D01*
X034842Y063000D01*
X034937Y062905D01*
X035046Y062642D01*
X035046Y062358D01*
X034937Y062095D01*
X034842Y062000D01*
X034937Y061905D01*
X035046Y061642D01*
X035046Y061358D01*
X034937Y061095D01*
X034842Y061000D01*
X034937Y060905D01*
X035046Y060642D01*
X035046Y060358D01*
X034937Y060095D01*
X034842Y060000D01*
X034937Y059905D01*
X035046Y059642D01*
X035046Y059358D01*
X034937Y059095D01*
X034842Y059000D01*
X034937Y058905D01*
X035046Y058642D01*
X035046Y058358D01*
X034937Y058095D01*
X034842Y058000D01*
X034937Y057905D01*
X035046Y057642D01*
X035046Y057358D01*
X034937Y057095D01*
X034842Y057000D01*
X034937Y056905D01*
X035046Y056642D01*
X035046Y056358D01*
X034937Y056095D01*
X034842Y056000D01*
X034937Y055905D01*
X035046Y055642D01*
X035046Y055358D01*
X034937Y055095D01*
X034842Y055000D01*
X034937Y054905D01*
X035046Y054642D01*
X035046Y054358D01*
X034937Y054095D01*
X034842Y054000D01*
X034937Y053905D01*
X035046Y053642D01*
X035046Y053358D01*
X034937Y053095D01*
X034842Y053000D01*
X034937Y052905D01*
X035046Y052642D01*
X035046Y052358D01*
X034937Y052095D01*
X034842Y052000D01*
X034937Y051905D01*
X035046Y051642D01*
X035046Y051358D01*
X034937Y051095D01*
X034842Y051000D01*
X034937Y050905D01*
X035046Y050642D01*
X035046Y050358D01*
X034937Y050095D01*
X034842Y050000D01*
X034937Y049905D01*
X035046Y049642D01*
X035046Y049358D01*
X034937Y049095D01*
X034842Y049000D01*
X034937Y048905D01*
X035046Y048642D01*
X035046Y048358D01*
X034937Y048095D01*
X034842Y048000D01*
X034937Y047905D01*
X035046Y047642D01*
X035046Y047358D01*
X034937Y047095D01*
X034842Y047000D01*
X034937Y046905D01*
X035046Y046642D01*
X035046Y046358D01*
X034937Y046095D01*
X034842Y046000D01*
X034937Y045905D01*
X035046Y045642D01*
X035046Y045358D01*
X034937Y045095D01*
X034842Y045000D01*
X034937Y044905D01*
X035046Y044642D01*
X035046Y044358D01*
X034937Y044095D01*
X034842Y044000D01*
X034937Y043905D01*
X035046Y043642D01*
X035046Y043358D01*
X034937Y043095D01*
X034842Y043000D01*
X034937Y042905D01*
X035046Y042642D01*
X035046Y042358D01*
X034937Y042095D01*
X034842Y042000D01*
X034937Y041905D01*
X035046Y041642D01*
X035046Y041358D01*
X034937Y041095D01*
X034842Y041000D01*
X034937Y040905D01*
X035046Y040642D01*
X035046Y040358D01*
X034937Y040095D01*
X034842Y040000D01*
X034937Y039905D01*
X035046Y039642D01*
X035046Y039358D01*
X034937Y039095D01*
X034736Y038894D01*
X034858Y039016D02*
X036597Y039016D01*
X036755Y039174D02*
X034970Y039174D01*
X035036Y039333D02*
X036914Y039333D01*
X037072Y039491D02*
X035046Y039491D01*
X035043Y039650D02*
X037231Y039650D01*
X037389Y039808D02*
X034977Y039808D01*
X034876Y039967D02*
X037548Y039967D01*
X037706Y040125D02*
X034950Y040125D01*
X035015Y040284D02*
X037865Y040284D01*
X038023Y040442D02*
X035046Y040442D01*
X035046Y040601D02*
X038182Y040601D01*
X038340Y040759D02*
X034998Y040759D01*
X034925Y040918D02*
X038499Y040918D01*
X038657Y041076D02*
X034918Y041076D01*
X034995Y041235D02*
X038816Y041235D01*
X038974Y041393D02*
X035046Y041393D01*
X035046Y041552D02*
X039133Y041552D01*
X039291Y041710D02*
X035018Y041710D01*
X034952Y041869D02*
X039450Y041869D01*
X039608Y042027D02*
X034869Y042027D01*
X034975Y042186D02*
X039767Y042186D01*
X039925Y042344D02*
X035040Y042344D01*
X035046Y042503D02*
X040081Y042503D01*
X040081Y042661D02*
X035038Y042661D01*
X034973Y042820D02*
X040081Y042820D01*
X040081Y042978D02*
X034864Y042978D01*
X034954Y043137D02*
X040081Y043137D01*
X040081Y043295D02*
X035020Y043295D01*
X035046Y043454D02*
X040081Y043454D01*
X040081Y043612D02*
X035046Y043612D01*
X034993Y043771D02*
X040081Y043771D01*
X040081Y043929D02*
X034913Y043929D01*
X034930Y044088D02*
X040081Y044088D01*
X040081Y044246D02*
X035000Y044246D01*
X035046Y044405D02*
X040081Y044405D01*
X040081Y044563D02*
X035046Y044563D01*
X035013Y044722D02*
X040081Y044722D01*
X040081Y044880D02*
X034947Y044880D01*
X034881Y045039D02*
X040081Y045039D01*
X040081Y045197D02*
X034979Y045197D01*
X035045Y045356D02*
X040081Y045356D01*
X040081Y045514D02*
X035046Y045514D01*
X035033Y045673D02*
X040081Y045673D01*
X040081Y045831D02*
X034968Y045831D01*
X034853Y045990D02*
X040081Y045990D01*
X040081Y046148D02*
X034959Y046148D01*
X035025Y046307D02*
X040081Y046307D01*
X040081Y046465D02*
X035046Y046465D01*
X035046Y046624D02*
X040081Y046624D01*
X040081Y046782D02*
X034988Y046782D01*
X034902Y046941D02*
X040081Y046941D01*
X040081Y047099D02*
X034939Y047099D01*
X035004Y047258D02*
X040081Y047258D01*
X040081Y047416D02*
X035046Y047416D01*
X035046Y047575D02*
X040081Y047575D01*
X040081Y047733D02*
X035008Y047733D01*
X034943Y047892D02*
X040081Y047892D01*
X040081Y048050D02*
X034892Y048050D01*
X034984Y048209D02*
X040081Y048209D01*
X040081Y048367D02*
X035046Y048367D01*
X035046Y048526D02*
X040081Y048526D01*
X040081Y048684D02*
X035029Y048684D01*
X034963Y048843D02*
X040081Y048843D01*
X040081Y049001D02*
X034843Y049001D01*
X034964Y049160D02*
X040081Y049160D01*
X040081Y049318D02*
X035030Y049318D01*
X035046Y049477D02*
X040081Y049477D01*
X040081Y049635D02*
X035046Y049635D01*
X034983Y049794D02*
X040081Y049794D01*
X040081Y049952D02*
X034890Y049952D01*
X034944Y050111D02*
X040081Y050111D01*
X040081Y050269D02*
X035009Y050269D01*
X035046Y050428D02*
X040081Y050428D01*
X040081Y050586D02*
X035046Y050586D01*
X035004Y050745D02*
X040081Y050745D01*
X040081Y050903D02*
X034938Y050903D01*
X034904Y051062D02*
X040081Y051062D01*
X040081Y051220D02*
X034989Y051220D01*
X035046Y051379D02*
X040081Y051379D01*
X040081Y051537D02*
X035046Y051537D01*
X035024Y051696D02*
X040081Y051696D01*
X040081Y051854D02*
X034958Y051854D01*
X034855Y052013D02*
X040081Y052013D01*
X040081Y052171D02*
X034969Y052171D01*
X035034Y052330D02*
X040081Y052330D01*
X040081Y052488D02*
X035046Y052488D01*
X035044Y052647D02*
X040081Y052647D01*
X040081Y052805D02*
X034979Y052805D01*
X034879Y052964D02*
X040081Y052964D01*
X040081Y053122D02*
X034948Y053122D01*
X035014Y053281D02*
X040081Y053281D01*
X040081Y053439D02*
X035046Y053439D01*
X035046Y053598D02*
X040081Y053598D01*
X040081Y053756D02*
X034999Y053756D01*
X034928Y053915D02*
X040081Y053915D01*
X040081Y054073D02*
X034915Y054073D01*
X034994Y054232D02*
X040081Y054232D01*
X040081Y054390D02*
X035046Y054390D01*
X035046Y054549D02*
X040081Y054549D01*
X040081Y054707D02*
X035019Y054707D01*
X034953Y054866D02*
X040081Y054866D01*
X040081Y055024D02*
X034866Y055024D01*
X034973Y055183D02*
X040081Y055183D01*
X040081Y055341D02*
X035039Y055341D01*
X035046Y055500D02*
X040081Y055500D01*
X040081Y055658D02*
X035039Y055658D01*
X034974Y055817D02*
X040081Y055817D01*
X040081Y055975D02*
X034867Y055975D01*
X034953Y056134D02*
X040081Y056134D01*
X040081Y056292D02*
X035019Y056292D01*
X035046Y056451D02*
X040081Y056451D01*
X040081Y056609D02*
X035046Y056609D01*
X034994Y056768D02*
X040081Y056768D01*
X040081Y056926D02*
X034916Y056926D01*
X034927Y057085D02*
X040081Y057085D01*
X040081Y057243D02*
X034998Y057243D01*
X035046Y057402D02*
X040081Y057402D01*
X040081Y057560D02*
X035046Y057560D01*
X035014Y057719D02*
X040081Y057719D01*
X040081Y057877D02*
X034949Y057877D01*
X034878Y058036D02*
X040081Y058036D01*
X040081Y058194D02*
X034978Y058194D01*
X035044Y058353D02*
X040081Y058353D01*
X040081Y058511D02*
X035046Y058511D01*
X035035Y058670D02*
X040081Y058670D01*
X040081Y058828D02*
X034969Y058828D01*
X034856Y058987D02*
X040081Y058987D01*
X040081Y059145D02*
X034958Y059145D01*
X035024Y059304D02*
X040081Y059304D01*
X040081Y059462D02*
X035046Y059462D01*
X035046Y059621D02*
X040081Y059621D01*
X040081Y059779D02*
X034989Y059779D01*
X034905Y059938D02*
X040081Y059938D01*
X040081Y060096D02*
X034938Y060096D01*
X035003Y060255D02*
X040081Y060255D01*
X040081Y060413D02*
X035046Y060413D01*
X035046Y060572D02*
X040081Y060572D01*
X040081Y060730D02*
X035010Y060730D01*
X034944Y060889D02*
X040081Y060889D01*
X040081Y061047D02*
X034889Y061047D01*
X034983Y061206D02*
X040081Y061206D01*
X040081Y061364D02*
X035046Y061364D01*
X035046Y061523D02*
X040081Y061523D01*
X040081Y061681D02*
X035030Y061681D01*
X034964Y061840D02*
X040081Y061840D01*
X040081Y061998D02*
X034844Y061998D01*
X034963Y062157D02*
X040081Y062157D01*
X040081Y062315D02*
X035028Y062315D01*
X035046Y062474D02*
X040081Y062474D01*
X040081Y062632D02*
X035046Y062632D01*
X034985Y062791D02*
X040081Y062791D01*
X040081Y062949D02*
X034893Y062949D01*
X034942Y063108D02*
X040081Y063108D01*
X040081Y063266D02*
X035008Y063266D01*
X035046Y063425D02*
X040081Y063425D01*
X040081Y063583D02*
X035046Y063583D01*
X035005Y063742D02*
X040081Y063742D01*
X040081Y063900D02*
X034939Y063900D01*
X034784Y064059D02*
X040081Y064059D01*
X040081Y064217D02*
X034737Y064217D01*
X034811Y064376D02*
X040081Y064376D01*
X040081Y064534D02*
X034826Y064534D01*
X034788Y064693D02*
X040081Y064693D01*
X040081Y064851D02*
X034680Y064851D01*
X034852Y065010D02*
X040081Y065010D01*
X040081Y065168D02*
X034967Y065168D01*
X035033Y065327D02*
X040081Y065327D01*
X040081Y065485D02*
X035046Y065485D01*
X035045Y065644D02*
X040081Y065644D01*
X040081Y065802D02*
X034980Y065802D01*
X034882Y065961D02*
X040081Y065961D01*
X040081Y066119D02*
X034947Y066119D01*
X035013Y066278D02*
X040081Y066278D01*
X040081Y066436D02*
X035046Y066436D01*
X035046Y066595D02*
X040081Y066595D01*
X040081Y066753D02*
X035000Y066753D01*
X034931Y066912D02*
X040081Y066912D01*
X040081Y067070D02*
X034772Y067070D01*
X033890Y067070D02*
X027306Y067070D01*
X027306Y067161D02*
X027222Y067473D01*
X027061Y067752D01*
X026833Y067980D01*
X026554Y068142D01*
X026242Y068225D01*
X025920Y068225D01*
X025608Y068142D01*
X025329Y067980D01*
X025101Y067752D01*
X024939Y067473D01*
X024856Y067161D01*
X024856Y066839D01*
X024939Y066527D01*
X025101Y066248D01*
X025329Y066020D01*
X025608Y065858D01*
X025920Y065775D01*
X026242Y065775D01*
X026554Y065858D01*
X026833Y066020D01*
X027061Y066248D01*
X027222Y066527D01*
X027306Y066839D01*
X027306Y067161D01*
X027288Y067229D02*
X040081Y067229D01*
X040081Y067387D02*
X027245Y067387D01*
X027180Y067546D02*
X040081Y067546D01*
X040081Y067704D02*
X027089Y067704D01*
X026951Y067863D02*
X040081Y067863D01*
X040081Y068021D02*
X026762Y068021D01*
X026412Y068180D02*
X040081Y068180D01*
X040081Y068338D02*
X010168Y068338D01*
X010168Y068180D02*
X025750Y068180D01*
X025400Y068021D02*
X010262Y068021D01*
X010451Y067863D02*
X025211Y067863D01*
X025073Y067704D02*
X010589Y067704D01*
X010680Y067546D02*
X024981Y067546D01*
X024916Y067387D02*
X010745Y067387D01*
X010788Y067229D02*
X024874Y067229D01*
X024856Y067070D02*
X010806Y067070D01*
X010806Y066912D02*
X024856Y066912D01*
X024879Y066753D02*
X010783Y066753D01*
X010741Y066595D02*
X024921Y066595D01*
X024992Y066436D02*
X010670Y066436D01*
X010578Y066278D02*
X025084Y066278D01*
X025229Y066119D02*
X010432Y066119D01*
X010231Y065961D02*
X025431Y065961D01*
X025819Y065802D02*
X010168Y065802D01*
X010168Y065644D02*
X033617Y065644D01*
X033616Y065485D02*
X010168Y065485D01*
X010168Y065327D02*
X033629Y065327D01*
X033695Y065168D02*
X010168Y065168D01*
X010168Y065010D02*
X033810Y065010D01*
X033982Y064851D02*
X029930Y064851D01*
X029786Y064995D02*
X029606Y064995D01*
X029606Y064525D01*
X030076Y064525D01*
X030076Y064705D01*
X029786Y064995D01*
X029556Y064995D02*
X029376Y064995D01*
X029086Y064705D01*
X029086Y064525D01*
X029556Y064525D01*
X029556Y064995D01*
X029556Y064851D02*
X029606Y064851D01*
X029606Y064693D02*
X029556Y064693D01*
X029556Y064534D02*
X029606Y064534D01*
X029606Y064525D02*
X029556Y064525D01*
X029556Y064475D01*
X029606Y064475D01*
X029606Y064525D01*
X029606Y064475D02*
X030076Y064475D01*
X030076Y064295D01*
X029786Y064005D01*
X029606Y064005D01*
X029606Y064475D01*
X029556Y064475D02*
X029556Y064005D01*
X029376Y064005D01*
X029086Y064295D01*
X029086Y064475D01*
X029556Y064475D01*
X029556Y064376D02*
X029606Y064376D01*
X029606Y064217D02*
X029556Y064217D01*
X029556Y064059D02*
X029606Y064059D01*
X029606Y063995D02*
X029606Y063525D01*
X030076Y063525D01*
X030076Y063705D01*
X029786Y063995D01*
X029606Y063995D01*
X029556Y063995D02*
X029556Y063525D01*
X029606Y063525D01*
X029606Y063475D01*
X030076Y063475D01*
X030076Y063295D01*
X029786Y063005D01*
X029606Y063005D01*
X029606Y063475D01*
X029556Y063475D01*
X029556Y063005D01*
X029376Y063005D01*
X029086Y063295D01*
X029086Y063475D01*
X029556Y063475D01*
X029556Y063525D01*
X029086Y063525D01*
X029086Y063705D01*
X029376Y063995D01*
X029556Y063995D01*
X029556Y063900D02*
X029606Y063900D01*
X029606Y063742D02*
X029556Y063742D01*
X029556Y063583D02*
X029606Y063583D01*
X029606Y063425D02*
X029556Y063425D01*
X029556Y063266D02*
X029606Y063266D01*
X029606Y063108D02*
X029556Y063108D01*
X029556Y062995D02*
X029376Y062995D01*
X029086Y062705D01*
X029086Y062525D01*
X029556Y062525D01*
X029556Y062995D01*
X029556Y062949D02*
X029606Y062949D01*
X029606Y062995D02*
X029606Y062525D01*
X030076Y062525D01*
X030076Y062705D01*
X029786Y062995D01*
X029606Y062995D01*
X029606Y062791D02*
X029556Y062791D01*
X029556Y062632D02*
X029606Y062632D01*
X029606Y062525D02*
X029556Y062525D01*
X029556Y062475D01*
X029606Y062475D01*
X029606Y062525D01*
X029606Y062475D02*
X030076Y062475D01*
X030076Y062295D01*
X029786Y062005D01*
X029606Y062005D01*
X029606Y062475D01*
X029606Y062474D02*
X029556Y062474D01*
X029556Y062475D02*
X029556Y062005D01*
X029376Y062005D01*
X029086Y062295D01*
X029086Y062475D01*
X029556Y062475D01*
X029556Y062315D02*
X029606Y062315D01*
X029606Y062157D02*
X029556Y062157D01*
X029556Y061995D02*
X029376Y061995D01*
X029086Y061705D01*
X029086Y061525D01*
X029556Y061525D01*
X029556Y061995D01*
X029606Y061995D02*
X029606Y061525D01*
X030076Y061525D01*
X030076Y061705D01*
X029786Y061995D01*
X029606Y061995D01*
X029606Y061840D02*
X029556Y061840D01*
X029556Y061681D02*
X029606Y061681D01*
X029606Y061525D02*
X029556Y061525D01*
X029556Y061475D01*
X029606Y061475D01*
X029606Y061525D01*
X029606Y061523D02*
X033616Y061523D01*
X033616Y061364D02*
X030076Y061364D01*
X030076Y061295D02*
X030076Y061475D01*
X029606Y061475D01*
X029606Y061005D01*
X029786Y061005D01*
X030076Y061295D01*
X029987Y061206D02*
X033679Y061206D01*
X033773Y061047D02*
X029828Y061047D01*
X029786Y060995D02*
X029606Y060995D01*
X029606Y060525D01*
X030076Y060525D01*
X030076Y060705D01*
X029786Y060995D01*
X029892Y060889D02*
X033718Y060889D01*
X033652Y060730D02*
X030051Y060730D01*
X030076Y060572D02*
X033616Y060572D01*
X033616Y060413D02*
X030076Y060413D01*
X030076Y060475D02*
X029606Y060475D01*
X029606Y060525D01*
X029556Y060525D01*
X029556Y060995D01*
X029376Y060995D01*
X029086Y060705D01*
X029086Y060525D01*
X029556Y060525D01*
X029556Y060475D01*
X029606Y060475D01*
X029606Y060005D01*
X029786Y060005D01*
X030076Y060295D01*
X030076Y060475D01*
X030036Y060255D02*
X033659Y060255D01*
X033724Y060096D02*
X029877Y060096D01*
X029606Y060096D02*
X029556Y060096D01*
X029556Y060005D02*
X029556Y060475D01*
X029086Y060475D01*
X029086Y060295D01*
X029376Y060005D01*
X029556Y060005D01*
X029556Y060255D02*
X029606Y060255D01*
X029606Y060413D02*
X029556Y060413D01*
X029556Y060572D02*
X029606Y060572D01*
X029606Y060730D02*
X029556Y060730D01*
X029556Y060889D02*
X029606Y060889D01*
X029556Y061005D02*
X029556Y061475D01*
X029086Y061475D01*
X029086Y061295D01*
X029376Y061005D01*
X029556Y061005D01*
X029556Y061047D02*
X029606Y061047D01*
X029606Y061206D02*
X029556Y061206D01*
X029556Y061364D02*
X029606Y061364D01*
X029556Y061523D02*
X010168Y061523D01*
X010168Y061681D02*
X029086Y061681D01*
X029221Y061840D02*
X010168Y061840D01*
X010168Y061998D02*
X033818Y061998D01*
X033699Y062157D02*
X029938Y062157D01*
X030076Y062315D02*
X033634Y062315D01*
X033616Y062474D02*
X030076Y062474D01*
X030076Y062632D02*
X033616Y062632D01*
X033677Y062791D02*
X029990Y062791D01*
X029832Y062949D02*
X033769Y062949D01*
X033720Y063108D02*
X029889Y063108D01*
X030047Y063266D02*
X033654Y063266D01*
X033616Y063425D02*
X030076Y063425D01*
X030076Y063583D02*
X033616Y063583D01*
X033657Y063742D02*
X030039Y063742D01*
X029881Y063900D02*
X033723Y063900D01*
X033878Y064059D02*
X029840Y064059D01*
X029998Y064217D02*
X033925Y064217D01*
X033851Y064376D02*
X030076Y064376D01*
X030076Y064534D02*
X033836Y064534D01*
X033874Y064693D02*
X030076Y064693D01*
X029232Y064851D02*
X010168Y064851D01*
X010168Y064693D02*
X029086Y064693D01*
X029086Y064534D02*
X010168Y064534D01*
X010168Y064376D02*
X029086Y064376D01*
X029164Y064217D02*
X010168Y064217D01*
X010168Y064059D02*
X029322Y064059D01*
X029281Y063900D02*
X010168Y063900D01*
X010168Y063742D02*
X029123Y063742D01*
X029086Y063583D02*
X010168Y063583D01*
X010168Y063425D02*
X029086Y063425D01*
X029115Y063266D02*
X010168Y063266D01*
X010168Y063108D02*
X029273Y063108D01*
X029330Y062949D02*
X010168Y062949D01*
X010168Y062791D02*
X029172Y062791D01*
X029086Y062632D02*
X010168Y062632D01*
X010168Y062474D02*
X029086Y062474D01*
X029086Y062315D02*
X010168Y062315D01*
X010168Y062157D02*
X029224Y062157D01*
X029941Y061840D02*
X033698Y061840D01*
X033632Y061681D02*
X030076Y061681D01*
X029334Y061047D02*
X010168Y061047D01*
X010168Y060889D02*
X029270Y060889D01*
X029111Y060730D02*
X010168Y060730D01*
X010168Y060572D02*
X029086Y060572D01*
X029086Y060413D02*
X010168Y060413D01*
X010168Y060255D02*
X029126Y060255D01*
X029285Y060096D02*
X010168Y060096D01*
X010168Y059938D02*
X033757Y059938D01*
X033673Y059779D02*
X010168Y059779D01*
X010168Y059621D02*
X033616Y059621D01*
X033616Y059462D02*
X010168Y059462D01*
X010168Y059304D02*
X033638Y059304D01*
X033704Y059145D02*
X010168Y059145D01*
X010168Y058987D02*
X033806Y058987D01*
X033693Y058828D02*
X010168Y058828D01*
X010168Y058670D02*
X033627Y058670D01*
X033616Y058511D02*
X010168Y058511D01*
X010168Y058353D02*
X033618Y058353D01*
X033684Y058194D02*
X010168Y058194D01*
X010168Y058036D02*
X033784Y058036D01*
X033713Y057877D02*
X010168Y057877D01*
X010168Y057719D02*
X033648Y057719D01*
X033616Y057560D02*
X010168Y057560D01*
X010168Y057402D02*
X033616Y057402D01*
X033663Y057243D02*
X010168Y057243D01*
X010168Y057085D02*
X033735Y057085D01*
X033746Y056926D02*
X010168Y056926D01*
X010168Y056768D02*
X033668Y056768D01*
X033616Y056609D02*
X010168Y056609D01*
X010168Y056451D02*
X033616Y056451D01*
X033643Y056292D02*
X010168Y056292D01*
X010168Y056134D02*
X033709Y056134D01*
X033795Y055975D02*
X010168Y055975D01*
X010168Y055817D02*
X033688Y055817D01*
X033623Y055658D02*
X010168Y055658D01*
X010168Y055500D02*
X033616Y055500D01*
X033623Y055341D02*
X010168Y055341D01*
X010168Y055183D02*
X033689Y055183D01*
X033796Y055024D02*
X010168Y055024D01*
X010168Y054866D02*
X033708Y054866D01*
X033643Y054707D02*
X010168Y054707D01*
X010168Y054549D02*
X033616Y054549D01*
X033616Y054390D02*
X010168Y054390D01*
X010168Y054232D02*
X033668Y054232D01*
X033747Y054073D02*
X010168Y054073D01*
X010168Y053915D02*
X033734Y053915D01*
X033663Y053756D02*
X010168Y053756D01*
X010168Y053598D02*
X033616Y053598D01*
X033616Y053439D02*
X010168Y053439D01*
X010168Y053281D02*
X033648Y053281D01*
X033714Y053122D02*
X010168Y053122D01*
X010168Y052964D02*
X033783Y052964D01*
X033683Y052805D02*
X010168Y052805D01*
X010168Y052647D02*
X033618Y052647D01*
X033616Y052488D02*
X010168Y052488D01*
X010168Y052330D02*
X033628Y052330D01*
X033693Y052171D02*
X010168Y052171D01*
X010168Y052013D02*
X033807Y052013D01*
X033704Y051854D02*
X010168Y051854D01*
X010168Y051696D02*
X033638Y051696D01*
X033616Y051537D02*
X010168Y051537D01*
X010168Y051379D02*
X033616Y051379D01*
X033673Y051220D02*
X010168Y051220D01*
X010168Y051062D02*
X033758Y051062D01*
X033724Y050903D02*
X010168Y050903D01*
X010168Y050745D02*
X033658Y050745D01*
X033616Y050586D02*
X010168Y050586D01*
X010168Y050428D02*
X033616Y050428D01*
X033653Y050269D02*
X010168Y050269D01*
X010168Y050111D02*
X033718Y050111D01*
X033772Y049952D02*
X010168Y049952D01*
X010168Y049794D02*
X033679Y049794D01*
X033616Y049635D02*
X010168Y049635D01*
X010168Y049477D02*
X033616Y049477D01*
X033632Y049318D02*
X010168Y049318D01*
X010168Y049160D02*
X033698Y049160D01*
X033819Y049001D02*
X010168Y049001D01*
X010168Y048843D02*
X033699Y048843D01*
X033633Y048684D02*
X010168Y048684D01*
X010168Y048526D02*
X033616Y048526D01*
X033616Y048367D02*
X010168Y048367D01*
X010168Y048209D02*
X033678Y048209D01*
X033770Y048050D02*
X010168Y048050D01*
X010168Y047892D02*
X033719Y047892D01*
X033654Y047733D02*
X010168Y047733D01*
X010168Y047575D02*
X033616Y047575D01*
X033616Y047416D02*
X010168Y047416D01*
X010168Y047258D02*
X033657Y047258D01*
X033723Y047099D02*
X010168Y047099D01*
X010168Y046941D02*
X025791Y046941D01*
X025920Y046975D02*
X025608Y046892D01*
X025329Y046730D01*
X025101Y046502D01*
X024939Y046223D01*
X024856Y045911D01*
X024856Y045589D01*
X024939Y045277D01*
X025101Y044998D01*
X025329Y044770D01*
X025608Y044608D01*
X025920Y044525D01*
X026242Y044525D01*
X026554Y044608D01*
X026833Y044770D01*
X027061Y044998D01*
X027222Y045277D01*
X027306Y045589D01*
X027306Y045911D01*
X027222Y046223D01*
X027061Y046502D01*
X026833Y046730D01*
X026554Y046892D01*
X026242Y046975D01*
X025920Y046975D01*
X026371Y046941D02*
X033760Y046941D01*
X033674Y046782D02*
X026743Y046782D01*
X026940Y046624D02*
X033616Y046624D01*
X033616Y046465D02*
X027083Y046465D01*
X027174Y046307D02*
X033637Y046307D01*
X033703Y046148D02*
X027243Y046148D01*
X027285Y045990D02*
X033809Y045990D01*
X033694Y045831D02*
X027306Y045831D01*
X027306Y045673D02*
X033629Y045673D01*
X033616Y045514D02*
X027286Y045514D01*
X027243Y045356D02*
X033617Y045356D01*
X033683Y045197D02*
X027176Y045197D01*
X027085Y045039D02*
X033781Y045039D01*
X033714Y044880D02*
X026943Y044880D01*
X026750Y044722D02*
X033649Y044722D01*
X033616Y044563D02*
X026384Y044563D01*
X025778Y044563D02*
X022791Y044563D01*
X022791Y044699D02*
X022937Y044845D01*
X023046Y045108D01*
X023046Y045392D01*
X022937Y045655D01*
X022736Y045856D01*
X022473Y045965D01*
X022189Y045965D01*
X021926Y045856D01*
X021831Y045761D01*
X021736Y045856D01*
X021473Y045965D01*
X021189Y045965D01*
X020926Y045856D01*
X020831Y045761D01*
X020736Y045856D01*
X020473Y045965D01*
X020189Y045965D01*
X019926Y045856D01*
X019831Y045761D01*
X019736Y045856D01*
X019473Y045965D01*
X019189Y045965D01*
X018926Y045856D01*
X018831Y045761D01*
X018736Y045856D01*
X018473Y045965D01*
X018189Y045965D01*
X017926Y045856D01*
X017831Y045761D01*
X017736Y045856D01*
X017473Y045965D01*
X017189Y045965D01*
X016926Y045856D01*
X016831Y045761D01*
X016736Y045856D01*
X016473Y045965D01*
X016189Y045965D01*
X015926Y045856D01*
X015831Y045761D01*
X015736Y045856D01*
X015473Y045965D01*
X015189Y045965D01*
X014926Y045856D01*
X014831Y045761D01*
X014736Y045856D01*
X014473Y045965D01*
X014189Y045965D01*
X013926Y045856D01*
X013831Y045761D01*
X013736Y045856D01*
X013473Y045965D01*
X013189Y045965D01*
X012926Y045856D01*
X012725Y045655D01*
X012616Y045392D01*
X012616Y045108D01*
X012725Y044845D01*
X012871Y044699D01*
X012871Y042801D01*
X012725Y042655D01*
X012616Y042392D01*
X012616Y042108D01*
X012725Y041845D01*
X012926Y041644D01*
X013189Y041535D01*
X013473Y041535D01*
X013736Y041644D01*
X013831Y041739D01*
X013926Y041644D01*
X014189Y041535D01*
X014473Y041535D01*
X014736Y041644D01*
X014831Y041739D01*
X014926Y041644D01*
X015189Y041535D01*
X015473Y041535D01*
X015736Y041644D01*
X015831Y041739D01*
X015926Y041644D01*
X016189Y041535D01*
X016473Y041535D01*
X016736Y041644D01*
X016831Y041739D01*
X016926Y041644D01*
X017189Y041535D01*
X017473Y041535D01*
X017736Y041644D01*
X017831Y041739D01*
X017926Y041644D01*
X018189Y041535D01*
X018473Y041535D01*
X018736Y041644D01*
X018831Y041739D01*
X018926Y041644D01*
X019189Y041535D01*
X019473Y041535D01*
X019736Y041644D01*
X019831Y041739D01*
X019926Y041644D01*
X020189Y041535D01*
X020473Y041535D01*
X020736Y041644D01*
X020831Y041739D01*
X020926Y041644D01*
X021189Y041535D01*
X021473Y041535D01*
X021736Y041644D01*
X021831Y041739D01*
X021926Y041644D01*
X022189Y041535D01*
X022473Y041535D01*
X022736Y041644D01*
X022937Y041845D01*
X023046Y042108D01*
X023046Y042392D01*
X022937Y042655D01*
X022791Y042801D01*
X022791Y044699D01*
X022814Y044722D02*
X025412Y044722D01*
X025218Y044880D02*
X022952Y044880D01*
X023017Y045039D02*
X025077Y045039D01*
X024986Y045197D02*
X023046Y045197D01*
X023046Y045356D02*
X024918Y045356D01*
X024876Y045514D02*
X022995Y045514D01*
X022920Y045673D02*
X024856Y045673D01*
X024856Y045831D02*
X022761Y045831D01*
X021901Y045831D02*
X021761Y045831D01*
X020901Y045831D02*
X020761Y045831D01*
X019901Y045831D02*
X019761Y045831D01*
X018901Y045831D02*
X018761Y045831D01*
X017901Y045831D02*
X017761Y045831D01*
X016901Y045831D02*
X016761Y045831D01*
X015901Y045831D02*
X015761Y045831D01*
X014901Y045831D02*
X014761Y045831D01*
X013901Y045831D02*
X013761Y045831D01*
X012901Y045831D02*
X010806Y045831D01*
X010806Y045673D02*
X012742Y045673D01*
X012666Y045514D02*
X010786Y045514D01*
X010743Y045356D02*
X012616Y045356D01*
X012616Y045197D02*
X010676Y045197D01*
X010585Y045039D02*
X012645Y045039D01*
X012710Y044880D02*
X010443Y044880D01*
X010250Y044722D02*
X012848Y044722D01*
X012871Y044563D02*
X010168Y044563D01*
X010168Y044405D02*
X012871Y044405D01*
X012871Y044246D02*
X010168Y044246D01*
X010168Y044088D02*
X012871Y044088D01*
X012871Y043929D02*
X010168Y043929D01*
X010168Y043771D02*
X012871Y043771D01*
X012871Y043612D02*
X010168Y043612D01*
X010168Y043454D02*
X012871Y043454D01*
X012871Y043295D02*
X010168Y043295D01*
X010168Y043137D02*
X012871Y043137D01*
X012871Y042978D02*
X010168Y042978D01*
X010168Y042820D02*
X012871Y042820D01*
X012731Y042661D02*
X010168Y042661D01*
X010168Y042503D02*
X012662Y042503D01*
X012616Y042344D02*
X010168Y042344D01*
X010168Y042186D02*
X012616Y042186D01*
X012649Y042027D02*
X010168Y042027D01*
X010168Y041869D02*
X012715Y041869D01*
X012860Y041710D02*
X010168Y041710D01*
X010168Y041552D02*
X013149Y041552D01*
X013513Y041552D02*
X014149Y041552D01*
X013860Y041710D02*
X013802Y041710D01*
X014513Y041552D02*
X015149Y041552D01*
X014860Y041710D02*
X014802Y041710D01*
X015513Y041552D02*
X016149Y041552D01*
X015860Y041710D02*
X015802Y041710D01*
X016513Y041552D02*
X017149Y041552D01*
X016860Y041710D02*
X016802Y041710D01*
X017513Y041552D02*
X018149Y041552D01*
X017860Y041710D02*
X017802Y041710D01*
X018513Y041552D02*
X019149Y041552D01*
X018860Y041710D02*
X018802Y041710D01*
X019513Y041552D02*
X020149Y041552D01*
X019860Y041710D02*
X019802Y041710D01*
X020513Y041552D02*
X021149Y041552D01*
X020860Y041710D02*
X020802Y041710D01*
X021513Y041552D02*
X022149Y041552D01*
X021860Y041710D02*
X021802Y041710D01*
X022513Y041552D02*
X029079Y041552D01*
X029126Y041505D02*
X028836Y041795D01*
X028836Y041975D01*
X029306Y041975D01*
X029356Y041975D01*
X029356Y042025D01*
X029826Y042025D01*
X029826Y042205D01*
X029536Y042495D01*
X029356Y042495D01*
X029356Y042025D01*
X029306Y042025D01*
X029306Y042495D01*
X029126Y042495D01*
X028836Y042205D01*
X028836Y042025D01*
X029306Y042025D01*
X029306Y041975D01*
X029306Y041505D01*
X029126Y041505D01*
X029126Y041495D02*
X028836Y041205D01*
X028836Y041025D01*
X029306Y041025D01*
X029306Y041495D01*
X029126Y041495D01*
X029024Y041393D02*
X010168Y041393D01*
X010168Y041235D02*
X028865Y041235D01*
X028836Y041076D02*
X010168Y041076D01*
X010168Y040918D02*
X028836Y040918D01*
X028836Y040975D02*
X028836Y040795D01*
X029126Y040505D01*
X029306Y040505D01*
X029306Y040975D01*
X029356Y040975D01*
X029356Y041025D01*
X029826Y041025D01*
X029826Y041205D01*
X029536Y041495D01*
X029356Y041495D01*
X029356Y041025D01*
X029306Y041025D01*
X029306Y040975D01*
X028836Y040975D01*
X028872Y040759D02*
X010168Y040759D01*
X010168Y040601D02*
X029030Y040601D01*
X029126Y040495D02*
X028836Y040205D01*
X028836Y040025D01*
X029306Y040025D01*
X029306Y040495D01*
X029126Y040495D01*
X029073Y040442D02*
X010168Y040442D01*
X010168Y040284D02*
X028914Y040284D01*
X028836Y040125D02*
X010168Y040125D01*
X010168Y039967D02*
X028836Y039967D01*
X028836Y039975D02*
X028836Y039795D01*
X029126Y039505D01*
X029306Y039505D01*
X029306Y039975D01*
X029356Y039975D01*
X029356Y040025D01*
X029826Y040025D01*
X029826Y040205D01*
X029536Y040495D01*
X029356Y040495D01*
X029356Y040025D01*
X029306Y040025D01*
X029306Y039975D01*
X028836Y039975D01*
X028836Y039808D02*
X010168Y039808D01*
X010168Y039650D02*
X028981Y039650D01*
X029306Y039650D02*
X029356Y039650D01*
X029356Y039505D02*
X029536Y039505D01*
X029826Y039795D01*
X029826Y039975D01*
X029356Y039975D01*
X029356Y039505D01*
X029356Y039808D02*
X029306Y039808D01*
X029306Y039967D02*
X029356Y039967D01*
X029356Y040125D02*
X029306Y040125D01*
X029306Y040284D02*
X029356Y040284D01*
X029356Y040442D02*
X029306Y040442D01*
X029356Y040505D02*
X029536Y040505D01*
X029826Y040795D01*
X029826Y040975D01*
X029356Y040975D01*
X029356Y040505D01*
X029356Y040601D02*
X029306Y040601D01*
X029306Y040759D02*
X029356Y040759D01*
X029356Y040918D02*
X029306Y040918D01*
X029306Y041076D02*
X029356Y041076D01*
X029356Y041235D02*
X029306Y041235D01*
X029306Y041393D02*
X029356Y041393D01*
X029356Y041505D02*
X029536Y041505D01*
X029826Y041795D01*
X029826Y041975D01*
X029356Y041975D01*
X029356Y041505D01*
X029356Y041552D02*
X029306Y041552D01*
X029306Y041710D02*
X029356Y041710D01*
X029356Y041869D02*
X029306Y041869D01*
X029306Y042027D02*
X029356Y042027D01*
X029356Y042186D02*
X029306Y042186D01*
X029306Y042344D02*
X029356Y042344D01*
X029356Y042505D02*
X029536Y042505D01*
X029826Y042795D01*
X029826Y042975D01*
X029356Y042975D01*
X029356Y043025D01*
X029826Y043025D01*
X029826Y043205D01*
X029536Y043495D01*
X029356Y043495D01*
X029356Y043025D01*
X029306Y043025D01*
X029306Y043495D01*
X029126Y043495D01*
X028836Y043205D01*
X028836Y043025D01*
X029306Y043025D01*
X029306Y042975D01*
X029356Y042975D01*
X029356Y042505D01*
X029306Y042505D02*
X029306Y042975D01*
X028836Y042975D01*
X028836Y042795D01*
X029126Y042505D01*
X029306Y042505D01*
X029306Y042661D02*
X029356Y042661D01*
X029356Y042820D02*
X029306Y042820D01*
X029306Y042978D02*
X022791Y042978D01*
X022791Y042820D02*
X028836Y042820D01*
X028970Y042661D02*
X022931Y042661D01*
X023000Y042503D02*
X033616Y042503D01*
X033624Y042661D02*
X029692Y042661D01*
X029826Y042820D02*
X033689Y042820D01*
X033798Y042978D02*
X029356Y042978D01*
X029356Y043137D02*
X029306Y043137D01*
X029306Y043295D02*
X029356Y043295D01*
X029356Y043454D02*
X029306Y043454D01*
X029306Y043505D02*
X029306Y043975D01*
X029356Y043975D01*
X029356Y044025D01*
X029826Y044025D01*
X029826Y044205D01*
X029536Y044495D01*
X029356Y044495D01*
X029356Y044025D01*
X029306Y044025D01*
X029306Y044495D01*
X029126Y044495D01*
X028836Y044205D01*
X028836Y044025D01*
X029306Y044025D01*
X029306Y043975D01*
X028836Y043975D01*
X028836Y043795D01*
X029126Y043505D01*
X029306Y043505D01*
X029356Y043505D02*
X029536Y043505D01*
X029826Y043795D01*
X029826Y043975D01*
X029356Y043975D01*
X029356Y043505D01*
X029356Y043612D02*
X029306Y043612D01*
X029306Y043771D02*
X029356Y043771D01*
X029356Y043929D02*
X029306Y043929D01*
X029306Y044088D02*
X029356Y044088D01*
X029356Y044246D02*
X029306Y044246D01*
X029306Y044405D02*
X029356Y044405D01*
X029626Y044405D02*
X033616Y044405D01*
X033662Y044246D02*
X029785Y044246D01*
X029826Y044088D02*
X033732Y044088D01*
X033749Y043929D02*
X029826Y043929D01*
X029802Y043771D02*
X033669Y043771D01*
X033616Y043612D02*
X029643Y043612D01*
X029577Y043454D02*
X033616Y043454D01*
X033642Y043295D02*
X029736Y043295D01*
X029826Y043137D02*
X033708Y043137D01*
X033622Y042344D02*
X029687Y042344D01*
X029826Y042186D02*
X033687Y042186D01*
X033793Y042027D02*
X029826Y042027D01*
X029826Y041869D02*
X033710Y041869D01*
X033644Y041710D02*
X029741Y041710D01*
X029583Y041552D02*
X033616Y041552D01*
X033616Y041393D02*
X029638Y041393D01*
X029796Y041235D02*
X033667Y041235D01*
X033744Y041076D02*
X029826Y041076D01*
X029826Y040918D02*
X033737Y040918D01*
X033664Y040759D02*
X029790Y040759D01*
X029632Y040601D02*
X033616Y040601D01*
X033616Y040442D02*
X029589Y040442D01*
X029747Y040284D02*
X033647Y040284D01*
X033712Y040125D02*
X029826Y040125D01*
X029826Y039967D02*
X033786Y039967D01*
X033685Y039808D02*
X029826Y039808D01*
X029681Y039650D02*
X033619Y039650D01*
X033616Y039491D02*
X010168Y039491D01*
X010168Y039333D02*
X012011Y039333D01*
X011858Y039292D02*
X011579Y039130D01*
X011351Y038902D01*
X011189Y038623D01*
X011106Y038311D01*
X011106Y037989D01*
X011189Y037677D01*
X011351Y037398D01*
X011579Y037170D01*
X011858Y037008D01*
X012170Y036925D01*
X012492Y036925D01*
X012804Y037008D01*
X013083Y037170D01*
X013311Y037398D01*
X013472Y037677D01*
X013556Y037989D01*
X013556Y038311D01*
X013472Y038623D01*
X013311Y038902D01*
X013083Y039130D01*
X012804Y039292D01*
X012492Y039375D01*
X012170Y039375D01*
X011858Y039292D01*
X011655Y039174D02*
X010168Y039174D01*
X010168Y039016D02*
X011464Y039016D01*
X011325Y038857D02*
X010168Y038857D01*
X010168Y038699D02*
X011233Y038699D01*
X011167Y038540D02*
X010168Y038540D01*
X010168Y038382D02*
X011125Y038382D01*
X011106Y038223D02*
X010168Y038223D01*
X010168Y038065D02*
X011106Y038065D01*
X011128Y037906D02*
X010168Y037906D01*
X010168Y037748D02*
X011171Y037748D01*
X011240Y037589D02*
X010168Y037589D01*
X010197Y037431D02*
X011332Y037431D01*
X011477Y037272D02*
X010208Y037272D01*
X010208Y037114D02*
X011676Y037114D01*
X012058Y036955D02*
X010208Y036955D01*
X010208Y036797D02*
X018680Y036797D01*
X018616Y036638D02*
X010208Y036638D01*
X012604Y036955D02*
X018775Y036955D01*
X018717Y037114D02*
X012986Y037114D01*
X013185Y037272D02*
X018651Y037272D01*
X018616Y037431D02*
X013330Y037431D01*
X013422Y037589D02*
X018616Y037589D01*
X018660Y037748D02*
X013491Y037748D01*
X013534Y037906D02*
X018726Y037906D01*
X018755Y038065D02*
X013556Y038065D01*
X013556Y038223D02*
X018672Y038223D01*
X018616Y038382D02*
X013537Y038382D01*
X013495Y038540D02*
X018616Y038540D01*
X018639Y038699D02*
X013429Y038699D01*
X013337Y038857D02*
X018705Y038857D01*
X018835Y039016D02*
X013198Y039016D01*
X013007Y039174D02*
X019090Y039174D01*
X019572Y039174D02*
X033692Y039174D01*
X033626Y039333D02*
X012651Y039333D01*
X014936Y035687D02*
X028633Y035687D01*
X028791Y035529D02*
X015095Y035529D01*
X015253Y035370D02*
X028690Y035370D01*
X028616Y035212D02*
X015391Y035212D01*
X015456Y035053D02*
X028616Y035053D01*
X028820Y034500D02*
X028820Y034500D01*
X028616Y034296D01*
X028616Y033704D01*
X028820Y033500D01*
X028616Y033296D01*
X028616Y032704D01*
X029035Y032285D01*
X029627Y032285D01*
X030046Y032704D01*
X030046Y033296D01*
X029842Y033500D01*
X030046Y033704D01*
X030046Y034296D01*
X029842Y034500D01*
X032831Y034500D01*
X040581Y042250D01*
X040581Y068500D01*
X060331Y068500D01*
X060331Y035750D01*
X058546Y035750D01*
X058546Y035796D01*
X058127Y036215D01*
X057535Y036215D01*
X057331Y036011D01*
X057311Y036031D01*
X057311Y039469D01*
X057331Y039489D01*
X057426Y039394D01*
X057689Y039285D01*
X057973Y039285D01*
X058236Y039394D01*
X058437Y039595D01*
X058546Y039858D01*
X058546Y040142D01*
X058437Y040405D01*
X058236Y040606D01*
X057973Y040715D01*
X057689Y040715D01*
X057426Y040606D01*
X057331Y040511D01*
X057236Y040606D01*
X056973Y040715D01*
X056689Y040715D01*
X056426Y040606D01*
X056331Y040511D01*
X056236Y040606D01*
X055973Y040715D01*
X055689Y040715D01*
X055426Y040606D01*
X055331Y040511D01*
X055236Y040606D01*
X054973Y040715D01*
X054689Y040715D01*
X054426Y040606D01*
X054225Y040405D01*
X054116Y040142D01*
X054116Y039858D01*
X054225Y039595D01*
X054426Y039394D01*
X054689Y039285D01*
X054973Y039285D01*
X055236Y039394D01*
X055331Y039489D01*
X055426Y039394D01*
X055689Y039285D01*
X055973Y039285D01*
X056236Y039394D01*
X056331Y039489D01*
X056351Y039469D01*
X056351Y036031D01*
X056331Y036011D01*
X056127Y036215D01*
X055535Y036215D01*
X055116Y035796D01*
X055116Y035750D01*
X053546Y035750D01*
X053546Y035796D01*
X053127Y036215D01*
X052535Y036215D01*
X052331Y036011D01*
X052127Y036215D01*
X051535Y036215D01*
X051331Y036011D01*
X051127Y036215D01*
X050535Y036215D01*
X050116Y035796D01*
X050116Y035750D01*
X048581Y035750D01*
X042820Y029989D01*
X042723Y030086D01*
X042484Y030224D01*
X042219Y030295D01*
X041943Y030295D01*
X041678Y030224D01*
X041439Y030086D01*
X041245Y029892D01*
X041107Y029653D01*
X041036Y029388D01*
X041036Y029112D01*
X041107Y028847D01*
X041245Y028608D01*
X041342Y028511D01*
X038831Y026000D01*
X030092Y026000D01*
X030187Y026095D01*
X030246Y026237D01*
X030694Y026386D01*
X030939Y026285D01*
X031223Y026285D01*
X031486Y026394D01*
X031687Y026595D01*
X031796Y026858D01*
X031796Y027142D01*
X031687Y027405D01*
X031486Y027606D01*
X031223Y027715D01*
X030939Y027715D01*
X030676Y027606D01*
X030475Y027405D01*
X030416Y027263D01*
X029968Y027114D01*
X029723Y027215D01*
X029439Y027215D01*
X029176Y027106D01*
X028975Y026905D01*
X028866Y026642D01*
X028866Y026358D01*
X028967Y026114D01*
X028723Y026215D01*
X028439Y026215D01*
X028176Y026106D01*
X028070Y026000D01*
X026046Y026000D01*
X026046Y026142D01*
X025937Y026405D01*
X025842Y026500D01*
X025937Y026595D01*
X026046Y026858D01*
X026046Y027142D01*
X025937Y027405D01*
X025842Y027500D01*
X025937Y027595D01*
X026046Y027858D01*
X026046Y028142D01*
X025937Y028405D01*
X025736Y028606D01*
X025581Y028670D01*
X025581Y030330D01*
X025736Y030394D01*
X025937Y030595D01*
X026046Y030858D01*
X026046Y031142D01*
X025937Y031405D01*
X025842Y031500D01*
X025937Y031595D01*
X026046Y031858D01*
X026046Y032142D01*
X025937Y032405D01*
X025736Y032606D01*
X025581Y032670D01*
X025581Y034500D01*
X028820Y034500D01*
X028739Y034419D02*
X025581Y034419D01*
X025581Y034261D02*
X028616Y034261D01*
X028616Y034102D02*
X025581Y034102D01*
X025581Y033944D02*
X028616Y033944D01*
X028616Y033785D02*
X025581Y033785D01*
X025581Y033627D02*
X028693Y033627D01*
X028788Y033468D02*
X025581Y033468D01*
X025581Y033310D02*
X028629Y033310D01*
X028616Y033151D02*
X025581Y033151D01*
X025581Y032993D02*
X028616Y032993D01*
X028616Y032834D02*
X025581Y032834D01*
X025581Y032676D02*
X028644Y032676D01*
X028803Y032517D02*
X025825Y032517D01*
X025956Y032359D02*
X028961Y032359D01*
X029701Y032359D02*
X035706Y032359D01*
X035725Y032405D02*
X035616Y032142D01*
X035616Y031858D01*
X035725Y031595D01*
X035820Y031500D01*
X035725Y031405D01*
X035616Y031142D01*
X035616Y030858D01*
X035725Y030595D01*
X035820Y030500D01*
X035725Y030405D01*
X035616Y030142D01*
X035616Y029858D01*
X035725Y029595D01*
X035926Y029394D01*
X036189Y029285D01*
X036473Y029285D01*
X036736Y029394D01*
X036882Y029540D01*
X038780Y029540D01*
X038926Y029394D01*
X039189Y029285D01*
X039473Y029285D01*
X039736Y029394D01*
X039937Y029595D01*
X040046Y029858D01*
X040046Y030142D01*
X039937Y030405D01*
X039842Y030500D01*
X039937Y030595D01*
X040046Y030858D01*
X040046Y031142D01*
X039937Y031405D01*
X039842Y031500D01*
X039937Y031595D01*
X040046Y031858D01*
X040046Y032142D01*
X039937Y032405D01*
X039736Y032606D01*
X039473Y032715D01*
X039189Y032715D01*
X038926Y032606D01*
X038780Y032460D01*
X036882Y032460D01*
X036736Y032606D01*
X036473Y032715D01*
X036189Y032715D01*
X035926Y032606D01*
X035725Y032405D01*
X035837Y032517D02*
X029859Y032517D01*
X030018Y032676D02*
X036094Y032676D01*
X036568Y032676D02*
X039094Y032676D01*
X038837Y032517D02*
X036825Y032517D01*
X035640Y032200D02*
X026022Y032200D01*
X026046Y032042D02*
X035616Y032042D01*
X035616Y031883D02*
X026046Y031883D01*
X025991Y031725D02*
X035671Y031725D01*
X035754Y031566D02*
X025908Y031566D01*
X025935Y031408D02*
X035727Y031408D01*
X035660Y031249D02*
X026002Y031249D01*
X026046Y031091D02*
X035616Y031091D01*
X035616Y030932D02*
X026046Y030932D01*
X026011Y030774D02*
X035651Y030774D01*
X035717Y030615D02*
X025945Y030615D01*
X025799Y030457D02*
X029087Y030457D01*
X029126Y030495D02*
X028836Y030205D01*
X028836Y030025D01*
X029306Y030025D01*
X029306Y030495D01*
X029126Y030495D01*
X029306Y030457D02*
X029356Y030457D01*
X029356Y030495D02*
X029536Y030495D01*
X029826Y030205D01*
X029826Y030025D01*
X029356Y030025D01*
X029356Y029975D01*
X029826Y029975D01*
X029826Y029795D01*
X029536Y029505D01*
X029356Y029505D01*
X029356Y029975D01*
X029306Y029975D01*
X029306Y029505D01*
X029126Y029505D01*
X028836Y029795D01*
X028836Y029975D01*
X029306Y029975D01*
X029306Y030025D01*
X029356Y030025D01*
X029356Y030495D01*
X029356Y030298D02*
X029306Y030298D01*
X029306Y030140D02*
X029356Y030140D01*
X029356Y029981D02*
X030306Y029981D01*
X030306Y029975D02*
X029836Y029975D01*
X029836Y029795D01*
X030126Y029505D01*
X030306Y029505D01*
X030306Y029975D01*
X030356Y029975D01*
X030356Y030025D01*
X030826Y030025D01*
X030826Y030205D01*
X030536Y030495D01*
X030356Y030495D01*
X030356Y030025D01*
X030306Y030025D01*
X030306Y030495D01*
X030126Y030495D01*
X029836Y030205D01*
X029836Y030025D01*
X030306Y030025D01*
X030306Y029975D01*
X030356Y029975D02*
X030356Y029505D01*
X030536Y029505D01*
X030826Y029795D01*
X030826Y029975D01*
X030356Y029975D01*
X030356Y029981D02*
X031306Y029981D01*
X031306Y029975D02*
X030836Y029975D01*
X030836Y029795D01*
X031126Y029505D01*
X031306Y029505D01*
X031306Y029975D01*
X031356Y029975D01*
X031356Y030025D01*
X031826Y030025D01*
X031826Y030205D01*
X031536Y030495D01*
X031356Y030495D01*
X031356Y030025D01*
X031306Y030025D01*
X031306Y030495D01*
X031126Y030495D01*
X030836Y030205D01*
X030836Y030025D01*
X031306Y030025D01*
X031306Y029975D01*
X031356Y029975D02*
X031356Y029505D01*
X031536Y029505D01*
X031826Y029795D01*
X031826Y029975D01*
X031356Y029975D01*
X031356Y029981D02*
X032306Y029981D01*
X032306Y029975D02*
X031836Y029975D01*
X031836Y029795D01*
X032126Y029505D01*
X032306Y029505D01*
X032306Y029975D01*
X032356Y029975D01*
X032356Y030025D01*
X032826Y030025D01*
X032826Y030205D01*
X032536Y030495D01*
X032356Y030495D01*
X032356Y030025D01*
X032306Y030025D01*
X032306Y030495D01*
X032126Y030495D01*
X031836Y030205D01*
X031836Y030025D01*
X032306Y030025D01*
X032306Y029975D01*
X032356Y029975D02*
X032356Y029505D01*
X032536Y029505D01*
X032826Y029795D01*
X032826Y029975D01*
X032356Y029975D01*
X032356Y029981D02*
X033306Y029981D01*
X033306Y029975D02*
X032836Y029975D01*
X032836Y029795D01*
X033126Y029505D01*
X033306Y029505D01*
X033306Y029975D01*
X033356Y029975D01*
X033356Y030025D01*
X033826Y030025D01*
X033826Y030205D01*
X033536Y030495D01*
X033356Y030495D01*
X033356Y030025D01*
X033306Y030025D01*
X033306Y030495D01*
X033126Y030495D01*
X032836Y030205D01*
X032836Y030025D01*
X033306Y030025D01*
X033306Y029975D01*
X033356Y029975D02*
X033356Y029505D01*
X033536Y029505D01*
X033826Y029795D01*
X033826Y029975D01*
X033356Y029975D01*
X033356Y029981D02*
X035616Y029981D01*
X035616Y030140D02*
X033826Y030140D01*
X033733Y030298D02*
X035681Y030298D01*
X035776Y030457D02*
X033574Y030457D01*
X033356Y030457D02*
X033306Y030457D01*
X033306Y030298D02*
X033356Y030298D01*
X033356Y030140D02*
X033306Y030140D01*
X033306Y029823D02*
X033356Y029823D01*
X033356Y029664D02*
X033306Y029664D01*
X033306Y029506D02*
X033356Y029506D01*
X033537Y029506D02*
X035814Y029506D01*
X035696Y029664D02*
X033695Y029664D01*
X033826Y029823D02*
X035631Y029823D01*
X036039Y029347D02*
X025581Y029347D01*
X025581Y029189D02*
X041036Y029189D01*
X041036Y029347D02*
X039623Y029347D01*
X039848Y029506D02*
X041068Y029506D01*
X041113Y029664D02*
X039966Y029664D01*
X040031Y029823D02*
X041205Y029823D01*
X041334Y029981D02*
X040046Y029981D01*
X040046Y030140D02*
X041532Y030140D01*
X042630Y030140D02*
X042971Y030140D01*
X043129Y030298D02*
X039981Y030298D01*
X039886Y030457D02*
X043288Y030457D01*
X043446Y030615D02*
X039945Y030615D01*
X040011Y030774D02*
X043605Y030774D01*
X043763Y030932D02*
X040046Y030932D01*
X040046Y031091D02*
X043922Y031091D01*
X044080Y031249D02*
X040002Y031249D01*
X039935Y031408D02*
X044239Y031408D01*
X044397Y031566D02*
X039908Y031566D01*
X039991Y031725D02*
X041870Y031725D01*
X041943Y031705D02*
X042219Y031705D01*
X042484Y031776D01*
X042723Y031914D01*
X042917Y032108D01*
X043055Y032347D01*
X043126Y032612D01*
X043126Y032888D01*
X043055Y033153D01*
X042917Y033392D01*
X042723Y033586D01*
X042484Y033724D01*
X042219Y033795D01*
X041943Y033795D01*
X041678Y033724D01*
X041439Y033586D01*
X041245Y033392D01*
X041107Y033153D01*
X041036Y032888D01*
X041036Y032612D01*
X041107Y032347D01*
X041245Y032108D01*
X041439Y031914D01*
X041678Y031776D01*
X041943Y031705D01*
X042292Y031725D02*
X044556Y031725D01*
X044714Y031883D02*
X042669Y031883D01*
X042850Y032042D02*
X044873Y032042D01*
X045031Y032200D02*
X042970Y032200D01*
X043058Y032359D02*
X045190Y032359D01*
X045348Y032517D02*
X043100Y032517D01*
X043126Y032676D02*
X045507Y032676D01*
X045665Y032834D02*
X043126Y032834D01*
X043098Y032993D02*
X045824Y032993D01*
X045982Y033151D02*
X043055Y033151D01*
X042965Y033310D02*
X046141Y033310D01*
X046299Y033468D02*
X042841Y033468D01*
X042653Y033627D02*
X046458Y033627D01*
X046616Y033785D02*
X042256Y033785D01*
X041906Y033785D02*
X030046Y033785D01*
X030046Y033944D02*
X046775Y033944D01*
X046933Y034102D02*
X030046Y034102D01*
X030046Y034261D02*
X047092Y034261D01*
X047250Y034419D02*
X029923Y034419D01*
X029842Y034500D02*
X029842Y034500D01*
X030046Y035053D02*
X032634Y035053D01*
X032793Y035212D02*
X030046Y035212D01*
X029972Y035370D02*
X032951Y035370D01*
X033110Y035529D02*
X029871Y035529D01*
X030029Y035687D02*
X033268Y035687D01*
X033427Y035846D02*
X030046Y035846D01*
X030046Y036004D02*
X033585Y036004D01*
X033744Y036163D02*
X030046Y036163D01*
X030021Y036321D02*
X033902Y036321D01*
X034061Y036480D02*
X029863Y036480D01*
X029980Y036638D02*
X034219Y036638D01*
X034378Y036797D02*
X030046Y036797D01*
X030046Y036955D02*
X034536Y036955D01*
X034695Y037114D02*
X030046Y037114D01*
X030046Y037272D02*
X034853Y037272D01*
X035012Y037431D02*
X029912Y037431D01*
X029753Y037589D02*
X035170Y037589D01*
X035603Y037272D02*
X037651Y037272D01*
X037616Y037358D02*
X037725Y037095D01*
X037926Y036894D01*
X038189Y036785D01*
X038473Y036785D01*
X038736Y036894D01*
X038831Y036989D01*
X038926Y036894D01*
X039189Y036785D01*
X039473Y036785D01*
X039736Y036894D01*
X039831Y036989D01*
X039926Y036894D01*
X040189Y036785D01*
X040473Y036785D01*
X040736Y036894D01*
X040831Y036989D01*
X040926Y036894D01*
X041189Y036785D01*
X041473Y036785D01*
X041736Y036894D01*
X041831Y036989D01*
X041926Y036894D01*
X042189Y036785D01*
X042473Y036785D01*
X042736Y036894D01*
X042831Y036989D01*
X042926Y036894D01*
X043189Y036785D01*
X043473Y036785D01*
X043736Y036894D01*
X043937Y037095D01*
X044046Y037358D01*
X044046Y037642D01*
X043937Y037905D01*
X043736Y038106D01*
X043473Y038215D01*
X043189Y038215D01*
X042926Y038106D01*
X042831Y038011D01*
X042736Y038106D01*
X042473Y038215D01*
X042189Y038215D01*
X041926Y038106D01*
X041831Y038011D01*
X041736Y038106D01*
X041473Y038215D01*
X041189Y038215D01*
X040926Y038106D01*
X040831Y038011D01*
X040736Y038106D01*
X040473Y038215D01*
X040189Y038215D01*
X039926Y038106D01*
X039831Y038011D01*
X039736Y038106D01*
X039473Y038215D01*
X039189Y038215D01*
X038926Y038106D01*
X038831Y038011D01*
X038736Y038106D01*
X038473Y038215D01*
X038189Y038215D01*
X037926Y038106D01*
X037725Y037905D01*
X037616Y037642D01*
X037616Y037358D01*
X037616Y037431D02*
X035762Y037431D01*
X035920Y037589D02*
X037616Y037589D01*
X037660Y037748D02*
X036079Y037748D01*
X036237Y037906D02*
X037726Y037906D01*
X037884Y038065D02*
X036396Y038065D01*
X036554Y038223D02*
X056351Y038223D01*
X056351Y038065D02*
X043778Y038065D01*
X043936Y037906D02*
X056351Y037906D01*
X056351Y037748D02*
X044002Y037748D01*
X044046Y037589D02*
X056351Y037589D01*
X056351Y037431D02*
X044046Y037431D01*
X044010Y037272D02*
X056351Y037272D01*
X056351Y037114D02*
X043945Y037114D01*
X043797Y036955D02*
X056351Y036955D01*
X056351Y036797D02*
X043501Y036797D01*
X043161Y036797D02*
X042501Y036797D01*
X042797Y036955D02*
X042865Y036955D01*
X042161Y036797D02*
X041501Y036797D01*
X041797Y036955D02*
X041865Y036955D01*
X041161Y036797D02*
X040501Y036797D01*
X040797Y036955D02*
X040865Y036955D01*
X040161Y036797D02*
X039501Y036797D01*
X039797Y036955D02*
X039865Y036955D01*
X039161Y036797D02*
X038501Y036797D01*
X038797Y036955D02*
X038865Y036955D01*
X038161Y036797D02*
X035128Y036797D01*
X035286Y036955D02*
X037865Y036955D01*
X037717Y037114D02*
X035445Y037114D01*
X034969Y036638D02*
X056351Y036638D01*
X056351Y036480D02*
X034811Y036480D01*
X034652Y036321D02*
X056351Y036321D01*
X056351Y036163D02*
X056180Y036163D01*
X055482Y036163D02*
X053180Y036163D01*
X053338Y036004D02*
X055324Y036004D01*
X055165Y035846D02*
X053497Y035846D01*
X053546Y035212D02*
X054899Y035212D01*
X054851Y035053D02*
X053395Y035053D01*
X053237Y034895D02*
X054851Y034895D01*
X054851Y034736D02*
X048317Y034736D01*
X048159Y034578D02*
X054851Y034578D01*
X054851Y034419D02*
X048000Y034419D01*
X047842Y034261D02*
X054851Y034261D01*
X054851Y034102D02*
X047683Y034102D01*
X047525Y033944D02*
X051375Y033944D01*
X051428Y033974D02*
X051189Y033836D01*
X050995Y033642D01*
X050857Y033403D01*
X050786Y033138D01*
X050786Y032862D01*
X050857Y032597D01*
X050995Y032358D01*
X051189Y032164D01*
X051428Y032026D01*
X051693Y031955D01*
X051969Y031955D01*
X052234Y032026D01*
X052473Y032164D01*
X052667Y032358D01*
X052805Y032597D01*
X052876Y032862D01*
X052876Y033138D01*
X052805Y033403D01*
X052667Y033642D01*
X052473Y033836D01*
X052234Y033974D01*
X051969Y034045D01*
X051693Y034045D01*
X051428Y033974D01*
X051138Y033785D02*
X047366Y033785D01*
X047208Y033627D02*
X050986Y033627D01*
X050895Y033468D02*
X047049Y033468D01*
X046891Y033310D02*
X050832Y033310D01*
X050790Y033151D02*
X046732Y033151D01*
X046574Y032993D02*
X050786Y032993D01*
X050794Y032834D02*
X046415Y032834D01*
X046257Y032676D02*
X050836Y032676D01*
X050903Y032517D02*
X046098Y032517D01*
X045940Y032359D02*
X050995Y032359D01*
X051153Y032200D02*
X045781Y032200D01*
X045623Y032042D02*
X051401Y032042D01*
X052261Y032042D02*
X054851Y032042D01*
X054851Y032200D02*
X052509Y032200D01*
X052667Y032359D02*
X054851Y032359D01*
X054851Y032517D02*
X052759Y032517D01*
X052826Y032676D02*
X054851Y032676D01*
X054851Y032834D02*
X052868Y032834D01*
X052876Y032993D02*
X054851Y032993D01*
X054851Y033151D02*
X052872Y033151D01*
X052830Y033310D02*
X054851Y033310D01*
X054851Y033468D02*
X052767Y033468D01*
X052676Y033627D02*
X054851Y033627D01*
X054851Y033785D02*
X052524Y033785D01*
X052287Y033944D02*
X054851Y033944D01*
X055331Y035000D02*
X055831Y035500D01*
X056831Y035500D01*
X056831Y040000D01*
X057242Y040601D02*
X057420Y040601D01*
X058242Y040601D02*
X060331Y040601D01*
X060331Y040759D02*
X052296Y040759D01*
X052296Y040704D02*
X052296Y041296D01*
X052092Y041500D01*
X052296Y041704D01*
X052296Y042296D01*
X052092Y042500D01*
X052296Y042704D01*
X052296Y043296D01*
X052092Y043500D01*
X052296Y043704D01*
X052296Y044296D01*
X052092Y044500D01*
X052296Y044704D01*
X052296Y045296D01*
X052092Y045500D01*
X052296Y045704D01*
X052296Y046296D01*
X052092Y046500D01*
X052296Y046704D01*
X052296Y047296D01*
X052092Y047500D01*
X052296Y047704D01*
X052296Y048296D01*
X052092Y048500D01*
X052296Y048704D01*
X052296Y049296D01*
X052092Y049500D01*
X052296Y049704D01*
X052296Y050296D01*
X052092Y050500D01*
X052296Y050704D01*
X052296Y051296D01*
X052092Y051500D01*
X052296Y051704D01*
X052296Y052296D01*
X052092Y052500D01*
X052296Y052704D01*
X052296Y053296D01*
X052092Y053500D01*
X052296Y053704D01*
X052296Y054296D01*
X051877Y054715D01*
X051285Y054715D01*
X050866Y054296D01*
X050866Y053704D01*
X051070Y053500D01*
X050866Y053296D01*
X050866Y052704D01*
X051070Y052500D01*
X050866Y052296D01*
X050866Y051704D01*
X051070Y051500D01*
X050866Y051296D01*
X050866Y050704D01*
X051070Y050500D01*
X050866Y050296D01*
X050866Y049704D01*
X051070Y049500D01*
X050866Y049296D01*
X050866Y048704D01*
X051070Y048500D01*
X050866Y048296D01*
X050866Y047704D01*
X051070Y047500D01*
X050866Y047296D01*
X050866Y046704D01*
X051070Y046500D01*
X050866Y046296D01*
X050866Y045704D01*
X051070Y045500D01*
X050866Y045296D01*
X050866Y044704D01*
X051070Y044500D01*
X050866Y044296D01*
X050866Y043704D01*
X051070Y043500D01*
X050866Y043296D01*
X050866Y042704D01*
X051070Y042500D01*
X050866Y042296D01*
X050866Y041704D01*
X051070Y041500D01*
X050866Y041296D01*
X050866Y040704D01*
X051070Y040500D01*
X050866Y040296D01*
X050866Y039704D01*
X051070Y039500D01*
X050866Y039296D01*
X050866Y038704D01*
X051285Y038285D01*
X051877Y038285D01*
X052296Y038704D01*
X052296Y039296D01*
X052092Y039500D01*
X052296Y039704D01*
X052296Y040296D01*
X052092Y040500D01*
X052296Y040704D01*
X052193Y040601D02*
X054420Y040601D01*
X054262Y040442D02*
X052150Y040442D01*
X052296Y040284D02*
X054175Y040284D01*
X054116Y040125D02*
X052296Y040125D01*
X052296Y039967D02*
X054116Y039967D01*
X054137Y039808D02*
X052296Y039808D01*
X052242Y039650D02*
X054202Y039650D01*
X054329Y039491D02*
X052101Y039491D01*
X052260Y039333D02*
X054574Y039333D01*
X055088Y039333D02*
X055574Y039333D01*
X056088Y039333D02*
X056351Y039333D01*
X056351Y039174D02*
X052296Y039174D01*
X052296Y039016D02*
X056351Y039016D01*
X056351Y038857D02*
X052296Y038857D01*
X052291Y038699D02*
X056351Y038699D01*
X056351Y038540D02*
X052132Y038540D01*
X051974Y038382D02*
X056351Y038382D01*
X057311Y038382D02*
X060331Y038382D01*
X060331Y038540D02*
X057311Y038540D01*
X057311Y038699D02*
X060331Y038699D01*
X060331Y038857D02*
X057311Y038857D01*
X057311Y039016D02*
X060331Y039016D01*
X060331Y039174D02*
X057311Y039174D01*
X057311Y039333D02*
X057574Y039333D01*
X058088Y039333D02*
X060331Y039333D01*
X060331Y039491D02*
X058333Y039491D01*
X058460Y039650D02*
X060331Y039650D01*
X060331Y039808D02*
X058525Y039808D01*
X058546Y039967D02*
X060331Y039967D01*
X060331Y040125D02*
X058546Y040125D01*
X058487Y040284D02*
X060331Y040284D01*
X060331Y040442D02*
X058400Y040442D01*
X060331Y040918D02*
X052296Y040918D01*
X052296Y041076D02*
X060331Y041076D01*
X060331Y041235D02*
X052296Y041235D01*
X052199Y041393D02*
X060331Y041393D01*
X060331Y041552D02*
X052144Y041552D01*
X052296Y041710D02*
X060331Y041710D01*
X060331Y041869D02*
X052296Y041869D01*
X052296Y042027D02*
X060331Y042027D01*
X060331Y042186D02*
X052296Y042186D01*
X052248Y042344D02*
X060331Y042344D01*
X060331Y042503D02*
X052095Y042503D01*
X052253Y042661D02*
X060331Y042661D01*
X060331Y042820D02*
X052296Y042820D01*
X052296Y042978D02*
X060331Y042978D01*
X060331Y043137D02*
X052296Y043137D01*
X052296Y043295D02*
X060331Y043295D01*
X060331Y043454D02*
X052139Y043454D01*
X052204Y043612D02*
X060331Y043612D01*
X060331Y043771D02*
X052296Y043771D01*
X052296Y043929D02*
X060331Y043929D01*
X060331Y044088D02*
X052296Y044088D01*
X052296Y044246D02*
X060331Y044246D01*
X060331Y044405D02*
X052188Y044405D01*
X052155Y044563D02*
X060331Y044563D01*
X060331Y044722D02*
X052296Y044722D01*
X052296Y044880D02*
X060331Y044880D01*
X060331Y045039D02*
X052296Y045039D01*
X052296Y045197D02*
X060331Y045197D01*
X060331Y045356D02*
X052237Y045356D01*
X052106Y045514D02*
X060331Y045514D01*
X060331Y045673D02*
X052265Y045673D01*
X052296Y045831D02*
X060331Y045831D01*
X060331Y045990D02*
X052296Y045990D01*
X052296Y046148D02*
X060331Y046148D01*
X060331Y046307D02*
X052286Y046307D01*
X052127Y046465D02*
X060331Y046465D01*
X060331Y046624D02*
X052216Y046624D01*
X052296Y046782D02*
X060331Y046782D01*
X060331Y046941D02*
X052296Y046941D01*
X052296Y047099D02*
X060331Y047099D01*
X060331Y047258D02*
X052296Y047258D01*
X052176Y047416D02*
X060331Y047416D01*
X060331Y047575D02*
X052167Y047575D01*
X052296Y047733D02*
X060331Y047733D01*
X060331Y047892D02*
X052296Y047892D01*
X052296Y048050D02*
X060331Y048050D01*
X060331Y048209D02*
X052296Y048209D01*
X052225Y048367D02*
X060331Y048367D01*
X060331Y048526D02*
X052118Y048526D01*
X052276Y048684D02*
X060331Y048684D01*
X060331Y048843D02*
X052296Y048843D01*
X052296Y049001D02*
X060331Y049001D01*
X060331Y049160D02*
X052296Y049160D01*
X052274Y049318D02*
X060331Y049318D01*
X060331Y049477D02*
X052116Y049477D01*
X052227Y049635D02*
X060331Y049635D01*
X060331Y049794D02*
X052296Y049794D01*
X052296Y049952D02*
X060331Y049952D01*
X060331Y050111D02*
X052296Y050111D01*
X052296Y050269D02*
X060331Y050269D01*
X060331Y050428D02*
X052165Y050428D01*
X052178Y050586D02*
X060331Y050586D01*
X060331Y050745D02*
X052296Y050745D01*
X052296Y050903D02*
X060331Y050903D01*
X060331Y051062D02*
X052296Y051062D01*
X052296Y051220D02*
X060331Y051220D01*
X060331Y051379D02*
X052214Y051379D01*
X052129Y051537D02*
X060331Y051537D01*
X060331Y051696D02*
X052288Y051696D01*
X052296Y051854D02*
X060331Y051854D01*
X060331Y052013D02*
X052296Y052013D01*
X052296Y052171D02*
X060331Y052171D01*
X060331Y052330D02*
X058081Y052330D01*
X057973Y052285D02*
X058236Y052394D01*
X058437Y052595D01*
X058546Y052858D01*
X058546Y053142D01*
X058437Y053405D01*
X058311Y053531D01*
X058311Y055969D01*
X058437Y056095D01*
X058546Y056358D01*
X058546Y056642D01*
X058437Y056905D01*
X058236Y057106D01*
X057973Y057215D01*
X057689Y057215D01*
X057426Y057106D01*
X057331Y057011D01*
X057236Y057106D01*
X056973Y057215D01*
X056689Y057215D01*
X056426Y057106D01*
X056331Y057011D01*
X056236Y057106D01*
X055973Y057215D01*
X055689Y057215D01*
X055426Y057106D01*
X055331Y057011D01*
X055236Y057106D01*
X054973Y057215D01*
X054689Y057215D01*
X054426Y057106D01*
X054225Y056905D01*
X054116Y056642D01*
X054116Y056358D01*
X054225Y056095D01*
X054426Y055894D01*
X054689Y055785D01*
X054973Y055785D01*
X055236Y055894D01*
X055331Y055989D01*
X055426Y055894D01*
X055689Y055785D01*
X055973Y055785D01*
X056236Y055894D01*
X056331Y055989D01*
X056426Y055894D01*
X056689Y055785D01*
X056973Y055785D01*
X057236Y055894D01*
X057331Y055989D01*
X057351Y055969D01*
X057351Y053531D01*
X057331Y053511D01*
X057236Y053606D01*
X056973Y053715D01*
X056689Y053715D01*
X056426Y053606D01*
X056331Y053511D01*
X056236Y053606D01*
X055973Y053715D01*
X055689Y053715D01*
X055426Y053606D01*
X055331Y053511D01*
X055236Y053606D01*
X054973Y053715D01*
X054689Y053715D01*
X054426Y053606D01*
X054225Y053405D01*
X054116Y053142D01*
X054116Y052858D01*
X054225Y052595D01*
X054426Y052394D01*
X054689Y052285D01*
X054973Y052285D01*
X055236Y052394D01*
X055331Y052489D01*
X055426Y052394D01*
X055689Y052285D01*
X055973Y052285D01*
X056236Y052394D01*
X056331Y052489D01*
X056426Y052394D01*
X056689Y052285D01*
X056973Y052285D01*
X057236Y052394D01*
X057331Y052489D01*
X057426Y052394D01*
X057689Y052285D01*
X057973Y052285D01*
X057581Y052330D02*
X057081Y052330D01*
X057330Y052488D02*
X057332Y052488D01*
X057831Y053000D02*
X056831Y053000D01*
X056332Y052488D02*
X056330Y052488D01*
X056081Y052330D02*
X056581Y052330D01*
X055581Y052330D02*
X055081Y052330D01*
X055330Y052488D02*
X055332Y052488D01*
X054581Y052330D02*
X052263Y052330D01*
X052104Y052488D02*
X054332Y052488D01*
X054203Y052647D02*
X052239Y052647D01*
X052296Y052805D02*
X054138Y052805D01*
X054116Y052964D02*
X052296Y052964D01*
X052296Y053122D02*
X054116Y053122D01*
X054173Y053281D02*
X052296Y053281D01*
X052153Y053439D02*
X054259Y053439D01*
X054417Y053598D02*
X052190Y053598D01*
X052296Y053756D02*
X057351Y053756D01*
X057351Y053598D02*
X057245Y053598D01*
X057351Y053915D02*
X052296Y053915D01*
X052296Y054073D02*
X057351Y054073D01*
X057351Y054232D02*
X052296Y054232D01*
X052202Y054390D02*
X057351Y054390D01*
X057351Y054549D02*
X052044Y054549D01*
X051885Y054707D02*
X057351Y054707D01*
X057351Y054866D02*
X046953Y054866D01*
X046937Y054905D02*
X046842Y055000D01*
X046937Y055095D01*
X047046Y055358D01*
X047046Y055642D01*
X046937Y055905D01*
X046842Y056000D01*
X046937Y056095D01*
X047046Y056358D01*
X047046Y056642D01*
X046937Y056905D01*
X046842Y057000D01*
X046937Y057095D01*
X047046Y057358D01*
X047046Y057642D01*
X046937Y057905D01*
X046842Y058000D01*
X046937Y058095D01*
X047046Y058358D01*
X047046Y058642D01*
X046937Y058905D01*
X046842Y059000D01*
X046937Y059095D01*
X047046Y059358D01*
X047046Y059642D01*
X046937Y059905D01*
X046842Y060000D01*
X046937Y060095D01*
X047046Y060358D01*
X047046Y060642D01*
X046937Y060905D01*
X046842Y061000D01*
X046937Y061095D01*
X047046Y061358D01*
X047046Y061642D01*
X046937Y061905D01*
X046842Y062000D01*
X046937Y062095D01*
X047046Y062358D01*
X047046Y062642D01*
X046937Y062905D01*
X046842Y063000D01*
X046937Y063095D01*
X047046Y063358D01*
X047046Y063642D01*
X046937Y063905D01*
X046736Y064106D01*
X046666Y064135D01*
X046709Y064178D01*
X046754Y064241D01*
X046790Y064310D01*
X046814Y064384D01*
X046826Y064461D01*
X046826Y064475D01*
X046356Y064475D01*
X046356Y064525D01*
X046826Y064525D01*
X046826Y064539D01*
X046814Y064616D01*
X046790Y064690D01*
X046754Y064759D01*
X046709Y064822D01*
X046666Y064865D01*
X046736Y064894D01*
X046937Y065095D01*
X047046Y065358D01*
X047046Y065642D01*
X046937Y065905D01*
X046842Y066000D01*
X046937Y066095D01*
X047046Y066358D01*
X047046Y066642D01*
X046937Y066905D01*
X046736Y067106D01*
X046473Y067215D01*
X046189Y067215D01*
X045926Y067106D01*
X045725Y066905D01*
X045616Y066642D01*
X045616Y066358D01*
X045725Y066095D01*
X045820Y066000D01*
X045725Y065905D01*
X045616Y065642D01*
X045616Y065358D01*
X045725Y065095D01*
X045926Y064894D01*
X045996Y064865D01*
X045953Y064822D01*
X045908Y064759D01*
X045872Y064690D01*
X045848Y064616D01*
X045836Y064539D01*
X045836Y064525D01*
X046306Y064525D01*
X046306Y064475D01*
X045836Y064475D01*
X045836Y064461D01*
X045848Y064384D01*
X045872Y064310D01*
X045908Y064241D01*
X045953Y064178D01*
X045996Y064135D01*
X045926Y064106D01*
X045725Y063905D01*
X045616Y063642D01*
X045616Y063358D01*
X045725Y063095D01*
X045820Y063000D01*
X045725Y062905D01*
X045616Y062642D01*
X045616Y062358D01*
X045725Y062095D01*
X045820Y062000D01*
X045725Y061905D01*
X045616Y061642D01*
X045616Y061358D01*
X045725Y061095D01*
X045820Y061000D01*
X045725Y060905D01*
X045616Y060642D01*
X045616Y060358D01*
X045725Y060095D01*
X045820Y060000D01*
X045725Y059905D01*
X045616Y059642D01*
X045616Y059358D01*
X045725Y059095D01*
X045820Y059000D01*
X045725Y058905D01*
X045616Y058642D01*
X045616Y058358D01*
X045725Y058095D01*
X045820Y058000D01*
X045725Y057905D01*
X045616Y057642D01*
X045616Y057358D01*
X045725Y057095D01*
X045820Y057000D01*
X045725Y056905D01*
X045616Y056642D01*
X045616Y056358D01*
X045725Y056095D01*
X045820Y056000D01*
X045725Y055905D01*
X045616Y055642D01*
X045616Y055358D01*
X045725Y055095D01*
X045820Y055000D01*
X045725Y054905D01*
X045616Y054642D01*
X045616Y054358D01*
X045725Y054095D01*
X045820Y054000D01*
X045725Y053905D01*
X045616Y053642D01*
X045616Y053358D01*
X045725Y053095D01*
X045820Y053000D01*
X045725Y052905D01*
X045616Y052642D01*
X045616Y052358D01*
X045725Y052095D01*
X045820Y052000D01*
X045725Y051905D01*
X045616Y051642D01*
X045616Y051358D01*
X045725Y051095D01*
X045820Y051000D01*
X045725Y050905D01*
X045616Y050642D01*
X045616Y050358D01*
X045725Y050095D01*
X045820Y050000D01*
X045725Y049905D01*
X045616Y049642D01*
X045616Y049358D01*
X045725Y049095D01*
X045820Y049000D01*
X045725Y048905D01*
X045616Y048642D01*
X045616Y048358D01*
X045725Y048095D01*
X045820Y048000D01*
X045725Y047905D01*
X045616Y047642D01*
X045616Y047358D01*
X045725Y047095D01*
X045820Y047000D01*
X045725Y046905D01*
X045616Y046642D01*
X045616Y046358D01*
X045725Y046095D01*
X045820Y046000D01*
X045725Y045905D01*
X045616Y045642D01*
X045616Y045358D01*
X045725Y045095D01*
X045820Y045000D01*
X045725Y044905D01*
X045616Y044642D01*
X045616Y044358D01*
X045725Y044095D01*
X045820Y044000D01*
X045725Y043905D01*
X045616Y043642D01*
X045616Y043358D01*
X045725Y043095D01*
X045820Y043000D01*
X045725Y042905D01*
X045616Y042642D01*
X045616Y042358D01*
X045725Y042095D01*
X045820Y042000D01*
X045725Y041905D01*
X045616Y041642D01*
X045616Y041358D01*
X045725Y041095D01*
X045820Y041000D01*
X045725Y040905D01*
X045616Y040642D01*
X045616Y040358D01*
X045725Y040095D01*
X045820Y040000D01*
X045725Y039905D01*
X045616Y039642D01*
X045616Y039358D01*
X045725Y039095D01*
X045926Y038894D01*
X046189Y038785D01*
X046473Y038785D01*
X046736Y038894D01*
X046937Y039095D01*
X047046Y039358D01*
X047046Y039642D01*
X046937Y039905D01*
X046842Y040000D01*
X046937Y040095D01*
X047046Y040358D01*
X047046Y040642D01*
X046937Y040905D01*
X046842Y041000D01*
X046937Y041095D01*
X047046Y041358D01*
X047046Y041642D01*
X046937Y041905D01*
X046842Y042000D01*
X046937Y042095D01*
X047046Y042358D01*
X047046Y042642D01*
X046937Y042905D01*
X046842Y043000D01*
X046937Y043095D01*
X047046Y043358D01*
X047046Y043642D01*
X046937Y043905D01*
X046842Y044000D01*
X046937Y044095D01*
X047046Y044358D01*
X047046Y044642D01*
X046937Y044905D01*
X046842Y045000D01*
X046937Y045095D01*
X047046Y045358D01*
X047046Y045642D01*
X046937Y045905D01*
X046842Y046000D01*
X046937Y046095D01*
X047046Y046358D01*
X047046Y046642D01*
X046937Y046905D01*
X046842Y047000D01*
X046937Y047095D01*
X047046Y047358D01*
X047046Y047642D01*
X046937Y047905D01*
X046842Y048000D01*
X046937Y048095D01*
X047046Y048358D01*
X047046Y048642D01*
X046937Y048905D01*
X046842Y049000D01*
X046937Y049095D01*
X047046Y049358D01*
X047046Y049642D01*
X046937Y049905D01*
X046842Y050000D01*
X046937Y050095D01*
X047046Y050358D01*
X047046Y050642D01*
X046937Y050905D01*
X046842Y051000D01*
X046937Y051095D01*
X047046Y051358D01*
X047046Y051642D01*
X046937Y051905D01*
X046842Y052000D01*
X046937Y052095D01*
X047046Y052358D01*
X047046Y052642D01*
X046937Y052905D01*
X046842Y053000D01*
X046937Y053095D01*
X047046Y053358D01*
X047046Y053642D01*
X046937Y053905D01*
X046842Y054000D01*
X046937Y054095D01*
X047046Y054358D01*
X047046Y054642D01*
X046937Y054905D01*
X046866Y055024D02*
X057351Y055024D01*
X057351Y055183D02*
X046973Y055183D01*
X047039Y055341D02*
X057351Y055341D01*
X057351Y055500D02*
X047046Y055500D01*
X047039Y055658D02*
X057351Y055658D01*
X057351Y055817D02*
X057049Y055817D01*
X057317Y055975D02*
X057345Y055975D01*
X057831Y056500D02*
X056831Y056500D01*
X055831Y056500D01*
X054831Y056500D01*
X054168Y056768D02*
X046994Y056768D01*
X047046Y056609D02*
X054116Y056609D01*
X054116Y056451D02*
X047046Y056451D01*
X047019Y056292D02*
X054143Y056292D01*
X054209Y056134D02*
X046953Y056134D01*
X046867Y055975D02*
X054345Y055975D01*
X054612Y055817D02*
X046974Y055817D01*
X047019Y054707D02*
X051277Y054707D01*
X051118Y054549D02*
X047046Y054549D01*
X047046Y054390D02*
X050960Y054390D01*
X050866Y054232D02*
X046994Y054232D01*
X046915Y054073D02*
X050866Y054073D01*
X050866Y053915D02*
X046928Y053915D01*
X046999Y053756D02*
X050866Y053756D01*
X050972Y053598D02*
X047046Y053598D01*
X047046Y053439D02*
X051009Y053439D01*
X050866Y053281D02*
X047014Y053281D01*
X046948Y053122D02*
X050866Y053122D01*
X050866Y052964D02*
X046879Y052964D01*
X046979Y052805D02*
X050866Y052805D01*
X050923Y052647D02*
X047044Y052647D01*
X047046Y052488D02*
X051058Y052488D01*
X050899Y052330D02*
X047034Y052330D01*
X046969Y052171D02*
X050866Y052171D01*
X050866Y052013D02*
X046855Y052013D01*
X046958Y051854D02*
X050866Y051854D01*
X050874Y051696D02*
X047024Y051696D01*
X047046Y051537D02*
X051033Y051537D01*
X050948Y051379D02*
X047046Y051379D01*
X046989Y051220D02*
X050866Y051220D01*
X050866Y051062D02*
X046904Y051062D01*
X046938Y050903D02*
X050866Y050903D01*
X050866Y050745D02*
X047004Y050745D01*
X047046Y050586D02*
X050984Y050586D01*
X050997Y050428D02*
X047046Y050428D01*
X047009Y050269D02*
X050866Y050269D01*
X050866Y050111D02*
X046944Y050111D01*
X046890Y049952D02*
X050866Y049952D01*
X050866Y049794D02*
X046983Y049794D01*
X047046Y049635D02*
X050935Y049635D01*
X051046Y049477D02*
X047046Y049477D01*
X047030Y049318D02*
X050888Y049318D01*
X050866Y049160D02*
X046964Y049160D01*
X046843Y049001D02*
X050866Y049001D01*
X050866Y048843D02*
X046963Y048843D01*
X047029Y048684D02*
X050886Y048684D01*
X051044Y048526D02*
X047046Y048526D01*
X047046Y048367D02*
X050937Y048367D01*
X050866Y048209D02*
X046984Y048209D01*
X046892Y048050D02*
X050866Y048050D01*
X050866Y047892D02*
X046943Y047892D01*
X047008Y047733D02*
X050866Y047733D01*
X050995Y047575D02*
X047046Y047575D01*
X047046Y047416D02*
X050986Y047416D01*
X050866Y047258D02*
X047004Y047258D01*
X046939Y047099D02*
X050866Y047099D01*
X050866Y046941D02*
X046902Y046941D01*
X046988Y046782D02*
X050866Y046782D01*
X050946Y046624D02*
X047046Y046624D01*
X047046Y046465D02*
X051035Y046465D01*
X050876Y046307D02*
X047025Y046307D01*
X046959Y046148D02*
X050866Y046148D01*
X050866Y045990D02*
X046853Y045990D01*
X046968Y045831D02*
X050866Y045831D01*
X050897Y045673D02*
X047033Y045673D01*
X047046Y045514D02*
X051056Y045514D01*
X050925Y045356D02*
X047045Y045356D01*
X046979Y045197D02*
X050866Y045197D01*
X050866Y045039D02*
X046881Y045039D01*
X046947Y044880D02*
X050866Y044880D01*
X050866Y044722D02*
X047013Y044722D01*
X047046Y044563D02*
X051007Y044563D01*
X050974Y044405D02*
X047046Y044405D01*
X047000Y044246D02*
X050866Y044246D01*
X050866Y044088D02*
X046930Y044088D01*
X046913Y043929D02*
X050866Y043929D01*
X050866Y043771D02*
X046993Y043771D01*
X047046Y043612D02*
X050958Y043612D01*
X051023Y043454D02*
X047046Y043454D01*
X047020Y043295D02*
X050866Y043295D01*
X050866Y043137D02*
X046954Y043137D01*
X046864Y042978D02*
X050866Y042978D01*
X050866Y042820D02*
X046973Y042820D01*
X047038Y042661D02*
X050909Y042661D01*
X051067Y042503D02*
X047046Y042503D01*
X047040Y042344D02*
X050914Y042344D01*
X050866Y042186D02*
X046975Y042186D01*
X046869Y042027D02*
X050866Y042027D01*
X050866Y041869D02*
X046952Y041869D01*
X047018Y041710D02*
X050866Y041710D01*
X051018Y041552D02*
X047046Y041552D01*
X047046Y041393D02*
X050963Y041393D01*
X050866Y041235D02*
X046995Y041235D01*
X046918Y041076D02*
X050866Y041076D01*
X050866Y040918D02*
X046925Y040918D01*
X046998Y040759D02*
X050866Y040759D01*
X050969Y040601D02*
X047046Y040601D01*
X047046Y040442D02*
X051012Y040442D01*
X050866Y040284D02*
X047015Y040284D01*
X046950Y040125D02*
X050866Y040125D01*
X050866Y039967D02*
X046876Y039967D01*
X046977Y039808D02*
X050866Y039808D01*
X050920Y039650D02*
X047043Y039650D01*
X047046Y039491D02*
X051061Y039491D01*
X050902Y039333D02*
X047036Y039333D01*
X046970Y039174D02*
X050866Y039174D01*
X050866Y039016D02*
X046858Y039016D01*
X046647Y038857D02*
X050866Y038857D01*
X050871Y038699D02*
X037030Y038699D01*
X037188Y038857D02*
X046015Y038857D01*
X045804Y039016D02*
X037347Y039016D01*
X037505Y039174D02*
X045692Y039174D01*
X045626Y039333D02*
X037664Y039333D01*
X037822Y039491D02*
X045616Y039491D01*
X045619Y039650D02*
X037981Y039650D01*
X038139Y039808D02*
X045685Y039808D01*
X045786Y039967D02*
X038298Y039967D01*
X038456Y040125D02*
X045712Y040125D01*
X045647Y040284D02*
X038615Y040284D01*
X038773Y040442D02*
X045616Y040442D01*
X045616Y040601D02*
X038932Y040601D01*
X039090Y040759D02*
X045664Y040759D01*
X045737Y040918D02*
X039249Y040918D01*
X039407Y041076D02*
X045744Y041076D01*
X045667Y041235D02*
X039566Y041235D01*
X039724Y041393D02*
X045616Y041393D01*
X045616Y041552D02*
X039883Y041552D01*
X040041Y041710D02*
X045644Y041710D01*
X045710Y041869D02*
X040200Y041869D01*
X040358Y042027D02*
X045793Y042027D01*
X045687Y042186D02*
X040517Y042186D01*
X040581Y042344D02*
X045622Y042344D01*
X045616Y042503D02*
X040581Y042503D01*
X040581Y042661D02*
X045624Y042661D01*
X045689Y042820D02*
X040581Y042820D01*
X040581Y042978D02*
X045798Y042978D01*
X045708Y043137D02*
X040581Y043137D01*
X040581Y043295D02*
X045642Y043295D01*
X045616Y043454D02*
X040581Y043454D01*
X040581Y043612D02*
X045616Y043612D01*
X045669Y043771D02*
X040581Y043771D01*
X040581Y043929D02*
X045749Y043929D01*
X045732Y044088D02*
X040581Y044088D01*
X040581Y044246D02*
X045662Y044246D01*
X045616Y044405D02*
X040581Y044405D01*
X040581Y044563D02*
X045616Y044563D01*
X045649Y044722D02*
X040581Y044722D01*
X040581Y044880D02*
X045714Y044880D01*
X045781Y045039D02*
X040581Y045039D01*
X040581Y045197D02*
X045683Y045197D01*
X045617Y045356D02*
X040581Y045356D01*
X040581Y045514D02*
X045616Y045514D01*
X045629Y045673D02*
X040581Y045673D01*
X040581Y045831D02*
X045694Y045831D01*
X045809Y045990D02*
X040581Y045990D01*
X040581Y046148D02*
X045703Y046148D01*
X045637Y046307D02*
X040581Y046307D01*
X040581Y046465D02*
X045616Y046465D01*
X045616Y046624D02*
X040581Y046624D01*
X040581Y046782D02*
X045674Y046782D01*
X045760Y046941D02*
X040581Y046941D01*
X040581Y047099D02*
X045723Y047099D01*
X045657Y047258D02*
X040581Y047258D01*
X040581Y047416D02*
X045616Y047416D01*
X045616Y047575D02*
X040581Y047575D01*
X040581Y047733D02*
X045654Y047733D01*
X045719Y047892D02*
X040581Y047892D01*
X040581Y048050D02*
X045770Y048050D01*
X045678Y048209D02*
X040581Y048209D01*
X040581Y048367D02*
X045616Y048367D01*
X045616Y048526D02*
X040581Y048526D01*
X040581Y048684D02*
X045633Y048684D01*
X045699Y048843D02*
X040581Y048843D01*
X040581Y049001D02*
X045819Y049001D01*
X045698Y049160D02*
X040581Y049160D01*
X040581Y049318D02*
X045632Y049318D01*
X045616Y049477D02*
X040581Y049477D01*
X040581Y049635D02*
X045616Y049635D01*
X045679Y049794D02*
X040581Y049794D01*
X040581Y049952D02*
X045772Y049952D01*
X045718Y050111D02*
X040581Y050111D01*
X040581Y050269D02*
X045653Y050269D01*
X045616Y050428D02*
X040581Y050428D01*
X040581Y050586D02*
X045616Y050586D01*
X045658Y050745D02*
X040581Y050745D01*
X040581Y050903D02*
X045724Y050903D01*
X045758Y051062D02*
X040581Y051062D01*
X040581Y051220D02*
X045673Y051220D01*
X045616Y051379D02*
X040581Y051379D01*
X040581Y051537D02*
X045616Y051537D01*
X045638Y051696D02*
X040581Y051696D01*
X040581Y051854D02*
X045704Y051854D01*
X045807Y052013D02*
X040581Y052013D01*
X040581Y052171D02*
X045693Y052171D01*
X045628Y052330D02*
X040581Y052330D01*
X040581Y052488D02*
X045616Y052488D01*
X045618Y052647D02*
X040581Y052647D01*
X040581Y052805D02*
X045683Y052805D01*
X045783Y052964D02*
X040581Y052964D01*
X040581Y053122D02*
X045714Y053122D01*
X045648Y053281D02*
X040581Y053281D01*
X040581Y053439D02*
X045616Y053439D01*
X045616Y053598D02*
X040581Y053598D01*
X040581Y053756D02*
X045663Y053756D01*
X045734Y053915D02*
X040581Y053915D01*
X040581Y054073D02*
X045747Y054073D01*
X045668Y054232D02*
X040581Y054232D01*
X040581Y054390D02*
X045616Y054390D01*
X045616Y054549D02*
X040581Y054549D01*
X040581Y054707D02*
X045643Y054707D01*
X045708Y054866D02*
X040581Y054866D01*
X040581Y055024D02*
X045796Y055024D01*
X045689Y055183D02*
X040581Y055183D01*
X040581Y055341D02*
X045623Y055341D01*
X045616Y055500D02*
X040581Y055500D01*
X040581Y055658D02*
X045623Y055658D01*
X045688Y055817D02*
X040581Y055817D01*
X040581Y055975D02*
X045795Y055975D01*
X045709Y056134D02*
X040581Y056134D01*
X040581Y056292D02*
X045643Y056292D01*
X045616Y056451D02*
X040581Y056451D01*
X040581Y056609D02*
X045616Y056609D01*
X045668Y056768D02*
X040581Y056768D01*
X040581Y056926D02*
X045746Y056926D01*
X045735Y057085D02*
X040581Y057085D01*
X040581Y057243D02*
X045663Y057243D01*
X045616Y057402D02*
X040581Y057402D01*
X040581Y057560D02*
X045616Y057560D01*
X045648Y057719D02*
X040581Y057719D01*
X040581Y057877D02*
X045713Y057877D01*
X045784Y058036D02*
X040581Y058036D01*
X040581Y058194D02*
X045684Y058194D01*
X045618Y058353D02*
X040581Y058353D01*
X040581Y058511D02*
X045616Y058511D01*
X045627Y058670D02*
X040581Y058670D01*
X040581Y058828D02*
X045693Y058828D01*
X045806Y058987D02*
X040581Y058987D01*
X040581Y059145D02*
X045704Y059145D01*
X045638Y059304D02*
X040581Y059304D01*
X040581Y059462D02*
X045616Y059462D01*
X045616Y059621D02*
X040581Y059621D01*
X040581Y059779D02*
X045673Y059779D01*
X045757Y059938D02*
X040581Y059938D01*
X040581Y060096D02*
X045724Y060096D01*
X045659Y060255D02*
X040581Y060255D01*
X040581Y060413D02*
X045616Y060413D01*
X045616Y060572D02*
X040581Y060572D01*
X040581Y060730D02*
X045652Y060730D01*
X045718Y060889D02*
X040581Y060889D01*
X040581Y061047D02*
X045773Y061047D01*
X045679Y061206D02*
X040581Y061206D01*
X040581Y061364D02*
X045616Y061364D01*
X045616Y061523D02*
X040581Y061523D01*
X040581Y061681D02*
X045632Y061681D01*
X045698Y061840D02*
X040581Y061840D01*
X040581Y061998D02*
X045818Y061998D01*
X045699Y062157D02*
X040581Y062157D01*
X040581Y062315D02*
X045634Y062315D01*
X045616Y062474D02*
X040581Y062474D01*
X040581Y062632D02*
X045616Y062632D01*
X045677Y062791D02*
X040581Y062791D01*
X040581Y062949D02*
X045769Y062949D01*
X045720Y063108D02*
X040581Y063108D01*
X040581Y063266D02*
X045654Y063266D01*
X045616Y063425D02*
X040581Y063425D01*
X040581Y063583D02*
X045616Y063583D01*
X045657Y063742D02*
X040581Y063742D01*
X040581Y063900D02*
X045723Y063900D01*
X045878Y064059D02*
X040581Y064059D01*
X040581Y064217D02*
X045925Y064217D01*
X045851Y064376D02*
X040581Y064376D01*
X040581Y064534D02*
X045836Y064534D01*
X045874Y064693D02*
X040581Y064693D01*
X040581Y064851D02*
X045982Y064851D01*
X045810Y065010D02*
X040581Y065010D01*
X040581Y065168D02*
X045695Y065168D01*
X045629Y065327D02*
X040581Y065327D01*
X040581Y065485D02*
X045616Y065485D01*
X045617Y065644D02*
X040581Y065644D01*
X040581Y065802D02*
X045682Y065802D01*
X045780Y065961D02*
X040581Y065961D01*
X040581Y066119D02*
X045715Y066119D01*
X045649Y066278D02*
X040581Y066278D01*
X040581Y066436D02*
X045616Y066436D01*
X045616Y066595D02*
X040581Y066595D01*
X040581Y066753D02*
X045662Y066753D01*
X045731Y066912D02*
X040581Y066912D01*
X040581Y067070D02*
X045890Y067070D01*
X046772Y067070D02*
X060331Y067070D01*
X060331Y066912D02*
X046931Y066912D01*
X047000Y066753D02*
X060331Y066753D01*
X060331Y066595D02*
X047046Y066595D01*
X047046Y066436D02*
X060331Y066436D01*
X060331Y066278D02*
X047013Y066278D01*
X046947Y066119D02*
X060331Y066119D01*
X060331Y065961D02*
X046882Y065961D01*
X046980Y065802D02*
X060331Y065802D01*
X060331Y065644D02*
X047045Y065644D01*
X047046Y065485D02*
X060331Y065485D01*
X060331Y065327D02*
X047033Y065327D01*
X046967Y065168D02*
X060331Y065168D01*
X060331Y065010D02*
X046852Y065010D01*
X046680Y064851D02*
X050232Y064851D01*
X050376Y064995D02*
X050086Y064705D01*
X050086Y064525D01*
X050556Y064525D01*
X050556Y064995D01*
X050376Y064995D01*
X050606Y064995D02*
X050606Y064525D01*
X051076Y064525D01*
X051076Y064705D01*
X050786Y064995D01*
X050606Y064995D01*
X050606Y064851D02*
X050556Y064851D01*
X050556Y064693D02*
X050606Y064693D01*
X050606Y064534D02*
X050556Y064534D01*
X050556Y064525D02*
X050606Y064525D01*
X050606Y064475D01*
X051076Y064475D01*
X051076Y064295D01*
X050786Y064005D01*
X050606Y064005D01*
X050606Y064475D01*
X050556Y064475D01*
X050556Y064005D01*
X050376Y064005D01*
X050086Y064295D01*
X050086Y064475D01*
X050556Y064475D01*
X050556Y064525D01*
X050556Y064376D02*
X050606Y064376D01*
X050606Y064217D02*
X050556Y064217D01*
X050556Y064059D02*
X050606Y064059D01*
X050606Y063995D02*
X050606Y063525D01*
X051076Y063525D01*
X051076Y063705D01*
X050786Y063995D01*
X050606Y063995D01*
X050556Y063995D02*
X050376Y063995D01*
X050086Y063705D01*
X050086Y063525D01*
X050556Y063525D01*
X050556Y063995D01*
X050556Y063900D02*
X050606Y063900D01*
X050606Y063742D02*
X050556Y063742D01*
X050556Y063583D02*
X050606Y063583D01*
X050606Y063525D02*
X050556Y063525D01*
X050556Y063475D01*
X050606Y063475D01*
X050606Y063525D01*
X050606Y063475D02*
X051076Y063475D01*
X051076Y063295D01*
X050786Y063005D01*
X050606Y063005D01*
X050606Y063475D01*
X050556Y063475D02*
X050556Y063005D01*
X050376Y063005D01*
X050086Y063295D01*
X050086Y063475D01*
X050556Y063475D01*
X050556Y063425D02*
X050606Y063425D01*
X050606Y063266D02*
X050556Y063266D01*
X050556Y063108D02*
X050606Y063108D01*
X050606Y062995D02*
X050606Y062525D01*
X051076Y062525D01*
X051076Y062705D01*
X050786Y062995D01*
X050606Y062995D01*
X050606Y062949D02*
X050556Y062949D01*
X050556Y062995D02*
X050376Y062995D01*
X050086Y062705D01*
X050086Y062525D01*
X050556Y062525D01*
X050556Y062995D01*
X050556Y062791D02*
X050606Y062791D01*
X050606Y062632D02*
X050556Y062632D01*
X050556Y062525D02*
X050606Y062525D01*
X050606Y062475D01*
X051076Y062475D01*
X051076Y062295D01*
X050786Y062005D01*
X050606Y062005D01*
X050606Y062475D01*
X050556Y062475D01*
X050556Y062005D01*
X050376Y062005D01*
X050086Y062295D01*
X050086Y062475D01*
X050556Y062475D01*
X050556Y062525D01*
X050556Y062474D02*
X050606Y062474D01*
X050606Y062315D02*
X050556Y062315D01*
X050556Y062157D02*
X050606Y062157D01*
X050606Y061995D02*
X050606Y061525D01*
X051076Y061525D01*
X051076Y061705D01*
X050786Y061995D01*
X050606Y061995D01*
X050556Y061995D02*
X050376Y061995D01*
X050086Y061705D01*
X050086Y061525D01*
X050556Y061525D01*
X050556Y061995D01*
X050556Y061840D02*
X050606Y061840D01*
X050606Y061681D02*
X050556Y061681D01*
X050556Y061525D02*
X050606Y061525D01*
X050606Y061475D01*
X051076Y061475D01*
X051076Y061295D01*
X050786Y061005D01*
X050606Y061005D01*
X050606Y061475D01*
X050556Y061475D01*
X050556Y061005D01*
X050376Y061005D01*
X050086Y061295D01*
X050086Y061475D01*
X050556Y061475D01*
X050556Y061525D01*
X050556Y061523D02*
X047046Y061523D01*
X047046Y061364D02*
X050086Y061364D01*
X050175Y061206D02*
X046983Y061206D01*
X046889Y061047D02*
X050334Y061047D01*
X050376Y060995D02*
X050086Y060705D01*
X050086Y060525D01*
X050556Y060525D01*
X050556Y060995D01*
X050376Y060995D01*
X050270Y060889D02*
X046944Y060889D01*
X047010Y060730D02*
X050111Y060730D01*
X050086Y060572D02*
X047046Y060572D01*
X047046Y060413D02*
X050086Y060413D01*
X050086Y060475D02*
X050086Y060295D01*
X050376Y060005D01*
X050556Y060005D01*
X050556Y060475D01*
X050606Y060475D01*
X050606Y060525D01*
X051076Y060525D01*
X051076Y060705D01*
X050786Y060995D01*
X050606Y060995D01*
X050606Y060525D01*
X050556Y060525D01*
X050556Y060475D01*
X050086Y060475D01*
X050126Y060255D02*
X047003Y060255D01*
X046938Y060096D02*
X050285Y060096D01*
X050556Y060096D02*
X050606Y060096D01*
X050606Y060005D02*
X050786Y060005D01*
X051076Y060295D01*
X051076Y060475D01*
X050606Y060475D01*
X050606Y060005D01*
X050606Y060255D02*
X050556Y060255D01*
X050556Y060413D02*
X050606Y060413D01*
X050606Y060572D02*
X050556Y060572D01*
X050556Y060730D02*
X050606Y060730D01*
X050606Y060889D02*
X050556Y060889D01*
X050556Y061047D02*
X050606Y061047D01*
X050606Y061206D02*
X050556Y061206D01*
X050556Y061364D02*
X050606Y061364D01*
X050606Y061523D02*
X052116Y061523D01*
X052116Y061642D02*
X052116Y061358D01*
X052225Y061095D01*
X052320Y061000D01*
X052225Y060905D01*
X052116Y060642D01*
X052116Y060358D01*
X052225Y060095D01*
X052320Y060000D01*
X052225Y059905D01*
X052116Y059642D01*
X052116Y059358D01*
X052225Y059095D01*
X052426Y058894D01*
X052689Y058785D01*
X052973Y058785D01*
X053236Y058894D01*
X053331Y058989D01*
X053426Y058894D01*
X053689Y058785D01*
X053973Y058785D01*
X054236Y058894D01*
X054331Y058989D01*
X054426Y058894D01*
X054689Y058785D01*
X054973Y058785D01*
X055236Y058894D01*
X055331Y058989D01*
X055426Y058894D01*
X055689Y058785D01*
X055973Y058785D01*
X056236Y058894D01*
X056331Y058989D01*
X056426Y058894D01*
X056689Y058785D01*
X056973Y058785D01*
X057236Y058894D01*
X057331Y058989D01*
X057426Y058894D01*
X057689Y058785D01*
X057973Y058785D01*
X058236Y058894D01*
X058437Y059095D01*
X058546Y059358D01*
X058546Y059642D01*
X058437Y059905D01*
X058342Y060000D01*
X058437Y060095D01*
X058546Y060358D01*
X058546Y060642D01*
X058437Y060905D01*
X058342Y061000D01*
X058437Y061095D01*
X058546Y061358D01*
X058546Y061642D01*
X058437Y061905D01*
X058342Y062000D01*
X058437Y062095D01*
X058546Y062358D01*
X058546Y062642D01*
X058437Y062905D01*
X058342Y063000D01*
X058437Y063095D01*
X058546Y063358D01*
X058546Y063642D01*
X058437Y063905D01*
X058236Y064106D01*
X057973Y064215D01*
X057689Y064215D01*
X057426Y064106D01*
X057225Y063905D01*
X057116Y063642D01*
X057116Y063358D01*
X057225Y063095D01*
X057320Y063000D01*
X057225Y062905D01*
X057116Y062642D01*
X057116Y062358D01*
X057225Y062095D01*
X057320Y062000D01*
X057225Y061905D01*
X057116Y061642D01*
X057116Y061358D01*
X057225Y061095D01*
X057320Y061000D01*
X057225Y060905D01*
X057116Y060642D01*
X057116Y060358D01*
X057217Y060114D01*
X056973Y060215D01*
X056689Y060215D01*
X056426Y060106D01*
X056331Y060011D01*
X056236Y060106D01*
X055973Y060215D01*
X055689Y060215D01*
X055426Y060106D01*
X055331Y060011D01*
X055236Y060106D01*
X054973Y060215D01*
X054689Y060215D01*
X054426Y060106D01*
X054331Y060011D01*
X054236Y060106D01*
X053973Y060215D01*
X053689Y060215D01*
X053445Y060114D01*
X053546Y060358D01*
X053546Y060642D01*
X053437Y060905D01*
X053342Y061000D01*
X053437Y061095D01*
X053546Y061358D01*
X053546Y061642D01*
X053437Y061905D01*
X053342Y062000D01*
X053437Y062095D01*
X053546Y062358D01*
X053546Y062642D01*
X053437Y062905D01*
X053342Y063000D01*
X053437Y063095D01*
X053546Y063358D01*
X053546Y063642D01*
X053437Y063905D01*
X053236Y064106D01*
X052973Y064215D01*
X052689Y064215D01*
X052426Y064106D01*
X052225Y063905D01*
X052116Y063642D01*
X052116Y063358D01*
X052225Y063095D01*
X052320Y063000D01*
X052225Y062905D01*
X052116Y062642D01*
X052116Y062358D01*
X052225Y062095D01*
X052320Y062000D01*
X052225Y061905D01*
X052116Y061642D01*
X052132Y061681D02*
X051076Y061681D01*
X050941Y061840D02*
X052198Y061840D01*
X052318Y061998D02*
X046844Y061998D01*
X046963Y062157D02*
X050224Y062157D01*
X050086Y062315D02*
X047028Y062315D01*
X047046Y062474D02*
X050086Y062474D01*
X050086Y062632D02*
X047046Y062632D01*
X046985Y062791D02*
X050172Y062791D01*
X050330Y062949D02*
X046893Y062949D01*
X046942Y063108D02*
X050273Y063108D01*
X050115Y063266D02*
X047008Y063266D01*
X047046Y063425D02*
X050086Y063425D01*
X050086Y063583D02*
X047046Y063583D01*
X047005Y063742D02*
X050123Y063742D01*
X050281Y063900D02*
X046939Y063900D01*
X046784Y064059D02*
X050322Y064059D01*
X050164Y064217D02*
X046737Y064217D01*
X046811Y064376D02*
X050086Y064376D01*
X050086Y064534D02*
X046826Y064534D01*
X046788Y064693D02*
X050086Y064693D01*
X050930Y064851D02*
X060331Y064851D01*
X060331Y064693D02*
X051076Y064693D01*
X051076Y064534D02*
X060331Y064534D01*
X060331Y064376D02*
X051076Y064376D01*
X050998Y064217D02*
X060331Y064217D01*
X060331Y064059D02*
X058284Y064059D01*
X058439Y063900D02*
X060331Y063900D01*
X060331Y063742D02*
X058505Y063742D01*
X058546Y063583D02*
X060331Y063583D01*
X060331Y063425D02*
X058546Y063425D01*
X058508Y063266D02*
X060331Y063266D01*
X060331Y063108D02*
X058442Y063108D01*
X058393Y062949D02*
X060331Y062949D01*
X060331Y062791D02*
X058485Y062791D01*
X058546Y062632D02*
X060331Y062632D01*
X060331Y062474D02*
X058546Y062474D01*
X058528Y062315D02*
X060331Y062315D01*
X060331Y062157D02*
X058463Y062157D01*
X058344Y061998D02*
X060331Y061998D01*
X060331Y061840D02*
X058464Y061840D01*
X058530Y061681D02*
X060331Y061681D01*
X060331Y061523D02*
X058546Y061523D01*
X058546Y061364D02*
X060331Y061364D01*
X060331Y061206D02*
X058483Y061206D01*
X058389Y061047D02*
X060331Y061047D01*
X060331Y060889D02*
X058444Y060889D01*
X058510Y060730D02*
X060331Y060730D01*
X060331Y060572D02*
X058546Y060572D01*
X058546Y060413D02*
X060331Y060413D01*
X060331Y060255D02*
X058503Y060255D01*
X058438Y060096D02*
X060331Y060096D01*
X060331Y059938D02*
X058405Y059938D01*
X058489Y059779D02*
X060331Y059779D01*
X060331Y059621D02*
X058546Y059621D01*
X058546Y059462D02*
X060331Y059462D01*
X060331Y059304D02*
X058524Y059304D01*
X058458Y059145D02*
X060331Y059145D01*
X060331Y058987D02*
X058329Y058987D01*
X058077Y058828D02*
X060331Y058828D01*
X060331Y058670D02*
X047035Y058670D01*
X047046Y058511D02*
X060331Y058511D01*
X060331Y058353D02*
X047044Y058353D01*
X046978Y058194D02*
X060331Y058194D01*
X060331Y058036D02*
X046878Y058036D01*
X046949Y057877D02*
X060331Y057877D01*
X060331Y057719D02*
X047014Y057719D01*
X047046Y057560D02*
X060331Y057560D01*
X060331Y057402D02*
X047046Y057402D01*
X046998Y057243D02*
X060331Y057243D01*
X060331Y057085D02*
X058258Y057085D01*
X058416Y056926D02*
X060331Y056926D01*
X060331Y056768D02*
X058494Y056768D01*
X058546Y056609D02*
X060331Y056609D01*
X060331Y056451D02*
X058546Y056451D01*
X058519Y056292D02*
X060331Y056292D01*
X060331Y056134D02*
X058453Y056134D01*
X058317Y055975D02*
X060331Y055975D01*
X060331Y055817D02*
X058311Y055817D01*
X058311Y055658D02*
X060331Y055658D01*
X060331Y055500D02*
X058311Y055500D01*
X058311Y055341D02*
X060331Y055341D01*
X060331Y055183D02*
X058311Y055183D01*
X058311Y055024D02*
X060331Y055024D01*
X060331Y054866D02*
X058311Y054866D01*
X058311Y054707D02*
X060331Y054707D01*
X060331Y054549D02*
X058311Y054549D01*
X058311Y054390D02*
X060331Y054390D01*
X060331Y054232D02*
X058311Y054232D01*
X058311Y054073D02*
X060331Y054073D01*
X060331Y053915D02*
X058311Y053915D01*
X058311Y053756D02*
X060331Y053756D01*
X060331Y053598D02*
X058311Y053598D01*
X058403Y053439D02*
X060331Y053439D01*
X060331Y053281D02*
X058489Y053281D01*
X058546Y053122D02*
X060331Y053122D01*
X060331Y052964D02*
X058546Y052964D01*
X058524Y052805D02*
X060331Y052805D01*
X060331Y052647D02*
X058458Y052647D01*
X058330Y052488D02*
X060331Y052488D01*
X057831Y053000D02*
X057831Y056500D01*
X057404Y057085D02*
X057258Y057085D01*
X056404Y057085D02*
X056258Y057085D01*
X055404Y057085D02*
X055258Y057085D01*
X054404Y057085D02*
X046927Y057085D01*
X046916Y056926D02*
X054246Y056926D01*
X055049Y055817D02*
X055612Y055817D01*
X055345Y055975D02*
X055317Y055975D01*
X056049Y055817D02*
X056612Y055817D01*
X056345Y055975D02*
X056317Y055975D01*
X056245Y053598D02*
X056417Y053598D01*
X055417Y053598D02*
X055245Y053598D01*
X055077Y058828D02*
X055585Y058828D01*
X055333Y058987D02*
X055329Y058987D01*
X054585Y058828D02*
X054077Y058828D01*
X054329Y058987D02*
X054333Y058987D01*
X053585Y058828D02*
X053077Y058828D01*
X053329Y058987D02*
X053333Y058987D01*
X052585Y058828D02*
X046969Y058828D01*
X046856Y058987D02*
X052333Y058987D01*
X052204Y059145D02*
X046958Y059145D01*
X047024Y059304D02*
X052138Y059304D01*
X052116Y059462D02*
X047046Y059462D01*
X047046Y059621D02*
X052116Y059621D01*
X052173Y059779D02*
X046989Y059779D01*
X046905Y059938D02*
X052257Y059938D01*
X052224Y060096D02*
X050877Y060096D01*
X051036Y060255D02*
X052159Y060255D01*
X052116Y060413D02*
X051076Y060413D01*
X051076Y060572D02*
X052116Y060572D01*
X052152Y060730D02*
X051051Y060730D01*
X050892Y060889D02*
X052218Y060889D01*
X052273Y061047D02*
X050828Y061047D01*
X050987Y061206D02*
X052179Y061206D01*
X052116Y061364D02*
X051076Y061364D01*
X050938Y062157D02*
X052199Y062157D01*
X052134Y062315D02*
X051076Y062315D01*
X051076Y062474D02*
X052116Y062474D01*
X052116Y062632D02*
X051076Y062632D01*
X050990Y062791D02*
X052177Y062791D01*
X052269Y062949D02*
X050832Y062949D01*
X050889Y063108D02*
X052220Y063108D01*
X052154Y063266D02*
X051047Y063266D01*
X051076Y063425D02*
X052116Y063425D01*
X052116Y063583D02*
X051076Y063583D01*
X051039Y063742D02*
X052157Y063742D01*
X052223Y063900D02*
X050881Y063900D01*
X050840Y064059D02*
X052378Y064059D01*
X053284Y064059D02*
X057378Y064059D01*
X057223Y063900D02*
X053439Y063900D01*
X053505Y063742D02*
X057157Y063742D01*
X057116Y063583D02*
X053546Y063583D01*
X053546Y063425D02*
X057116Y063425D01*
X057154Y063266D02*
X053508Y063266D01*
X053442Y063108D02*
X057220Y063108D01*
X057269Y062949D02*
X053393Y062949D01*
X053485Y062791D02*
X057177Y062791D01*
X057116Y062632D02*
X053546Y062632D01*
X053546Y062474D02*
X057116Y062474D01*
X057134Y062315D02*
X053528Y062315D01*
X053463Y062157D02*
X057199Y062157D01*
X057318Y061998D02*
X053344Y061998D01*
X053464Y061840D02*
X057198Y061840D01*
X057132Y061681D02*
X053530Y061681D01*
X053546Y061523D02*
X057116Y061523D01*
X057116Y061364D02*
X053546Y061364D01*
X053483Y061206D02*
X057179Y061206D01*
X057273Y061047D02*
X053389Y061047D01*
X053444Y060889D02*
X057218Y060889D01*
X057152Y060730D02*
X053510Y060730D01*
X053546Y060572D02*
X057116Y060572D01*
X057116Y060413D02*
X053546Y060413D01*
X053503Y060255D02*
X057159Y060255D01*
X056416Y060096D02*
X056246Y060096D01*
X055416Y060096D02*
X055246Y060096D01*
X054416Y060096D02*
X054246Y060096D01*
X056077Y058828D02*
X056585Y058828D01*
X056333Y058987D02*
X056329Y058987D01*
X057077Y058828D02*
X057585Y058828D01*
X057333Y058987D02*
X057329Y058987D01*
X050221Y061840D02*
X046964Y061840D01*
X047030Y061681D02*
X050086Y061681D01*
X040581Y067229D02*
X060331Y067229D01*
X060331Y067387D02*
X040581Y067387D01*
X040581Y067546D02*
X060331Y067546D01*
X060331Y067704D02*
X040581Y067704D01*
X040581Y067863D02*
X060331Y067863D01*
X060331Y068021D02*
X040581Y068021D01*
X040581Y068180D02*
X060331Y068180D01*
X060331Y068338D02*
X040581Y068338D01*
X040581Y068497D02*
X060331Y068497D01*
X040081Y068497D02*
X010168Y068497D01*
X010168Y061364D02*
X029086Y061364D01*
X029175Y061206D02*
X010168Y061206D01*
X010243Y046782D02*
X025419Y046782D01*
X025222Y046624D02*
X010440Y046624D01*
X010583Y046465D02*
X025079Y046465D01*
X024988Y046307D02*
X010674Y046307D01*
X010743Y046148D02*
X024919Y046148D01*
X024877Y045990D02*
X010785Y045990D01*
X019827Y039016D02*
X033804Y039016D01*
X034015Y038857D02*
X019957Y038857D01*
X022802Y041710D02*
X028921Y041710D01*
X028836Y041869D02*
X022947Y041869D01*
X023013Y042027D02*
X028836Y042027D01*
X028836Y042186D02*
X023046Y042186D01*
X023046Y042344D02*
X028975Y042344D01*
X028836Y043137D02*
X022791Y043137D01*
X022791Y043295D02*
X028926Y043295D01*
X029085Y043454D02*
X022791Y043454D01*
X022791Y043612D02*
X029019Y043612D01*
X028860Y043771D02*
X022791Y043771D01*
X022791Y043929D02*
X028836Y043929D01*
X028836Y044088D02*
X022791Y044088D01*
X022791Y044246D02*
X028877Y044246D01*
X029036Y044405D02*
X022791Y044405D01*
X025081Y034895D02*
X015456Y034895D01*
X015456Y034736D02*
X025081Y034736D01*
X025081Y034578D02*
X015456Y034578D01*
X015456Y034419D02*
X025081Y034419D01*
X025081Y034261D02*
X015456Y034261D01*
X015456Y034102D02*
X025081Y034102D01*
X025081Y033944D02*
X015456Y033944D01*
X015456Y033785D02*
X025081Y033785D01*
X025081Y033627D02*
X015456Y033627D01*
X015456Y033468D02*
X025081Y033468D01*
X025081Y033310D02*
X015456Y033310D01*
X015456Y033151D02*
X025081Y033151D01*
X025081Y032993D02*
X015456Y032993D01*
X015456Y032834D02*
X025081Y032834D01*
X025081Y032676D02*
X018568Y032676D01*
X018473Y032715D02*
X018189Y032715D01*
X017926Y032606D01*
X017725Y032405D01*
X017616Y032142D01*
X017616Y031858D01*
X017725Y031595D01*
X017820Y031500D01*
X017725Y031405D01*
X017616Y031142D01*
X017616Y030858D01*
X017725Y030595D01*
X017926Y030394D01*
X018189Y030285D01*
X018473Y030285D01*
X018736Y030394D01*
X018937Y030595D01*
X019046Y030858D01*
X019046Y031142D01*
X018937Y031405D01*
X018842Y031500D01*
X018937Y031595D01*
X019046Y031858D01*
X019046Y032142D01*
X018937Y032405D01*
X018736Y032606D01*
X018473Y032715D01*
X018094Y032676D02*
X015456Y032676D01*
X015456Y032517D02*
X017837Y032517D01*
X017706Y032359D02*
X015420Y032359D01*
X015323Y032200D02*
X017640Y032200D01*
X017616Y032042D02*
X015165Y032042D01*
X015006Y031883D02*
X017616Y031883D01*
X017671Y031725D02*
X014848Y031725D01*
X014689Y031566D02*
X017754Y031566D01*
X017727Y031408D02*
X014531Y031408D01*
X014372Y031249D02*
X017660Y031249D01*
X017616Y031091D02*
X014194Y031091D01*
X013274Y030140D02*
X025081Y030140D01*
X025081Y030298D02*
X018505Y030298D01*
X018799Y030457D02*
X024863Y030457D01*
X024717Y030615D02*
X018945Y030615D01*
X019011Y030774D02*
X024651Y030774D01*
X024616Y030932D02*
X019046Y030932D01*
X019046Y031091D02*
X024616Y031091D01*
X024660Y031249D02*
X019002Y031249D01*
X018935Y031408D02*
X024727Y031408D01*
X024754Y031566D02*
X018908Y031566D01*
X018991Y031725D02*
X024671Y031725D01*
X024616Y031883D02*
X019046Y031883D01*
X019046Y032042D02*
X024616Y032042D01*
X024640Y032200D02*
X019022Y032200D01*
X018956Y032359D02*
X024706Y032359D01*
X024837Y032517D02*
X018825Y032517D01*
X017616Y030932D02*
X010168Y030932D01*
X010168Y030774D02*
X017651Y030774D01*
X017717Y030615D02*
X010168Y030615D01*
X010168Y030457D02*
X011798Y030457D01*
X011858Y030492D02*
X011579Y030330D01*
X011351Y030102D01*
X011189Y029823D01*
X011106Y029511D01*
X011106Y029189D01*
X011189Y028877D01*
X011351Y028598D01*
X011579Y028370D01*
X011858Y028208D01*
X012170Y028125D01*
X012492Y028125D01*
X012804Y028208D01*
X013083Y028370D01*
X013311Y028598D01*
X013472Y028877D01*
X013556Y029189D01*
X013556Y029511D01*
X013472Y029823D01*
X013311Y030102D01*
X013083Y030330D01*
X012804Y030492D01*
X012492Y030575D01*
X012170Y030575D01*
X011858Y030492D01*
X011547Y030298D02*
X010168Y030298D01*
X010168Y030140D02*
X011388Y030140D01*
X011281Y029981D02*
X010168Y029981D01*
X010168Y029823D02*
X011189Y029823D01*
X011147Y029664D02*
X010168Y029664D01*
X010168Y029506D02*
X011106Y029506D01*
X011106Y029347D02*
X010168Y029347D01*
X010168Y029189D02*
X011106Y029189D01*
X011148Y029030D02*
X010168Y029030D01*
X010168Y028872D02*
X011193Y028872D01*
X011284Y028713D02*
X010168Y028713D01*
X010168Y028555D02*
X011394Y028555D01*
X011553Y028396D02*
X010168Y028396D01*
X010168Y028238D02*
X011808Y028238D01*
X010168Y028079D02*
X017616Y028079D01*
X017616Y028142D02*
X017616Y027858D01*
X017725Y027595D01*
X017820Y027500D01*
X017725Y027405D01*
X017616Y027142D01*
X017616Y026858D01*
X017725Y026595D01*
X017820Y026500D01*
X017725Y026405D01*
X017616Y026142D01*
X017616Y025858D01*
X017725Y025595D01*
X017926Y025394D01*
X018189Y025285D01*
X018473Y025285D01*
X018736Y025394D01*
X018937Y025595D01*
X019046Y025858D01*
X019046Y026142D01*
X018937Y026405D01*
X018842Y026500D01*
X018937Y026595D01*
X019046Y026858D01*
X019046Y027142D01*
X018937Y027405D01*
X018842Y027500D01*
X018937Y027595D01*
X019046Y027858D01*
X019046Y028142D01*
X018937Y028405D01*
X018736Y028606D01*
X018473Y028715D01*
X018189Y028715D01*
X017926Y028606D01*
X017725Y028405D01*
X017616Y028142D01*
X017655Y028238D02*
X012854Y028238D01*
X013109Y028396D02*
X017721Y028396D01*
X017874Y028555D02*
X013268Y028555D01*
X013378Y028713D02*
X018184Y028713D01*
X018478Y028713D02*
X025081Y028713D01*
X025081Y028872D02*
X013469Y028872D01*
X013513Y029030D02*
X025081Y029030D01*
X025081Y029189D02*
X013556Y029189D01*
X013556Y029347D02*
X025081Y029347D01*
X025081Y029506D02*
X013556Y029506D01*
X013515Y029664D02*
X025081Y029664D01*
X025081Y029823D02*
X013473Y029823D01*
X013381Y029981D02*
X025081Y029981D01*
X025581Y029981D02*
X029306Y029981D01*
X029306Y029823D02*
X029356Y029823D01*
X029356Y029664D02*
X029306Y029664D01*
X029306Y029506D02*
X029356Y029506D01*
X029537Y029506D02*
X030125Y029506D01*
X030306Y029506D02*
X030356Y029506D01*
X030356Y029664D02*
X030306Y029664D01*
X030306Y029823D02*
X030356Y029823D01*
X030356Y030140D02*
X030306Y030140D01*
X030306Y030298D02*
X030356Y030298D01*
X030356Y030457D02*
X030306Y030457D01*
X030087Y030457D02*
X029574Y030457D01*
X029733Y030298D02*
X029929Y030298D01*
X029836Y030140D02*
X029826Y030140D01*
X029826Y029823D02*
X029836Y029823D01*
X029967Y029664D02*
X029695Y029664D01*
X029125Y029506D02*
X025581Y029506D01*
X025581Y029664D02*
X028967Y029664D01*
X028836Y029823D02*
X025581Y029823D01*
X025581Y030140D02*
X028836Y030140D01*
X028929Y030298D02*
X025581Y030298D01*
X025581Y029030D02*
X041058Y029030D01*
X041101Y028872D02*
X025581Y028872D01*
X025581Y028713D02*
X041184Y028713D01*
X041299Y028555D02*
X025788Y028555D01*
X025941Y028396D02*
X041227Y028396D01*
X041069Y028238D02*
X026006Y028238D01*
X026046Y028079D02*
X040910Y028079D01*
X040752Y027921D02*
X026046Y027921D01*
X026006Y027762D02*
X040593Y027762D01*
X040435Y027604D02*
X031489Y027604D01*
X031647Y027445D02*
X040276Y027445D01*
X040118Y027287D02*
X031736Y027287D01*
X031796Y027128D02*
X039959Y027128D01*
X039801Y026970D02*
X031796Y026970D01*
X031777Y026811D02*
X039642Y026811D01*
X039484Y026653D02*
X031711Y026653D01*
X031586Y026494D02*
X039325Y026494D01*
X039167Y026336D02*
X031345Y026336D01*
X030817Y026336D02*
X030542Y026336D01*
X030221Y026177D02*
X039008Y026177D01*
X038850Y026019D02*
X030111Y026019D01*
X029296Y025385D02*
X045015Y025385D01*
X045126Y025495D02*
X044836Y025205D01*
X044836Y025025D01*
X045306Y025025D01*
X045306Y025495D01*
X045126Y025495D01*
X045126Y025505D02*
X044836Y025795D01*
X044836Y025975D01*
X045306Y025975D01*
X045356Y025975D01*
X045356Y026025D01*
X045826Y026025D01*
X045826Y026205D01*
X045536Y026495D01*
X045356Y026495D01*
X045356Y026025D01*
X045306Y026025D01*
X045306Y026495D01*
X045126Y026495D01*
X044836Y026205D01*
X044836Y026025D01*
X045306Y026025D01*
X045306Y025975D01*
X045306Y025505D01*
X045126Y025505D01*
X045088Y025543D02*
X039124Y025543D01*
X039283Y025702D02*
X044929Y025702D01*
X044836Y025860D02*
X039441Y025860D01*
X039600Y026019D02*
X045306Y026019D01*
X045356Y026019D02*
X048881Y026019D01*
X048879Y026020D02*
X049158Y025858D01*
X049470Y025775D01*
X049792Y025775D01*
X050104Y025858D01*
X050383Y026020D01*
X050611Y026248D01*
X050772Y026527D01*
X050856Y026839D01*
X050856Y027161D01*
X050772Y027473D01*
X050611Y027752D01*
X050383Y027980D01*
X050104Y028142D01*
X049792Y028225D01*
X049470Y028225D01*
X049158Y028142D01*
X048879Y027980D01*
X048651Y027752D01*
X048489Y027473D01*
X048406Y027161D01*
X048406Y026839D01*
X048489Y026527D01*
X048651Y026248D01*
X048879Y026020D01*
X048722Y026177D02*
X045826Y026177D01*
X045826Y025975D02*
X045356Y025975D01*
X045356Y025505D01*
X045536Y025505D01*
X045826Y025795D01*
X045826Y025975D01*
X045826Y025860D02*
X049155Y025860D01*
X048600Y026336D02*
X045695Y026336D01*
X045537Y026494D02*
X048509Y026494D01*
X048456Y026653D02*
X045684Y026653D01*
X045826Y026795D02*
X045826Y026975D01*
X045356Y026975D01*
X045356Y027025D01*
X045826Y027025D01*
X045826Y027205D01*
X045536Y027495D01*
X045356Y027495D01*
X045356Y027025D01*
X045306Y027025D01*
X045306Y027495D01*
X045126Y027495D01*
X044836Y027205D01*
X044836Y027025D01*
X045306Y027025D01*
X045306Y026975D01*
X045356Y026975D01*
X045356Y026505D01*
X045536Y026505D01*
X045826Y026795D01*
X045826Y026811D02*
X048413Y026811D01*
X048406Y026970D02*
X045826Y026970D01*
X045826Y027128D02*
X048406Y027128D01*
X048440Y027287D02*
X045744Y027287D01*
X045586Y027445D02*
X048482Y027445D01*
X048565Y027604D02*
X041185Y027604D01*
X041343Y027762D02*
X048661Y027762D01*
X048819Y027921D02*
X041502Y027921D01*
X041660Y028079D02*
X049050Y028079D01*
X050212Y028079D02*
X054851Y028079D01*
X054851Y027921D02*
X050443Y027921D01*
X050601Y027762D02*
X054851Y027762D01*
X054851Y027604D02*
X050697Y027604D01*
X050780Y027445D02*
X054851Y027445D01*
X054851Y027287D02*
X050822Y027287D01*
X050856Y027128D02*
X054851Y027128D01*
X054851Y026970D02*
X050856Y026970D01*
X050849Y026811D02*
X054851Y026811D01*
X054851Y026653D02*
X050806Y026653D01*
X050753Y026494D02*
X054851Y026494D01*
X054851Y026336D02*
X050662Y026336D01*
X050540Y026177D02*
X054851Y026177D01*
X054851Y026019D02*
X050381Y026019D01*
X050106Y025860D02*
X054851Y025860D01*
X054851Y025702D02*
X045733Y025702D01*
X045574Y025543D02*
X054851Y025543D01*
X054851Y025385D02*
X045646Y025385D01*
X045536Y025495D02*
X045826Y025205D01*
X045826Y025025D01*
X045356Y025025D01*
X045356Y024975D01*
X045826Y024975D01*
X045826Y024795D01*
X045536Y024505D01*
X045356Y024505D01*
X045356Y024975D01*
X045306Y024975D01*
X045306Y024505D01*
X045126Y024505D01*
X044836Y024795D01*
X044836Y024975D01*
X045306Y024975D01*
X045306Y025025D01*
X045356Y025025D01*
X045356Y025495D01*
X045536Y025495D01*
X045356Y025543D02*
X045306Y025543D01*
X045306Y025385D02*
X045356Y025385D01*
X045356Y025226D02*
X045306Y025226D01*
X045306Y025068D02*
X045356Y025068D01*
X045356Y024909D02*
X045306Y024909D01*
X045306Y024751D02*
X045356Y024751D01*
X045356Y024592D02*
X045306Y024592D01*
X045306Y024495D02*
X045126Y024495D01*
X044836Y024205D01*
X044836Y024025D01*
X045306Y024025D01*
X045306Y024495D01*
X045356Y024495D02*
X045356Y024025D01*
X045826Y024025D01*
X045826Y024205D01*
X045536Y024495D01*
X045356Y024495D01*
X045356Y024434D02*
X045306Y024434D01*
X045306Y024275D02*
X045356Y024275D01*
X045356Y024117D02*
X045306Y024117D01*
X045306Y024025D02*
X045356Y024025D01*
X045356Y023975D01*
X045826Y023975D01*
X045826Y023795D01*
X045536Y023505D01*
X045356Y023505D01*
X045356Y023975D01*
X045306Y023975D01*
X045306Y023505D01*
X045126Y023505D01*
X044836Y023795D01*
X044836Y023975D01*
X045306Y023975D01*
X045306Y024025D01*
X045306Y023958D02*
X045356Y023958D01*
X045356Y023800D02*
X045306Y023800D01*
X045306Y023641D02*
X045356Y023641D01*
X045356Y023495D02*
X045356Y023025D01*
X045826Y023025D01*
X045826Y023205D01*
X045536Y023495D01*
X045356Y023495D01*
X045356Y023483D02*
X045306Y023483D01*
X045306Y023495D02*
X045126Y023495D01*
X044836Y023205D01*
X044836Y023025D01*
X045306Y023025D01*
X045306Y023495D01*
X045306Y023324D02*
X045356Y023324D01*
X045356Y023166D02*
X045306Y023166D01*
X045306Y023025D02*
X045356Y023025D01*
X045356Y022975D01*
X045826Y022975D01*
X045826Y022795D01*
X045536Y022505D01*
X045356Y022505D01*
X045356Y022975D01*
X045306Y022975D01*
X045306Y022505D01*
X045126Y022505D01*
X044836Y022795D01*
X044836Y022975D01*
X045306Y022975D01*
X045306Y023025D01*
X045306Y023007D02*
X012453Y023007D01*
X012481Y022901D02*
X012403Y023194D01*
X012251Y023456D01*
X012037Y023670D01*
X011775Y023822D01*
X011482Y023900D01*
X011180Y023900D01*
X010887Y023822D01*
X010625Y023670D01*
X010411Y023456D01*
X010259Y023194D01*
X010181Y022901D01*
X010181Y022599D01*
X010259Y022306D01*
X010411Y022044D01*
X010625Y021830D01*
X010887Y021678D01*
X011180Y021600D01*
X011482Y021600D01*
X011775Y021678D01*
X012037Y021830D01*
X012251Y022044D01*
X012403Y022306D01*
X012481Y022599D01*
X012481Y022901D01*
X012481Y022849D02*
X044836Y022849D01*
X044941Y022690D02*
X012481Y022690D01*
X012463Y022532D02*
X045099Y022532D01*
X045306Y022532D02*
X045356Y022532D01*
X045356Y022690D02*
X045306Y022690D01*
X045306Y022849D02*
X045356Y022849D01*
X045356Y023007D02*
X054851Y023007D01*
X054851Y022849D02*
X045826Y022849D01*
X045721Y022690D02*
X054851Y022690D01*
X054851Y022532D02*
X045563Y022532D01*
X045826Y023166D02*
X054851Y023166D01*
X054851Y023324D02*
X045707Y023324D01*
X045548Y023483D02*
X054851Y023483D01*
X054851Y023641D02*
X045672Y023641D01*
X045826Y023800D02*
X054851Y023800D01*
X054851Y023958D02*
X045826Y023958D01*
X045826Y024117D02*
X054851Y024117D01*
X054851Y024275D02*
X045756Y024275D01*
X045597Y024434D02*
X054851Y024434D01*
X054851Y024592D02*
X045623Y024592D01*
X045782Y024751D02*
X054851Y024751D01*
X054851Y024909D02*
X045826Y024909D01*
X045826Y025068D02*
X054851Y025068D01*
X054851Y025226D02*
X045805Y025226D01*
X045356Y025702D02*
X045306Y025702D01*
X045306Y025860D02*
X045356Y025860D01*
X045356Y026177D02*
X045306Y026177D01*
X045306Y026336D02*
X045356Y026336D01*
X045356Y026494D02*
X045306Y026494D01*
X045306Y026505D02*
X045306Y026975D01*
X044836Y026975D01*
X044836Y026795D01*
X045126Y026505D01*
X045306Y026505D01*
X045306Y026653D02*
X045356Y026653D01*
X045356Y026811D02*
X045306Y026811D01*
X045306Y026970D02*
X045356Y026970D01*
X045356Y027128D02*
X045306Y027128D01*
X045306Y027287D02*
X045356Y027287D01*
X045356Y027445D02*
X045306Y027445D01*
X045076Y027445D02*
X041026Y027445D01*
X040868Y027287D02*
X044917Y027287D01*
X044836Y027128D02*
X040709Y027128D01*
X040551Y026970D02*
X044836Y026970D01*
X044836Y026811D02*
X040392Y026811D01*
X040234Y026653D02*
X044978Y026653D01*
X045125Y026494D02*
X040075Y026494D01*
X039917Y026336D02*
X044966Y026336D01*
X044836Y026177D02*
X039758Y026177D01*
X041819Y028238D02*
X041822Y028238D01*
X042340Y028238D02*
X054851Y028238D01*
X054851Y028396D02*
X042692Y028396D01*
X042863Y028555D02*
X054851Y028555D01*
X054851Y028713D02*
X042978Y028713D01*
X043061Y028872D02*
X054851Y028872D01*
X054851Y029030D02*
X043104Y029030D01*
X043126Y029189D02*
X054851Y029189D01*
X054851Y029347D02*
X043126Y029347D01*
X043094Y029506D02*
X054851Y029506D01*
X054851Y029664D02*
X043245Y029664D01*
X043404Y029823D02*
X054851Y029823D01*
X054851Y029981D02*
X043562Y029981D01*
X043721Y030140D02*
X054851Y030140D01*
X054851Y030298D02*
X043879Y030298D01*
X044038Y030457D02*
X054851Y030457D01*
X054851Y030615D02*
X044196Y030615D01*
X044355Y030774D02*
X054851Y030774D01*
X054851Y030932D02*
X044513Y030932D01*
X044672Y031091D02*
X054851Y031091D01*
X054851Y031249D02*
X044830Y031249D01*
X044989Y031408D02*
X054851Y031408D01*
X054851Y031566D02*
X045147Y031566D01*
X045306Y031725D02*
X054851Y031725D01*
X054851Y031883D02*
X045464Y031883D01*
X047409Y034578D02*
X032909Y034578D01*
X033067Y034736D02*
X047567Y034736D01*
X047726Y034895D02*
X033226Y034895D01*
X033384Y035053D02*
X047884Y035053D01*
X048043Y035212D02*
X033543Y035212D01*
X033701Y035370D02*
X048201Y035370D01*
X048360Y035529D02*
X033860Y035529D01*
X034018Y035687D02*
X048518Y035687D01*
X048793Y035212D02*
X050116Y035212D01*
X050267Y035053D02*
X048634Y035053D01*
X048476Y034895D02*
X050425Y034895D01*
X051237Y034895D02*
X051425Y034895D01*
X052237Y034895D02*
X052425Y034895D01*
X052482Y036163D02*
X052180Y036163D01*
X051482Y036163D02*
X051180Y036163D01*
X050482Y036163D02*
X034494Y036163D01*
X034335Y036004D02*
X050324Y036004D01*
X050165Y035846D02*
X034177Y035846D01*
X036713Y038382D02*
X051188Y038382D01*
X051030Y038540D02*
X036871Y038540D01*
X038778Y038065D02*
X038884Y038065D01*
X039778Y038065D02*
X039884Y038065D01*
X040778Y038065D02*
X040884Y038065D01*
X041778Y038065D02*
X041884Y038065D01*
X042778Y038065D02*
X042884Y038065D01*
X041509Y033627D02*
X029969Y033627D01*
X029874Y033468D02*
X041321Y033468D01*
X041197Y033310D02*
X030033Y033310D01*
X030046Y033151D02*
X041107Y033151D01*
X041064Y032993D02*
X030046Y032993D01*
X030046Y032834D02*
X041036Y032834D01*
X041036Y032676D02*
X039568Y032676D01*
X039825Y032517D02*
X041062Y032517D01*
X041104Y032359D02*
X039956Y032359D01*
X040022Y032200D02*
X041192Y032200D01*
X041312Y032042D02*
X040046Y032042D01*
X040046Y031883D02*
X041493Y031883D01*
X039039Y029347D02*
X036623Y029347D01*
X036848Y029506D02*
X038814Y029506D01*
X033125Y029506D02*
X032537Y029506D01*
X032356Y029506D02*
X032306Y029506D01*
X032306Y029664D02*
X032356Y029664D01*
X032356Y029823D02*
X032306Y029823D01*
X032306Y030140D02*
X032356Y030140D01*
X032356Y030298D02*
X032306Y030298D01*
X032306Y030457D02*
X032356Y030457D01*
X032574Y030457D02*
X033087Y030457D01*
X032929Y030298D02*
X032733Y030298D01*
X032826Y030140D02*
X032836Y030140D01*
X032826Y029823D02*
X032836Y029823D01*
X032967Y029664D02*
X032695Y029664D01*
X032125Y029506D02*
X031537Y029506D01*
X031356Y029506D02*
X031306Y029506D01*
X031306Y029664D02*
X031356Y029664D01*
X031356Y029823D02*
X031306Y029823D01*
X031306Y030140D02*
X031356Y030140D01*
X031356Y030298D02*
X031306Y030298D01*
X031306Y030457D02*
X031356Y030457D01*
X031574Y030457D02*
X032087Y030457D01*
X031929Y030298D02*
X031733Y030298D01*
X031826Y030140D02*
X031836Y030140D01*
X031826Y029823D02*
X031836Y029823D01*
X031967Y029664D02*
X031695Y029664D01*
X031125Y029506D02*
X030537Y029506D01*
X030695Y029664D02*
X030967Y029664D01*
X030836Y029823D02*
X030826Y029823D01*
X030826Y030140D02*
X030836Y030140D01*
X030929Y030298D02*
X030733Y030298D01*
X030574Y030457D02*
X031087Y030457D01*
X030673Y027604D02*
X025941Y027604D01*
X025897Y027445D02*
X030515Y027445D01*
X030426Y027287D02*
X025986Y027287D01*
X026046Y027128D02*
X029229Y027128D01*
X029039Y026970D02*
X026046Y026970D01*
X026027Y026811D02*
X028936Y026811D01*
X028870Y026653D02*
X025961Y026653D01*
X025848Y026494D02*
X028866Y026494D01*
X028875Y026336D02*
X025966Y026336D01*
X026032Y026177D02*
X028347Y026177D01*
X028088Y026019D02*
X026046Y026019D01*
X025714Y025385D02*
X027866Y025385D01*
X027921Y025226D02*
X010168Y025226D01*
X010168Y025068D02*
X027952Y025068D01*
X027899Y024909D02*
X010168Y024909D01*
X010168Y024751D02*
X027846Y024751D01*
X027662Y024592D02*
X010168Y024592D01*
X010168Y024434D02*
X027503Y024434D01*
X027421Y024275D02*
X010168Y024275D01*
X010168Y024117D02*
X027366Y024117D01*
X027366Y023958D02*
X010168Y023958D01*
X010168Y023800D02*
X010849Y023800D01*
X010596Y023641D02*
X010168Y023641D01*
X010168Y023483D02*
X010437Y023483D01*
X010334Y023324D02*
X010168Y023324D01*
X010168Y023166D02*
X010252Y023166D01*
X010209Y023007D02*
X010168Y023007D01*
X010168Y022849D02*
X010181Y022849D01*
X010168Y022690D02*
X010181Y022690D01*
X010168Y022532D02*
X010199Y022532D01*
X010168Y022373D02*
X010241Y022373D01*
X010312Y022215D02*
X010168Y022215D01*
X010168Y022056D02*
X010404Y022056D01*
X010557Y021898D02*
X010168Y021898D01*
X010168Y021739D02*
X010782Y021739D01*
X010168Y021581D02*
X054851Y021581D01*
X054851Y021739D02*
X011880Y021739D01*
X012105Y021898D02*
X054851Y021898D01*
X054851Y022056D02*
X012258Y022056D01*
X012350Y022215D02*
X054851Y022215D01*
X054851Y022373D02*
X012421Y022373D01*
X012410Y023166D02*
X044836Y023166D01*
X044955Y023324D02*
X028317Y023324D01*
X028575Y023483D02*
X045113Y023483D01*
X044990Y023641D02*
X028706Y023641D01*
X028772Y023800D02*
X044836Y023800D01*
X044836Y023958D02*
X028796Y023958D01*
X028796Y024117D02*
X044836Y024117D01*
X044906Y024275D02*
X028741Y024275D01*
X028710Y024434D02*
X045064Y024434D01*
X045039Y024592D02*
X028763Y024592D01*
X028816Y024751D02*
X044880Y024751D01*
X044836Y024909D02*
X029001Y024909D01*
X029160Y025068D02*
X044836Y025068D01*
X044857Y025226D02*
X029241Y025226D01*
X028941Y026177D02*
X028815Y026177D01*
X029933Y027128D02*
X030010Y027128D01*
X027390Y023800D02*
X011813Y023800D01*
X012066Y023641D02*
X027456Y023641D01*
X027587Y023483D02*
X012225Y023483D01*
X012327Y023324D02*
X027845Y023324D01*
X024948Y025385D02*
X018714Y025385D01*
X018885Y025543D02*
X024777Y025543D01*
X024681Y025702D02*
X018981Y025702D01*
X019046Y025860D02*
X024616Y025860D01*
X024616Y026019D02*
X019046Y026019D01*
X019032Y026177D02*
X024630Y026177D01*
X024696Y026336D02*
X018966Y026336D01*
X018848Y026494D02*
X024814Y026494D01*
X024701Y026653D02*
X018961Y026653D01*
X019027Y026811D02*
X024635Y026811D01*
X024616Y026970D02*
X019046Y026970D01*
X019046Y027128D02*
X024616Y027128D01*
X024676Y027287D02*
X018986Y027287D01*
X018897Y027445D02*
X024765Y027445D01*
X024721Y027604D02*
X018941Y027604D01*
X019006Y027762D02*
X024656Y027762D01*
X024616Y027921D02*
X019046Y027921D01*
X019046Y028079D02*
X024616Y028079D01*
X024655Y028238D02*
X019006Y028238D01*
X018941Y028396D02*
X024721Y028396D01*
X024874Y028555D02*
X018788Y028555D01*
X017616Y027921D02*
X010168Y027921D01*
X010168Y027762D02*
X017656Y027762D01*
X017721Y027604D02*
X010168Y027604D01*
X010168Y027445D02*
X017765Y027445D01*
X017676Y027287D02*
X010168Y027287D01*
X010168Y027128D02*
X017616Y027128D01*
X017616Y026970D02*
X010168Y026970D01*
X010168Y026811D02*
X017635Y026811D01*
X017701Y026653D02*
X010168Y026653D01*
X010168Y026494D02*
X017814Y026494D01*
X017696Y026336D02*
X010168Y026336D01*
X010168Y026177D02*
X017630Y026177D01*
X017616Y026019D02*
X010168Y026019D01*
X010168Y025860D02*
X017616Y025860D01*
X017681Y025702D02*
X010168Y025702D01*
X010168Y025543D02*
X017777Y025543D01*
X017948Y025385D02*
X010168Y025385D01*
X010168Y021422D02*
X054851Y021422D01*
X054851Y021264D02*
X010168Y021264D01*
X010168Y021105D02*
X034175Y021105D01*
X034176Y021106D02*
X033975Y020905D01*
X033866Y020642D01*
X033866Y020358D01*
X033975Y020095D01*
X034176Y019894D01*
X034439Y019785D01*
X034723Y019785D01*
X034986Y019894D01*
X035187Y020095D01*
X035296Y020358D01*
X035296Y020642D01*
X035187Y020905D01*
X034986Y021106D01*
X034723Y021215D01*
X034439Y021215D01*
X034176Y021106D01*
X034016Y020947D02*
X010168Y020947D01*
X010168Y020788D02*
X033926Y020788D01*
X033866Y020630D02*
X010168Y020630D01*
X010168Y020471D02*
X033866Y020471D01*
X033885Y020313D02*
X010168Y020313D01*
X010168Y020154D02*
X033950Y020154D01*
X034074Y019996D02*
X010168Y019996D01*
X010168Y019837D02*
X034313Y019837D01*
X034849Y019837D02*
X037313Y019837D01*
X037439Y019785D02*
X037723Y019785D01*
X037986Y019894D01*
X038187Y020095D01*
X038296Y020358D01*
X038296Y020642D01*
X038187Y020905D01*
X037986Y021106D01*
X037723Y021215D01*
X037439Y021215D01*
X037176Y021106D01*
X036975Y020905D01*
X036866Y020642D01*
X036866Y020358D01*
X036975Y020095D01*
X037176Y019894D01*
X037439Y019785D01*
X037849Y019837D02*
X054851Y019837D01*
X054851Y019679D02*
X010168Y019679D01*
X010168Y019520D02*
X054851Y019520D01*
X054851Y019362D02*
X050156Y019362D01*
X050104Y019392D02*
X049792Y019475D01*
X049470Y019475D01*
X049158Y019392D01*
X048879Y019230D01*
X048651Y019002D01*
X048489Y018723D01*
X048406Y018411D01*
X048406Y018089D01*
X048489Y017777D01*
X048651Y017498D01*
X048879Y017270D01*
X049158Y017108D01*
X049470Y017025D01*
X049792Y017025D01*
X050104Y017108D01*
X050383Y017270D01*
X050611Y017498D01*
X050772Y017777D01*
X054851Y017777D01*
X054851Y017935D02*
X050815Y017935D01*
X050856Y018089D02*
X050772Y017777D01*
X050681Y017618D02*
X054851Y017618D01*
X054851Y017460D02*
X050573Y017460D01*
X050414Y017301D02*
X054851Y017301D01*
X054851Y017143D02*
X050163Y017143D01*
X049099Y017143D02*
X038207Y017143D01*
X038187Y017095D02*
X038296Y017358D01*
X038296Y017642D01*
X038187Y017905D01*
X037986Y018106D01*
X037723Y018215D01*
X037439Y018215D01*
X037176Y018106D01*
X036975Y017905D01*
X036866Y017642D01*
X036866Y017358D01*
X036975Y017095D01*
X037176Y016894D01*
X037439Y016785D01*
X037723Y016785D01*
X037986Y016894D01*
X038187Y017095D01*
X038076Y016984D02*
X054851Y016984D01*
X054851Y016826D02*
X037821Y016826D01*
X037341Y016826D02*
X034821Y016826D01*
X034723Y016785D02*
X034986Y016894D01*
X035187Y017095D01*
X035296Y017358D01*
X035296Y017642D01*
X035187Y017905D01*
X034986Y018106D01*
X034723Y018215D01*
X034439Y018215D01*
X034176Y018106D01*
X033975Y017905D01*
X033866Y017642D01*
X033866Y017358D01*
X033975Y017095D01*
X034176Y016894D01*
X034439Y016785D01*
X034723Y016785D01*
X034341Y016826D02*
X026783Y016826D01*
X026796Y016858D02*
X026796Y017142D01*
X026687Y017405D01*
X026486Y017606D01*
X026223Y017715D01*
X025939Y017715D01*
X025676Y017606D01*
X025530Y017460D01*
X022632Y017460D01*
X022486Y017606D01*
X022223Y017715D01*
X021939Y017715D01*
X021676Y017606D01*
X021475Y017405D01*
X021366Y017142D01*
X021366Y016858D01*
X021475Y016595D01*
X021570Y016500D01*
X021475Y016405D01*
X021366Y016142D01*
X021366Y015858D01*
X021475Y015595D01*
X021570Y015500D01*
X021475Y015405D01*
X021366Y015142D01*
X021366Y014858D01*
X021475Y014595D01*
X021570Y014500D01*
X021475Y014405D01*
X021366Y014142D01*
X021366Y013858D01*
X021475Y013595D01*
X021570Y013500D01*
X021475Y013405D01*
X021366Y013142D01*
X021366Y012858D01*
X021475Y012595D01*
X021570Y012500D01*
X021475Y012405D01*
X021366Y012142D01*
X021366Y011858D01*
X021475Y011595D01*
X021570Y011500D01*
X021475Y011405D01*
X021366Y011142D01*
X021366Y010858D01*
X021475Y010595D01*
X021570Y010500D01*
X021475Y010405D01*
X021366Y010142D01*
X021366Y009858D01*
X021475Y009595D01*
X021570Y009500D01*
X021475Y009405D01*
X021366Y009142D01*
X021366Y008858D01*
X021475Y008595D01*
X021676Y008394D01*
X021939Y008285D01*
X022223Y008285D01*
X022486Y008394D01*
X022632Y008540D01*
X025530Y008540D01*
X025676Y008394D01*
X025939Y008285D01*
X026223Y008285D01*
X026486Y008394D01*
X026687Y008595D01*
X026796Y008858D01*
X026796Y009142D01*
X026687Y009405D01*
X026592Y009500D01*
X026687Y009595D01*
X026796Y009858D01*
X026796Y010142D01*
X026687Y010405D01*
X026592Y010500D01*
X026687Y010595D01*
X026796Y010858D01*
X026796Y011142D01*
X026687Y011405D01*
X026592Y011500D01*
X026687Y011595D01*
X026796Y011858D01*
X026796Y012142D01*
X026687Y012405D01*
X026592Y012500D01*
X026687Y012595D01*
X026796Y012858D01*
X026796Y013142D01*
X026687Y013405D01*
X026592Y013500D01*
X026687Y013595D01*
X026796Y013858D01*
X026796Y014142D01*
X026687Y014405D01*
X026592Y014500D01*
X026687Y014595D01*
X026796Y014858D01*
X026796Y015142D01*
X026687Y015405D01*
X026592Y015500D01*
X026687Y015595D01*
X026796Y015858D01*
X026796Y016142D01*
X026687Y016405D01*
X026592Y016500D01*
X026687Y016595D01*
X026796Y016858D01*
X026796Y016984D02*
X034086Y016984D01*
X033955Y017143D02*
X026796Y017143D01*
X026730Y017301D02*
X033889Y017301D01*
X033866Y017460D02*
X026633Y017460D01*
X026457Y017618D02*
X033866Y017618D01*
X033922Y017777D02*
X010168Y017777D01*
X010168Y017935D02*
X034005Y017935D01*
X034163Y018094D02*
X010168Y018094D01*
X010168Y018252D02*
X048406Y018252D01*
X048406Y018094D02*
X037999Y018094D01*
X038157Y017935D02*
X048447Y017935D01*
X048490Y017777D02*
X038240Y017777D01*
X038296Y017618D02*
X048581Y017618D01*
X048689Y017460D02*
X038296Y017460D01*
X038272Y017301D02*
X048848Y017301D01*
X048406Y018411D02*
X010168Y018411D01*
X010168Y018569D02*
X048448Y018569D01*
X048492Y018728D02*
X010168Y018728D01*
X010168Y018886D02*
X048584Y018886D01*
X048693Y019045D02*
X010168Y019045D01*
X010168Y019203D02*
X048852Y019203D01*
X049106Y019362D02*
X010168Y019362D01*
X010168Y017618D02*
X021705Y017618D01*
X021529Y017460D02*
X010168Y017460D01*
X010168Y017301D02*
X021432Y017301D01*
X021366Y017143D02*
X010168Y017143D01*
X010168Y016984D02*
X021366Y016984D01*
X021379Y016826D02*
X010168Y016826D01*
X010168Y016667D02*
X021445Y016667D01*
X021561Y016509D02*
X010168Y016509D01*
X010168Y016350D02*
X021452Y016350D01*
X021386Y016192D02*
X010168Y016192D01*
X010168Y016033D02*
X021366Y016033D01*
X021366Y015875D02*
X010168Y015875D01*
X010168Y015716D02*
X021425Y015716D01*
X021512Y015558D02*
X010168Y015558D01*
X010168Y015399D02*
X021472Y015399D01*
X021407Y015241D02*
X010168Y015241D01*
X010168Y015082D02*
X021366Y015082D01*
X021366Y014924D02*
X010168Y014924D01*
X010168Y014765D02*
X021404Y014765D01*
X021470Y014607D02*
X010168Y014607D01*
X010168Y014448D02*
X021518Y014448D01*
X021427Y014290D02*
X010168Y014290D01*
X010168Y014131D02*
X021366Y014131D01*
X021366Y013973D02*
X010168Y013973D01*
X010168Y013814D02*
X021384Y013814D01*
X021450Y013656D02*
X010168Y013656D01*
X010168Y013497D02*
X021567Y013497D01*
X021447Y013339D02*
X010168Y013339D01*
X010168Y013180D02*
X021382Y013180D01*
X021366Y013022D02*
X010168Y013022D01*
X010168Y012863D02*
X021366Y012863D01*
X021429Y012705D02*
X010168Y012705D01*
X010168Y012546D02*
X021524Y012546D01*
X021468Y012388D02*
X010168Y012388D01*
X010168Y012229D02*
X021402Y012229D01*
X021366Y012071D02*
X010168Y012071D01*
X010168Y011912D02*
X021366Y011912D01*
X021409Y011754D02*
X010168Y011754D01*
X010168Y011595D02*
X021475Y011595D01*
X021506Y011437D02*
X010168Y011437D01*
X010168Y011278D02*
X021422Y011278D01*
X021366Y011120D02*
X010168Y011120D01*
X010168Y010961D02*
X021366Y010961D01*
X021389Y010803D02*
X010168Y010803D01*
X010168Y010644D02*
X021455Y010644D01*
X021555Y010486D02*
X010168Y010486D01*
X010168Y010327D02*
X021443Y010327D01*
X021377Y010169D02*
X010168Y010169D01*
X010168Y010010D02*
X021366Y010010D01*
X021369Y009852D02*
X010168Y009852D01*
X010168Y009693D02*
X021434Y009693D01*
X021535Y009535D02*
X010168Y009535D01*
X010168Y009376D02*
X021463Y009376D01*
X021397Y009218D02*
X010168Y009218D01*
X010168Y009059D02*
X021366Y009059D01*
X021366Y008901D02*
X010168Y008901D01*
X010168Y008742D02*
X021414Y008742D01*
X021486Y008584D02*
X010168Y008584D01*
X010168Y008425D02*
X021645Y008425D01*
X022517Y008425D02*
X025645Y008425D01*
X026517Y008425D02*
X060331Y008425D01*
X060331Y008267D02*
X010168Y008267D01*
X010168Y008108D02*
X060331Y008108D01*
X060331Y007950D02*
X047011Y007950D01*
X047301Y007791D02*
X060331Y007791D01*
X060331Y007633D02*
X047446Y007633D01*
X047512Y007474D02*
X060331Y007474D01*
X060331Y007316D02*
X047546Y007316D01*
X047546Y007157D02*
X060331Y007157D01*
X060331Y006999D02*
X047501Y006999D01*
X047432Y006840D02*
X060331Y006840D01*
X060331Y006682D02*
X047274Y006682D01*
X046388Y006682D02*
X046291Y006682D01*
X046291Y006523D02*
X060331Y006523D01*
X060331Y006365D02*
X056524Y006365D01*
X056505Y006372D02*
X056157Y006372D01*
X055837Y006240D01*
X055591Y005994D01*
X055458Y005674D01*
X055458Y005326D01*
X055591Y005006D01*
X055837Y004760D01*
X056157Y004628D01*
X056505Y004628D01*
X056825Y004760D01*
X057071Y005006D01*
X057203Y005326D01*
X057203Y005674D01*
X057071Y005994D01*
X056825Y006240D01*
X056505Y006372D01*
X056138Y006365D02*
X054524Y006365D01*
X054505Y006372D02*
X054157Y006372D01*
X053837Y006240D01*
X053591Y005994D01*
X053458Y005674D01*
X053458Y005326D01*
X053591Y005006D01*
X053837Y004760D01*
X054157Y004628D01*
X054505Y004628D01*
X054825Y004760D01*
X055071Y005006D01*
X055203Y005326D01*
X055203Y005674D01*
X055071Y005994D01*
X054825Y006240D01*
X054505Y006372D01*
X054138Y006365D02*
X046291Y006365D01*
X046291Y006206D02*
X053803Y006206D01*
X053645Y006048D02*
X046291Y006048D01*
X046291Y005889D02*
X053548Y005889D01*
X053482Y005731D02*
X046291Y005731D01*
X046291Y005572D02*
X053458Y005572D01*
X053458Y005414D02*
X046291Y005414D01*
X046291Y005255D02*
X053488Y005255D01*
X053554Y005097D02*
X046245Y005097D01*
X046120Y004938D02*
X053659Y004938D01*
X053818Y004780D02*
X046091Y004780D01*
X046091Y004621D02*
X060331Y004621D01*
X060331Y004463D02*
X046164Y004463D01*
X046251Y004304D02*
X060331Y004304D01*
X060331Y004146D02*
X047605Y004146D01*
X047788Y003987D02*
X060331Y003987D01*
X060331Y003829D02*
X047854Y003829D01*
X047866Y003670D02*
X060331Y003670D01*
X060331Y003512D02*
X047866Y003512D01*
X047866Y003353D02*
X060331Y003353D01*
X060331Y003195D02*
X047866Y003195D01*
X048007Y003036D02*
X060331Y003036D01*
X060331Y002878D02*
X048248Y002878D01*
X048338Y002719D02*
X060331Y002719D01*
X060331Y002561D02*
X048366Y002561D01*
X048366Y002402D02*
X060331Y002402D01*
X060331Y002244D02*
X048366Y002244D01*
X048366Y002085D02*
X060331Y002085D01*
X060331Y001927D02*
X048366Y001927D01*
X048353Y001768D02*
X060331Y001768D01*
X060331Y001610D02*
X048285Y001610D01*
X043411Y004304D02*
X039796Y004304D01*
X039796Y004146D02*
X042057Y004146D01*
X041874Y003987D02*
X039796Y003987D01*
X039796Y003954D02*
X039796Y004546D01*
X039377Y004965D01*
X038785Y004965D01*
X038581Y004761D01*
X038377Y004965D01*
X037785Y004965D01*
X037581Y004761D01*
X037377Y004965D01*
X036785Y004965D01*
X036366Y004546D01*
X036366Y003954D01*
X036785Y003535D01*
X037377Y003535D01*
X037581Y003739D01*
X037785Y003535D01*
X038377Y003535D01*
X038581Y003739D01*
X038785Y003535D01*
X039377Y003535D01*
X039796Y003954D01*
X039671Y003829D02*
X041808Y003829D01*
X041796Y003670D02*
X039512Y003670D01*
X039796Y004463D02*
X043498Y004463D01*
X043571Y004621D02*
X039721Y004621D01*
X039563Y004780D02*
X043571Y004780D01*
X043542Y004938D02*
X039404Y004938D01*
X038758Y004938D02*
X038404Y004938D01*
X038563Y004780D02*
X038599Y004780D01*
X037758Y004938D02*
X037404Y004938D01*
X037563Y004780D02*
X037599Y004780D01*
X036758Y004938D02*
X032620Y004938D01*
X032591Y004780D02*
X036599Y004780D01*
X036441Y004621D02*
X032591Y004621D01*
X032664Y004463D02*
X036366Y004463D01*
X036366Y004304D02*
X032751Y004304D01*
X032745Y005097D02*
X043384Y005097D01*
X043225Y005255D02*
X032791Y005255D01*
X032791Y005414D02*
X043067Y005414D01*
X042908Y005572D02*
X032791Y005572D01*
X032791Y005731D02*
X042750Y005731D01*
X042591Y005889D02*
X032791Y005889D01*
X032791Y006048D02*
X042438Y006048D01*
X042372Y006206D02*
X032791Y006206D01*
X032791Y006365D02*
X042371Y006365D01*
X042371Y006523D02*
X032791Y006523D01*
X032791Y006682D02*
X032888Y006682D01*
X033774Y006682D02*
X042371Y006682D01*
X042230Y006840D02*
X039371Y006840D01*
X039286Y006755D02*
X039576Y007045D01*
X039576Y007225D01*
X039106Y007225D01*
X039106Y007275D01*
X039576Y007275D01*
X039576Y007455D01*
X039286Y007745D01*
X039106Y007745D01*
X039106Y007275D01*
X039056Y007275D01*
X039056Y007745D01*
X038876Y007745D01*
X038586Y007455D01*
X038586Y007275D01*
X039056Y007275D01*
X039056Y007225D01*
X039106Y007225D01*
X039106Y006755D01*
X039286Y006755D01*
X039106Y006840D02*
X039056Y006840D01*
X039056Y006755D02*
X039056Y007225D01*
X038586Y007225D01*
X038586Y007045D01*
X038876Y006755D01*
X039056Y006755D01*
X039056Y006999D02*
X039106Y006999D01*
X039106Y007157D02*
X039056Y007157D01*
X039056Y007316D02*
X039106Y007316D01*
X039106Y007474D02*
X039056Y007474D01*
X039056Y007633D02*
X039106Y007633D01*
X039398Y007633D02*
X042216Y007633D01*
X042150Y007474D02*
X039557Y007474D01*
X039576Y007316D02*
X042116Y007316D01*
X042116Y007157D02*
X039576Y007157D01*
X039530Y006999D02*
X042161Y006999D01*
X042361Y007791D02*
X033801Y007791D01*
X033946Y007633D02*
X036763Y007633D01*
X036876Y007745D02*
X036586Y007455D01*
X036586Y007275D01*
X037056Y007275D01*
X037056Y007745D01*
X036876Y007745D01*
X037056Y007633D02*
X037106Y007633D01*
X037106Y007745D02*
X037286Y007745D01*
X037576Y007455D01*
X037576Y007275D01*
X037106Y007275D01*
X037106Y007225D01*
X037576Y007225D01*
X037576Y007045D01*
X037286Y006755D01*
X037106Y006755D01*
X037106Y007225D01*
X037056Y007225D01*
X037056Y006755D01*
X036876Y006755D01*
X036586Y007045D01*
X036586Y007225D01*
X037056Y007225D01*
X037056Y007275D01*
X037106Y007275D01*
X037106Y007745D01*
X037106Y007474D02*
X037056Y007474D01*
X037056Y007316D02*
X037106Y007316D01*
X037106Y007157D02*
X037056Y007157D01*
X037056Y006999D02*
X037106Y006999D01*
X037106Y006840D02*
X037056Y006840D01*
X036791Y006840D02*
X033932Y006840D01*
X034001Y006999D02*
X036632Y006999D01*
X036586Y007157D02*
X034046Y007157D01*
X034046Y007316D02*
X036586Y007316D01*
X036605Y007474D02*
X034012Y007474D01*
X033511Y007950D02*
X042651Y007950D01*
X043011Y007950D02*
X043651Y007950D01*
X043361Y007791D02*
X043301Y007791D01*
X044011Y007950D02*
X044651Y007950D01*
X044361Y007791D02*
X044301Y007791D01*
X045011Y007950D02*
X045651Y007950D01*
X045361Y007791D02*
X045301Y007791D01*
X046011Y007950D02*
X046651Y007950D01*
X046361Y007791D02*
X046301Y007791D01*
X045627Y010285D02*
X046046Y010704D01*
X046046Y011296D01*
X045842Y011500D01*
X046046Y011704D01*
X046046Y012296D01*
X045842Y012500D01*
X046046Y012704D01*
X046046Y013296D01*
X045842Y013500D01*
X046046Y013704D01*
X046046Y014296D01*
X045842Y014500D01*
X046046Y014704D01*
X046046Y015296D01*
X045627Y015715D01*
X045035Y015715D01*
X044616Y015296D01*
X044616Y014704D01*
X044820Y014500D01*
X044616Y014296D01*
X044616Y013704D01*
X044820Y013500D01*
X044616Y013296D01*
X044616Y012704D01*
X044820Y012500D01*
X044616Y012296D01*
X044616Y011704D01*
X044820Y011500D01*
X044616Y011296D01*
X044616Y010704D01*
X045035Y010285D01*
X045627Y010285D01*
X045669Y010327D02*
X052608Y010327D01*
X052608Y010326D02*
X052741Y010006D01*
X052987Y009760D01*
X053307Y009628D01*
X053655Y009628D01*
X053975Y009760D01*
X054221Y010006D01*
X054353Y010326D01*
X054353Y010674D01*
X054221Y010994D01*
X053975Y011240D01*
X053655Y011372D01*
X053307Y011372D01*
X052987Y011240D01*
X052741Y010994D01*
X052608Y010674D01*
X052608Y010326D01*
X052608Y010486D02*
X045828Y010486D01*
X045986Y010644D02*
X052608Y010644D01*
X052662Y010803D02*
X046046Y010803D01*
X046046Y010961D02*
X052728Y010961D01*
X052867Y011120D02*
X046046Y011120D01*
X046046Y011278D02*
X053079Y011278D01*
X053883Y011278D02*
X054851Y011278D01*
X054851Y011437D02*
X045906Y011437D01*
X045937Y011595D02*
X054851Y011595D01*
X054851Y011754D02*
X046046Y011754D01*
X046046Y011912D02*
X054851Y011912D01*
X054851Y012071D02*
X046046Y012071D01*
X046046Y012229D02*
X054851Y012229D01*
X054851Y012388D02*
X045955Y012388D01*
X045888Y012546D02*
X054851Y012546D01*
X054851Y012705D02*
X046046Y012705D01*
X046046Y012863D02*
X054851Y012863D01*
X054851Y013022D02*
X046046Y013022D01*
X046046Y013180D02*
X054851Y013180D01*
X054851Y013339D02*
X046004Y013339D01*
X045845Y013497D02*
X054851Y013497D01*
X054851Y013656D02*
X045998Y013656D01*
X046046Y013814D02*
X054851Y013814D01*
X054851Y013973D02*
X046046Y013973D01*
X046046Y014131D02*
X054851Y014131D01*
X054851Y014290D02*
X046046Y014290D01*
X045894Y014448D02*
X054851Y014448D01*
X054851Y014607D02*
X045949Y014607D01*
X046046Y014765D02*
X054851Y014765D01*
X054851Y014924D02*
X046046Y014924D01*
X046046Y015082D02*
X054851Y015082D01*
X054851Y015241D02*
X046046Y015241D01*
X045943Y015399D02*
X054851Y015399D01*
X054851Y015558D02*
X045785Y015558D01*
X044877Y015558D02*
X026650Y015558D01*
X026690Y015399D02*
X044719Y015399D01*
X044616Y015241D02*
X026755Y015241D01*
X026796Y015082D02*
X044616Y015082D01*
X044616Y014924D02*
X026796Y014924D01*
X026758Y014765D02*
X044616Y014765D01*
X044713Y014607D02*
X026692Y014607D01*
X026644Y014448D02*
X044768Y014448D01*
X044616Y014290D02*
X026735Y014290D01*
X026796Y014131D02*
X044616Y014131D01*
X044616Y013973D02*
X026796Y013973D01*
X026778Y013814D02*
X044616Y013814D01*
X044664Y013656D02*
X026712Y013656D01*
X026595Y013497D02*
X044817Y013497D01*
X044658Y013339D02*
X026715Y013339D01*
X026780Y013180D02*
X044616Y013180D01*
X044616Y013022D02*
X026796Y013022D01*
X026796Y012863D02*
X044616Y012863D01*
X044616Y012705D02*
X026732Y012705D01*
X026638Y012546D02*
X044774Y012546D01*
X044707Y012388D02*
X026694Y012388D01*
X026760Y012229D02*
X044616Y012229D01*
X044616Y012071D02*
X026796Y012071D01*
X026796Y011912D02*
X044616Y011912D01*
X044616Y011754D02*
X026753Y011754D01*
X026687Y011595D02*
X044725Y011595D01*
X044756Y011437D02*
X026656Y011437D01*
X026740Y011278D02*
X044616Y011278D01*
X044616Y011120D02*
X026796Y011120D01*
X026796Y010961D02*
X044616Y010961D01*
X044616Y010803D02*
X026773Y010803D01*
X026707Y010644D02*
X044676Y010644D01*
X044834Y010486D02*
X026607Y010486D01*
X026719Y010327D02*
X044993Y010327D01*
X038763Y007633D02*
X038398Y007633D01*
X038286Y007745D02*
X038106Y007745D01*
X038106Y007275D01*
X038576Y007275D01*
X038576Y007455D01*
X038286Y007745D01*
X038106Y007633D02*
X038056Y007633D01*
X038056Y007745D02*
X037876Y007745D01*
X037586Y007455D01*
X037586Y007275D01*
X038056Y007275D01*
X038056Y007745D01*
X038056Y007474D02*
X038106Y007474D01*
X038106Y007316D02*
X038056Y007316D01*
X038056Y007275D02*
X038106Y007275D01*
X038106Y007225D01*
X038576Y007225D01*
X038576Y007045D01*
X038286Y006755D01*
X038106Y006755D01*
X038106Y007225D01*
X038056Y007225D01*
X038056Y006755D01*
X037876Y006755D01*
X037586Y007045D01*
X037586Y007225D01*
X038056Y007225D01*
X038056Y007275D01*
X038056Y007157D02*
X038106Y007157D01*
X038106Y006999D02*
X038056Y006999D01*
X038056Y006840D02*
X038106Y006840D01*
X038371Y006840D02*
X038791Y006840D01*
X038632Y006999D02*
X038530Y006999D01*
X038576Y007157D02*
X038586Y007157D01*
X038576Y007316D02*
X038586Y007316D01*
X038605Y007474D02*
X038557Y007474D01*
X037763Y007633D02*
X037398Y007633D01*
X037557Y007474D02*
X037605Y007474D01*
X037586Y007316D02*
X037576Y007316D01*
X037576Y007157D02*
X037586Y007157D01*
X037632Y006999D02*
X037530Y006999D01*
X037371Y006840D02*
X037791Y006840D01*
X036366Y004146D02*
X034105Y004146D01*
X034288Y003987D02*
X036366Y003987D01*
X036491Y003829D02*
X034354Y003829D01*
X034366Y003670D02*
X036650Y003670D01*
X037512Y003670D02*
X037650Y003670D01*
X038512Y003670D02*
X038650Y003670D01*
X041324Y002719D02*
X034838Y002719D01*
X034866Y002561D02*
X041296Y002561D01*
X041296Y002402D02*
X034866Y002402D01*
X034866Y002244D02*
X041296Y002244D01*
X041296Y002085D02*
X034866Y002085D01*
X034866Y001927D02*
X041296Y001927D01*
X041309Y001768D02*
X034853Y001768D01*
X034785Y001610D02*
X041377Y001610D01*
X041414Y002878D02*
X034748Y002878D01*
X034507Y003036D02*
X041655Y003036D01*
X041796Y003195D02*
X034366Y003195D01*
X034366Y003353D02*
X041796Y003353D01*
X041796Y003512D02*
X034366Y003512D01*
X030071Y004621D02*
X010168Y004621D01*
X010168Y004463D02*
X029998Y004463D01*
X029911Y004304D02*
X011805Y004304D01*
X011775Y004322D02*
X011482Y004400D01*
X011180Y004400D01*
X010887Y004322D01*
X010625Y004170D01*
X010411Y003956D01*
X010259Y003694D01*
X010181Y003401D01*
X010181Y003099D01*
X010259Y002806D01*
X010411Y002544D01*
X010625Y002330D01*
X010887Y002178D01*
X011180Y002100D01*
X011482Y002100D01*
X011775Y002178D01*
X012037Y002330D01*
X012251Y002544D01*
X012403Y002806D01*
X012481Y003099D01*
X012481Y003401D01*
X012403Y003694D01*
X012251Y003956D01*
X012037Y004170D01*
X011775Y004322D01*
X012062Y004146D02*
X028557Y004146D01*
X028374Y003987D02*
X012220Y003987D01*
X012325Y003829D02*
X028308Y003829D01*
X028296Y003670D02*
X012409Y003670D01*
X012451Y003512D02*
X028296Y003512D01*
X028296Y003353D02*
X012481Y003353D01*
X012481Y003195D02*
X028296Y003195D01*
X028155Y003036D02*
X012464Y003036D01*
X012422Y002878D02*
X027914Y002878D01*
X027824Y002719D02*
X012352Y002719D01*
X012261Y002561D02*
X027796Y002561D01*
X027796Y002402D02*
X012109Y002402D01*
X011888Y002244D02*
X027796Y002244D01*
X027796Y002085D02*
X010295Y002085D01*
X010293Y001927D02*
X027796Y001927D01*
X027809Y001768D02*
X010266Y001768D01*
X010246Y001610D02*
X027877Y001610D01*
X030071Y004780D02*
X010168Y004780D01*
X010168Y004938D02*
X030042Y004938D01*
X029884Y005097D02*
X010168Y005097D01*
X010168Y005255D02*
X029725Y005255D01*
X029567Y005414D02*
X010168Y005414D01*
X010168Y005572D02*
X029408Y005572D01*
X029250Y005731D02*
X010168Y005731D01*
X010168Y005889D02*
X029091Y005889D01*
X028938Y006048D02*
X010168Y006048D01*
X010168Y006206D02*
X028872Y006206D01*
X028871Y006365D02*
X010168Y006365D01*
X010168Y006523D02*
X028871Y006523D01*
X028871Y006682D02*
X010168Y006682D01*
X010168Y006840D02*
X028730Y006840D01*
X028661Y006999D02*
X010168Y006999D01*
X010168Y007157D02*
X028616Y007157D01*
X028616Y007316D02*
X010168Y007316D01*
X010168Y007474D02*
X028650Y007474D01*
X028716Y007633D02*
X010168Y007633D01*
X010168Y007791D02*
X028861Y007791D01*
X029151Y007950D02*
X010168Y007950D01*
X010168Y004304D02*
X010857Y004304D01*
X010600Y004146D02*
X010168Y004146D01*
X010168Y003987D02*
X010442Y003987D01*
X010337Y003829D02*
X010168Y003829D01*
X010168Y003670D02*
X010253Y003670D01*
X010210Y003512D02*
X010168Y003512D01*
X010168Y003353D02*
X010181Y003353D01*
X010168Y003195D02*
X010181Y003195D01*
X010168Y003036D02*
X010198Y003036D01*
X010168Y002878D02*
X010240Y002878D01*
X010310Y002719D02*
X010168Y002719D01*
X010168Y002561D02*
X010401Y002561D01*
X010553Y002402D02*
X010168Y002402D01*
X010251Y002244D02*
X010774Y002244D01*
X026676Y008584D02*
X060331Y008584D01*
X060331Y008742D02*
X026748Y008742D01*
X026796Y008901D02*
X060331Y008901D01*
X060331Y009059D02*
X026796Y009059D01*
X026765Y009218D02*
X060331Y009218D01*
X060331Y009376D02*
X026699Y009376D01*
X026627Y009535D02*
X060331Y009535D01*
X060331Y009693D02*
X057513Y009693D01*
X057355Y009628D02*
X057675Y009760D01*
X057921Y010006D01*
X058053Y010326D01*
X058053Y010674D01*
X057921Y010994D01*
X057675Y011240D01*
X057355Y011372D01*
X057007Y011372D01*
X056687Y011240D01*
X056441Y010994D01*
X056308Y010674D01*
X056308Y010326D01*
X056441Y010006D01*
X056687Y009760D01*
X057007Y009628D01*
X057355Y009628D01*
X057766Y009852D02*
X060331Y009852D01*
X060331Y010010D02*
X057922Y010010D01*
X057988Y010169D02*
X060331Y010169D01*
X060331Y010327D02*
X058053Y010327D01*
X058053Y010486D02*
X060331Y010486D01*
X060331Y010644D02*
X058053Y010644D01*
X058000Y010803D02*
X060331Y010803D01*
X060331Y010961D02*
X057934Y010961D01*
X057795Y011120D02*
X060331Y011120D01*
X060331Y011278D02*
X057583Y011278D01*
X056779Y011278D02*
X055811Y011278D01*
X055811Y011437D02*
X060331Y011437D01*
X060331Y011595D02*
X055811Y011595D01*
X055811Y011754D02*
X060331Y011754D01*
X060331Y011912D02*
X055811Y011912D01*
X055811Y012071D02*
X060331Y012071D01*
X060331Y012229D02*
X055811Y012229D01*
X055811Y012388D02*
X060331Y012388D01*
X060331Y012546D02*
X055811Y012546D01*
X055811Y012705D02*
X060331Y012705D01*
X060331Y012863D02*
X055811Y012863D01*
X055811Y013022D02*
X060331Y013022D01*
X060331Y013180D02*
X055811Y013180D01*
X055811Y013339D02*
X060331Y013339D01*
X060331Y013497D02*
X055811Y013497D01*
X055811Y013656D02*
X060331Y013656D01*
X060331Y013814D02*
X055811Y013814D01*
X055811Y013973D02*
X060331Y013973D01*
X060331Y014131D02*
X055811Y014131D01*
X055811Y014290D02*
X060331Y014290D01*
X060331Y014448D02*
X055811Y014448D01*
X055811Y014607D02*
X060331Y014607D01*
X060331Y014765D02*
X055811Y014765D01*
X055811Y014924D02*
X060331Y014924D01*
X060331Y015082D02*
X055811Y015082D01*
X055811Y015241D02*
X060331Y015241D01*
X060331Y015399D02*
X055811Y015399D01*
X055811Y015558D02*
X060331Y015558D01*
X060331Y015716D02*
X055811Y015716D01*
X055811Y015875D02*
X060331Y015875D01*
X060331Y016033D02*
X055811Y016033D01*
X055811Y016192D02*
X060331Y016192D01*
X060331Y016350D02*
X055811Y016350D01*
X055811Y016509D02*
X060331Y016509D01*
X060331Y016667D02*
X055811Y016667D01*
X055811Y016826D02*
X060331Y016826D01*
X060331Y016984D02*
X055811Y016984D01*
X055811Y017143D02*
X058499Y017143D01*
X058558Y017108D02*
X058870Y017025D01*
X059192Y017025D01*
X059504Y017108D01*
X059783Y017270D01*
X060011Y017498D01*
X060172Y017777D01*
X060331Y017777D01*
X060331Y017935D02*
X060215Y017935D01*
X060256Y018089D02*
X060172Y017777D01*
X060081Y017618D02*
X060331Y017618D01*
X060331Y017460D02*
X059973Y017460D01*
X059814Y017301D02*
X060331Y017301D01*
X060331Y017143D02*
X059563Y017143D01*
X058558Y017108D02*
X058279Y017270D01*
X058051Y017498D01*
X057889Y017777D01*
X057806Y018089D01*
X057806Y018411D01*
X057889Y018723D01*
X058051Y019002D01*
X058279Y019230D01*
X058558Y019392D01*
X058870Y019475D01*
X059192Y019475D01*
X059504Y019392D01*
X059783Y019230D01*
X060011Y019002D01*
X060172Y018723D01*
X060256Y018411D01*
X060256Y018089D01*
X060256Y018094D02*
X060331Y018094D01*
X060331Y018252D02*
X060256Y018252D01*
X060256Y018411D02*
X060331Y018411D01*
X060331Y018569D02*
X060214Y018569D01*
X060170Y018728D02*
X060331Y018728D01*
X060331Y018886D02*
X060078Y018886D01*
X059969Y019045D02*
X060331Y019045D01*
X060331Y019203D02*
X059810Y019203D01*
X059556Y019362D02*
X060331Y019362D01*
X060331Y019520D02*
X055811Y019520D01*
X055811Y019362D02*
X058506Y019362D01*
X058252Y019203D02*
X055811Y019203D01*
X055811Y019045D02*
X058093Y019045D01*
X057984Y018886D02*
X055811Y018886D01*
X055811Y018728D02*
X057892Y018728D01*
X057848Y018569D02*
X055811Y018569D01*
X055811Y018411D02*
X057806Y018411D01*
X057806Y018252D02*
X055811Y018252D01*
X055811Y018094D02*
X057806Y018094D01*
X057847Y017935D02*
X055811Y017935D01*
X055811Y017777D02*
X057890Y017777D01*
X057981Y017618D02*
X055811Y017618D01*
X055811Y017460D02*
X058089Y017460D01*
X058248Y017301D02*
X055811Y017301D01*
X054851Y016667D02*
X026717Y016667D01*
X026601Y016509D02*
X054851Y016509D01*
X054851Y016350D02*
X026710Y016350D01*
X026776Y016192D02*
X054851Y016192D01*
X054851Y016033D02*
X026796Y016033D01*
X026796Y015875D02*
X054851Y015875D01*
X054851Y015716D02*
X026737Y015716D01*
X025705Y017618D02*
X022457Y017618D01*
X026785Y010169D02*
X052674Y010169D01*
X052740Y010010D02*
X026796Y010010D01*
X026793Y009852D02*
X052896Y009852D01*
X053149Y009693D02*
X026728Y009693D01*
X029511Y007950D02*
X030151Y007950D01*
X029861Y007791D02*
X029801Y007791D01*
X030511Y007950D02*
X031151Y007950D01*
X030861Y007791D02*
X030801Y007791D01*
X031511Y007950D02*
X032151Y007950D01*
X031861Y007791D02*
X031801Y007791D01*
X032511Y007950D02*
X033151Y007950D01*
X032861Y007791D02*
X032801Y007791D01*
X035076Y016984D02*
X037086Y016984D01*
X036955Y017143D02*
X035207Y017143D01*
X035272Y017301D02*
X036889Y017301D01*
X036866Y017460D02*
X035296Y017460D01*
X035296Y017618D02*
X036866Y017618D01*
X036922Y017777D02*
X035240Y017777D01*
X035157Y017935D02*
X037005Y017935D01*
X037163Y018094D02*
X034999Y018094D01*
X035088Y019996D02*
X037074Y019996D01*
X036950Y020154D02*
X035212Y020154D01*
X035277Y020313D02*
X036885Y020313D01*
X036866Y020471D02*
X035296Y020471D01*
X035296Y020630D02*
X036866Y020630D01*
X036926Y020788D02*
X035236Y020788D01*
X035146Y020947D02*
X037016Y020947D01*
X037175Y021105D02*
X034987Y021105D01*
X037987Y021105D02*
X054851Y021105D01*
X054851Y020947D02*
X038146Y020947D01*
X038236Y020788D02*
X054851Y020788D01*
X054851Y020630D02*
X038296Y020630D01*
X038296Y020471D02*
X054851Y020471D01*
X054851Y020313D02*
X038277Y020313D01*
X038212Y020154D02*
X054851Y020154D01*
X054851Y019996D02*
X038088Y019996D01*
X050104Y019392D02*
X050383Y019230D01*
X050611Y019002D01*
X050772Y018723D01*
X050856Y018411D01*
X050856Y018089D01*
X050856Y018094D02*
X054851Y018094D01*
X054851Y018252D02*
X050856Y018252D01*
X050856Y018411D02*
X054851Y018411D01*
X054851Y018569D02*
X050814Y018569D01*
X050770Y018728D02*
X054851Y018728D01*
X054851Y018886D02*
X050678Y018886D01*
X050569Y019045D02*
X054851Y019045D01*
X054851Y019203D02*
X050410Y019203D01*
X055811Y019679D02*
X060331Y019679D01*
X060331Y019837D02*
X055811Y019837D01*
X055811Y019996D02*
X060331Y019996D01*
X060331Y020154D02*
X055811Y020154D01*
X055811Y020313D02*
X060331Y020313D01*
X060331Y020471D02*
X055811Y020471D01*
X055811Y020630D02*
X060331Y020630D01*
X060331Y020788D02*
X055811Y020788D01*
X055811Y020947D02*
X060331Y020947D01*
X060331Y021105D02*
X055811Y021105D01*
X055811Y021264D02*
X060331Y021264D01*
X060331Y021422D02*
X055811Y021422D01*
X055811Y021581D02*
X060331Y021581D01*
X060331Y021739D02*
X055811Y021739D01*
X055811Y021898D02*
X060331Y021898D01*
X060331Y022056D02*
X055811Y022056D01*
X055811Y022215D02*
X060331Y022215D01*
X060331Y022373D02*
X055811Y022373D01*
X055811Y022532D02*
X060331Y022532D01*
X060331Y022690D02*
X055811Y022690D01*
X055811Y022849D02*
X060331Y022849D01*
X060331Y023007D02*
X055811Y023007D01*
X055811Y023166D02*
X060331Y023166D01*
X060331Y023324D02*
X055811Y023324D01*
X055811Y023483D02*
X060331Y023483D01*
X060331Y023641D02*
X055811Y023641D01*
X055811Y023800D02*
X060331Y023800D01*
X060331Y023958D02*
X055811Y023958D01*
X055811Y024117D02*
X060331Y024117D01*
X060331Y024275D02*
X055811Y024275D01*
X055811Y024434D02*
X060331Y024434D01*
X060331Y024592D02*
X055811Y024592D01*
X055811Y024751D02*
X060331Y024751D01*
X060331Y024909D02*
X055811Y024909D01*
X055811Y025068D02*
X060331Y025068D01*
X060331Y025226D02*
X055811Y025226D01*
X055811Y025385D02*
X060331Y025385D01*
X060331Y025543D02*
X055811Y025543D01*
X055811Y025702D02*
X060331Y025702D01*
X060331Y025860D02*
X059506Y025860D01*
X059504Y025858D02*
X059783Y026020D01*
X060011Y026248D01*
X060172Y026527D01*
X060256Y026839D01*
X060256Y027161D01*
X060172Y027473D01*
X060011Y027752D01*
X059783Y027980D01*
X059504Y028142D01*
X059192Y028225D01*
X058870Y028225D01*
X058558Y028142D01*
X058279Y027980D01*
X058051Y027752D01*
X057889Y027473D01*
X057806Y027161D01*
X057806Y026839D01*
X057889Y026527D01*
X058051Y026248D01*
X058279Y026020D01*
X058558Y025858D01*
X058870Y025775D01*
X059192Y025775D01*
X059504Y025858D01*
X059781Y026019D02*
X060331Y026019D01*
X060331Y026177D02*
X059940Y026177D01*
X060062Y026336D02*
X060331Y026336D01*
X060331Y026494D02*
X060153Y026494D01*
X060206Y026653D02*
X060331Y026653D01*
X060331Y026811D02*
X060249Y026811D01*
X060256Y026970D02*
X060331Y026970D01*
X060331Y027128D02*
X060256Y027128D01*
X060222Y027287D02*
X060331Y027287D01*
X060331Y027445D02*
X060180Y027445D01*
X060097Y027604D02*
X060331Y027604D01*
X060331Y027762D02*
X060001Y027762D01*
X059843Y027921D02*
X060331Y027921D01*
X060331Y028079D02*
X059612Y028079D01*
X060331Y028238D02*
X055811Y028238D01*
X055811Y028396D02*
X060331Y028396D01*
X060331Y028555D02*
X055811Y028555D01*
X055811Y028713D02*
X060331Y028713D01*
X060331Y028872D02*
X055811Y028872D01*
X055811Y029030D02*
X060331Y029030D01*
X060331Y029189D02*
X055811Y029189D01*
X055811Y029347D02*
X060331Y029347D01*
X060331Y029506D02*
X055811Y029506D01*
X055811Y029664D02*
X060331Y029664D01*
X060331Y029823D02*
X055811Y029823D01*
X055811Y029981D02*
X060331Y029981D01*
X060331Y030140D02*
X055811Y030140D01*
X055811Y030298D02*
X060331Y030298D01*
X060331Y030457D02*
X055811Y030457D01*
X055811Y030615D02*
X060331Y030615D01*
X060331Y030774D02*
X055811Y030774D01*
X055811Y030932D02*
X060331Y030932D01*
X060331Y031091D02*
X055811Y031091D01*
X055811Y031249D02*
X060331Y031249D01*
X060331Y031408D02*
X055811Y031408D01*
X055811Y031566D02*
X060331Y031566D01*
X060331Y031725D02*
X055811Y031725D01*
X055811Y031883D02*
X060331Y031883D01*
X060331Y032042D02*
X057261Y032042D01*
X057509Y032200D02*
X060331Y032200D01*
X060331Y032359D02*
X057667Y032359D01*
X057759Y032517D02*
X060331Y032517D01*
X060331Y032676D02*
X057826Y032676D01*
X057868Y032834D02*
X060331Y032834D01*
X060331Y032993D02*
X057876Y032993D01*
X057872Y033151D02*
X060331Y033151D01*
X060331Y033310D02*
X057830Y033310D01*
X057767Y033468D02*
X060331Y033468D01*
X060331Y033627D02*
X057676Y033627D01*
X057524Y033785D02*
X060331Y033785D01*
X060331Y033944D02*
X057287Y033944D01*
X056375Y033944D02*
X055811Y033944D01*
X055811Y034102D02*
X060331Y034102D01*
X060331Y034261D02*
X055811Y034261D01*
X055811Y034419D02*
X060331Y034419D01*
X060331Y034578D02*
X055811Y034578D01*
X055811Y034736D02*
X060331Y034736D01*
X060331Y034895D02*
X058237Y034895D01*
X058395Y035053D02*
X060331Y035053D01*
X060331Y035212D02*
X058546Y035212D01*
X058497Y035846D02*
X060331Y035846D01*
X060331Y036004D02*
X058338Y036004D01*
X058180Y036163D02*
X060331Y036163D01*
X060331Y036321D02*
X057311Y036321D01*
X057311Y036163D02*
X057482Y036163D01*
X057311Y036480D02*
X060331Y036480D01*
X060331Y036638D02*
X057311Y036638D01*
X057311Y036797D02*
X060331Y036797D01*
X060331Y036955D02*
X057311Y036955D01*
X057311Y037114D02*
X060331Y037114D01*
X060331Y037272D02*
X057311Y037272D01*
X057311Y037431D02*
X060331Y037431D01*
X060331Y037589D02*
X057311Y037589D01*
X057311Y037748D02*
X060331Y037748D01*
X060331Y037906D02*
X057311Y037906D01*
X057311Y038065D02*
X060331Y038065D01*
X060331Y038223D02*
X057311Y038223D01*
X056420Y040601D02*
X056242Y040601D01*
X055420Y040601D02*
X055242Y040601D01*
X056831Y035500D02*
X057831Y035500D01*
X057425Y034895D02*
X057237Y034895D01*
X056425Y034895D02*
X056237Y034895D01*
X055331Y035000D02*
X055331Y010500D01*
X056138Y010169D02*
X056374Y010169D01*
X056308Y010327D02*
X056203Y010327D01*
X056203Y010486D02*
X056308Y010486D01*
X056308Y010644D02*
X056203Y010644D01*
X056150Y010803D02*
X056362Y010803D01*
X056428Y010961D02*
X056084Y010961D01*
X055945Y011120D02*
X056567Y011120D01*
X056440Y010010D02*
X056072Y010010D01*
X055916Y009852D02*
X056596Y009852D01*
X056849Y009693D02*
X055663Y009693D01*
X054999Y009693D02*
X053813Y009693D01*
X054066Y009852D02*
X054746Y009852D01*
X054590Y010010D02*
X054222Y010010D01*
X054288Y010169D02*
X054524Y010169D01*
X054458Y010327D02*
X054353Y010327D01*
X054353Y010486D02*
X054458Y010486D01*
X054458Y010644D02*
X054353Y010644D01*
X054300Y010803D02*
X054512Y010803D01*
X054578Y010961D02*
X054234Y010961D01*
X054095Y011120D02*
X054717Y011120D01*
X054859Y006206D02*
X055803Y006206D01*
X055645Y006048D02*
X055017Y006048D01*
X055114Y005889D02*
X055548Y005889D01*
X055482Y005731D02*
X055180Y005731D01*
X055203Y005572D02*
X055458Y005572D01*
X055458Y005414D02*
X055203Y005414D01*
X055174Y005255D02*
X055488Y005255D01*
X055554Y005097D02*
X055108Y005097D01*
X055003Y004938D02*
X055659Y004938D01*
X055818Y004780D02*
X054844Y004780D01*
X056844Y004780D02*
X060331Y004780D01*
X060331Y004938D02*
X057003Y004938D01*
X057108Y005097D02*
X060331Y005097D01*
X060331Y005255D02*
X057174Y005255D01*
X057203Y005414D02*
X060331Y005414D01*
X060331Y005572D02*
X057203Y005572D01*
X057180Y005731D02*
X060331Y005731D01*
X060331Y005889D02*
X057114Y005889D01*
X057017Y006048D02*
X060331Y006048D01*
X060331Y006206D02*
X056859Y006206D01*
X055811Y025860D02*
X058555Y025860D01*
X058281Y026019D02*
X055811Y026019D01*
X055811Y026177D02*
X058122Y026177D01*
X058000Y026336D02*
X055811Y026336D01*
X055811Y026494D02*
X057909Y026494D01*
X057856Y026653D02*
X055811Y026653D01*
X055811Y026811D02*
X057813Y026811D01*
X057806Y026970D02*
X055811Y026970D01*
X055811Y027128D02*
X057806Y027128D01*
X057840Y027287D02*
X055811Y027287D01*
X055811Y027445D02*
X057882Y027445D01*
X057965Y027604D02*
X055811Y027604D01*
X055811Y027762D02*
X058061Y027762D01*
X058219Y027921D02*
X055811Y027921D01*
X055811Y028079D02*
X058450Y028079D01*
X056401Y032042D02*
X055811Y032042D01*
X055811Y032200D02*
X056153Y032200D01*
X055995Y032359D02*
X055811Y032359D01*
X055811Y032517D02*
X055903Y032517D01*
X055836Y032676D02*
X055811Y032676D01*
X055811Y033310D02*
X055832Y033310D01*
X055811Y033468D02*
X055895Y033468D01*
X055811Y033627D02*
X055986Y033627D01*
X056138Y033785D02*
X055811Y033785D01*
X033682Y065802D02*
X026343Y065802D01*
X026731Y065961D02*
X033780Y065961D01*
X033715Y066119D02*
X026932Y066119D01*
X027078Y066278D02*
X033649Y066278D01*
X033616Y066436D02*
X027170Y066436D01*
X027241Y066595D02*
X033616Y066595D01*
X033662Y066753D02*
X027283Y066753D01*
X027306Y066912D02*
X033731Y066912D01*
X010289Y031249D02*
X010168Y031249D01*
X010168Y031091D02*
X010468Y031091D01*
X012864Y030457D02*
X017863Y030457D01*
X018157Y030298D02*
X013115Y030298D01*
D22*
X007331Y000500D02*
X028801Y000500D01*
X028801Y001900D01*
X028301Y001900D01*
X028301Y002550D01*
X028801Y002550D01*
X028801Y003700D01*
X030051Y003700D01*
X030051Y000900D01*
X032611Y000900D01*
X032611Y003700D01*
X033861Y003700D01*
X033861Y002550D01*
X034361Y002550D01*
X034361Y001900D01*
X033861Y001900D01*
X033861Y000500D01*
X042301Y000500D01*
X042301Y001900D01*
X041801Y001900D01*
X041801Y002550D01*
X042301Y002550D01*
X042301Y003700D01*
X043551Y003700D01*
X043551Y000900D01*
X046111Y000900D01*
X046111Y003700D01*
X047361Y003700D01*
X047361Y002550D01*
X047861Y002550D01*
X047861Y001900D01*
X047361Y001900D01*
X047361Y000500D01*
X084331Y000500D01*
X084331Y069500D01*
X007331Y069500D01*
X007331Y000500D01*
M02*
