G75*
G70*
%OFA0B0*%
%FSLAX24Y24*%
%IPPOS*%
%LPD*%
%AMOC8*
5,1,8,0,0,1.08239X$1,22.5*
%
%ADD10C,0.0060*%
%ADD11C,0.1790*%
%ADD12C,0.0770*%
%ADD13C,0.1430*%
%ADD14C,0.1085*%
%ADD15OC8,0.0770*%
%ADD16R,0.0600X0.3260*%
%ADD17C,0.1640*%
%ADD18C,0.0580*%
D10*
X066775Y005530D02*
X067096Y005744D01*
X066775Y005957D01*
X067096Y006171D02*
X067096Y005530D01*
X067313Y005637D02*
X067420Y005744D01*
X067633Y005744D01*
X067740Y005850D01*
X067633Y005957D01*
X067313Y005957D01*
X067313Y005637D02*
X067420Y005530D01*
X067740Y005530D01*
X067958Y005530D02*
X068278Y005530D01*
X068385Y005637D01*
X068278Y005744D01*
X067958Y005744D01*
X067958Y005850D02*
X067958Y005530D01*
X067958Y005850D02*
X068064Y005957D01*
X068278Y005957D01*
X068602Y006171D02*
X068602Y005530D01*
X069029Y005530D02*
X069029Y006171D01*
X068816Y005957D01*
X068602Y006171D01*
X069891Y005957D02*
X069997Y005957D01*
X070211Y005744D01*
X070211Y005957D02*
X070211Y005530D01*
X070428Y005744D02*
X070855Y005744D01*
X070855Y005850D02*
X070749Y005957D01*
X070535Y005957D01*
X070428Y005850D01*
X070428Y005744D01*
X070535Y005530D02*
X070749Y005530D01*
X070855Y005637D01*
X070855Y005850D01*
X071073Y005957D02*
X071393Y005957D01*
X071500Y005850D01*
X071500Y005637D01*
X071393Y005530D01*
X071073Y005530D01*
X071073Y006171D01*
X071823Y006171D02*
X071823Y005530D01*
X071930Y005530D02*
X071716Y005530D01*
X072147Y005637D02*
X072147Y005850D01*
X072254Y005957D01*
X072468Y005957D01*
X072574Y005850D01*
X072574Y005637D01*
X072468Y005530D01*
X072254Y005530D01*
X072147Y005637D01*
X071930Y006171D02*
X071823Y006171D01*
X072792Y006064D02*
X072899Y006171D01*
X073112Y006171D01*
X073219Y006064D01*
X073219Y005957D01*
X073112Y005850D01*
X072899Y005850D01*
X072792Y005744D01*
X072792Y005637D01*
X072899Y005530D01*
X073112Y005530D01*
X073219Y005637D01*
X074081Y005530D02*
X074081Y005850D01*
X074188Y005957D01*
X074294Y005850D01*
X074294Y005530D01*
X074508Y005530D02*
X074508Y005957D01*
X074401Y005957D01*
X074294Y005850D01*
X074725Y005850D02*
X074832Y005957D01*
X075046Y005957D01*
X075152Y005850D01*
X075152Y005637D01*
X075046Y005530D01*
X074832Y005530D01*
X074725Y005637D01*
X074725Y005850D01*
X075369Y005957D02*
X075582Y005957D01*
X075475Y006064D02*
X075475Y005637D01*
X075369Y005530D01*
X075798Y005530D02*
X075905Y005637D01*
X075905Y006064D01*
X076012Y005957D02*
X075798Y005957D01*
X076229Y005850D02*
X076336Y005957D01*
X076550Y005957D01*
X076656Y005850D01*
X076656Y005637D01*
X076550Y005530D01*
X076336Y005530D01*
X076229Y005637D01*
X076229Y005850D01*
X076874Y005744D02*
X076874Y005637D01*
X076981Y005530D01*
X077301Y005530D01*
X077301Y006171D01*
X076981Y006171D01*
X076874Y006064D01*
X076874Y005957D01*
X076981Y005850D01*
X077301Y005850D01*
X076981Y005850D02*
X076874Y005744D01*
D11*
X059031Y018250D03*
X049631Y018250D03*
X049631Y027000D03*
X059031Y027000D03*
X026081Y045750D03*
X012331Y038150D03*
X009581Y045750D03*
X012331Y029350D03*
X009581Y067000D03*
X026081Y067000D03*
D12*
X034331Y066500D03*
X034331Y065500D03*
X034331Y064500D03*
X034331Y063500D03*
X034331Y062500D03*
X034331Y061500D03*
X034331Y060500D03*
X034331Y059500D03*
X034331Y058500D03*
X034331Y057500D03*
X034331Y056500D03*
X034331Y055500D03*
X034331Y054500D03*
X034331Y053500D03*
X034331Y052500D03*
X034331Y051500D03*
X034331Y050500D03*
X034331Y049500D03*
X034331Y048500D03*
X034331Y047500D03*
X034331Y046500D03*
X034331Y045500D03*
X034331Y044500D03*
X034331Y043500D03*
X034331Y042500D03*
X034331Y041500D03*
X034331Y040500D03*
X034331Y039500D03*
X038331Y037500D03*
X039331Y037500D03*
X040331Y037500D03*
X041331Y037500D03*
X042331Y037500D03*
X043331Y037500D03*
X046331Y039500D03*
X046331Y040500D03*
X046331Y041500D03*
X046331Y042500D03*
X046331Y043500D03*
X046331Y044500D03*
X046331Y045500D03*
X046331Y046500D03*
X046331Y047500D03*
X046331Y048500D03*
X046331Y049500D03*
X046331Y050500D03*
X046331Y051500D03*
X046331Y052500D03*
X046331Y053500D03*
X046331Y054500D03*
X046331Y055500D03*
X046331Y056500D03*
X046331Y057500D03*
X046331Y058500D03*
X046331Y059500D03*
X046331Y060500D03*
X046331Y061500D03*
X046331Y062500D03*
X046331Y063500D03*
X046331Y064500D03*
X046331Y065500D03*
X046331Y066500D03*
X052831Y063500D03*
X052831Y062500D03*
X052831Y061500D03*
X052831Y060500D03*
X052831Y059500D03*
X053831Y059500D03*
X054831Y059500D03*
X055831Y059500D03*
X056831Y059500D03*
X057831Y059500D03*
X057831Y060500D03*
X057831Y061500D03*
X057831Y062500D03*
X057831Y063500D03*
X057831Y056500D03*
X056831Y056500D03*
X055831Y056500D03*
X054831Y056500D03*
X054831Y053000D03*
X055831Y053000D03*
X056831Y053000D03*
X057831Y053000D03*
X057831Y040000D03*
X056831Y040000D03*
X055831Y040000D03*
X054831Y040000D03*
X039331Y032000D03*
X039331Y031000D03*
X039331Y030000D03*
X036331Y030000D03*
X036331Y031000D03*
X036331Y032000D03*
X031081Y027000D03*
X029581Y026500D03*
X028581Y025500D03*
X028081Y024000D03*
X025331Y026000D03*
X025331Y027000D03*
X025331Y028000D03*
X025331Y031000D03*
X025331Y032000D03*
X019331Y036500D03*
X019331Y037500D03*
X019331Y038500D03*
X019331Y042250D03*
X018331Y042250D03*
X017331Y042250D03*
X016331Y042250D03*
X015331Y042250D03*
X014331Y042250D03*
X013331Y042250D03*
X013331Y045250D03*
X014331Y045250D03*
X015331Y045250D03*
X016331Y045250D03*
X017331Y045250D03*
X018331Y045250D03*
X019331Y045250D03*
X020331Y045250D03*
X021331Y045250D03*
X022331Y045250D03*
X022331Y042250D03*
X021331Y042250D03*
X020331Y042250D03*
X018331Y032000D03*
X018331Y031000D03*
X018331Y028000D03*
X018331Y027000D03*
X018331Y026000D03*
X022081Y017000D03*
X022081Y016000D03*
X022081Y015000D03*
X022081Y014000D03*
X022081Y013000D03*
X022081Y012000D03*
X022081Y011000D03*
X022081Y010000D03*
X022081Y009000D03*
X026081Y009000D03*
X026081Y010000D03*
X026081Y011000D03*
X026081Y012000D03*
X026081Y013000D03*
X026081Y014000D03*
X026081Y015000D03*
X026081Y016000D03*
X026081Y017000D03*
X034581Y017500D03*
X037581Y017500D03*
X037581Y020500D03*
X034581Y020500D03*
X033331Y007250D03*
X032331Y007250D03*
X031331Y007250D03*
X030331Y007250D03*
X029331Y007250D03*
X042831Y007250D03*
X043831Y007250D03*
X044831Y007250D03*
X045831Y007250D03*
X046831Y007250D03*
D13*
X042081Y029250D03*
X042081Y032750D03*
X051831Y033000D03*
X056831Y033000D03*
D14*
X057181Y010500D03*
X055331Y010500D03*
X053481Y010500D03*
X054331Y005500D03*
X056331Y005500D03*
D15*
X045331Y011000D03*
X045331Y012000D03*
X045331Y013000D03*
X045331Y014000D03*
X045331Y015000D03*
X045331Y023000D03*
X045331Y024000D03*
X045331Y025000D03*
X045331Y026000D03*
X045331Y027000D03*
X050831Y035500D03*
X051831Y035500D03*
X052831Y035500D03*
X055831Y035500D03*
X056831Y035500D03*
X057831Y035500D03*
X051581Y039000D03*
X051581Y040000D03*
X051581Y041000D03*
X051581Y042000D03*
X051581Y043000D03*
X051581Y044000D03*
X051581Y045000D03*
X051581Y046000D03*
X051581Y047000D03*
X051581Y048000D03*
X051581Y049000D03*
X051581Y050000D03*
X051581Y051000D03*
X051581Y052000D03*
X051581Y053000D03*
X051581Y054000D03*
X050581Y060500D03*
X050581Y061500D03*
X050581Y062500D03*
X050581Y063500D03*
X050581Y064500D03*
X029581Y064500D03*
X029581Y063500D03*
X029581Y062500D03*
X029581Y061500D03*
X029581Y060500D03*
X029331Y044000D03*
X029331Y043000D03*
X029331Y042000D03*
X029331Y041000D03*
X029331Y040000D03*
X029331Y037000D03*
X029331Y036000D03*
X029331Y035000D03*
X029331Y034000D03*
X029331Y033000D03*
X029331Y030000D03*
X030331Y030000D03*
X031331Y030000D03*
X032331Y030000D03*
X033331Y030000D03*
X037081Y007250D03*
X038081Y007250D03*
X039081Y007250D03*
X039081Y004250D03*
X038081Y004250D03*
X037081Y004250D03*
D16*
X032131Y002640D03*
X031331Y002640D03*
X030531Y002640D03*
X044031Y002640D03*
X044831Y002640D03*
X045631Y002640D03*
D17*
X011331Y003250D03*
X011331Y022750D03*
D18*
X011081Y032500D03*
X013581Y032500D03*
X013581Y035000D03*
X011081Y035000D03*
M02*
